<svg width="512" height="512" viewBox="0 0 512 512" style="color:currentColor" xmlns="http://www.w3.org/2000/svg" class="h-full w-full"><rect width="512" height="512" x="0" y="0" rx="30" fill="transparent" stroke="transparent" stroke-width="0" stroke-opacity="100%" paint-order="stroke"></rect><svg width="256px" height="256px" viewBox="0 0 470 850" fill="currentColor" x="128" y="128" role="img" style="display:inline-block;vertical-align:middle" xmlns="http://www.w3.org/2000/svg"><g fill="currentColor"><path fill="currentColor" d="M440 240q10 0 17 6t6 17v255q0 50-19 93t-54 75t-78 49t-96 14q-46-3-85-24t-69-53t-45-74t-17-88V186q0-79 34-125t87-52q31-4 60 5t50 29t35 46t12 58v348q0 10-6 16t-17 7h-47q-9 0-16-7t-7-16V150q0-17-10-32t-28-17q-22-3-38 11t-16 35v366q0 27 9 51t25 43t38 33t48 16q32 4 61-6t50-28t35-46t12-58V263q0-10 7-17t16-6h46z"/></g></svg></svg>