<?xml version="1.0" encoding="utf-8"?>
<!-- Generator: Adobe Illustrator 27.5.0, SVG Export Plug-In . SVG Version: 6.00 Build 0)  -->
<svg version="1.1" xmlns="http://www.w3.org/2000/svg" xmlns:xlink="http://www.w3.org/1999/xlink" x="0px" y="0px"
	 viewBox="0 0 750 500" style="enable-background:new 0 0 750 500;" xml:space="preserve">
<g id="Background_Complete">
	<g>
		<g>
			<g>
				<path style="fill:#EBEBEB;" d="M615.95,109.307c0.589-4.277-5.448-7.796-9.984-8.162c-2.163-0.174-4.41,0.156-6.459-0.558
					c-4.44-1.548-6.214-7.284-10.546-9.111c-3.239-1.366-6.968-0.15-10.108,1.43c-3.14,1.58-6.243,3.569-9.751,3.794
					c-3.052,0.195-6.365-0.936-9.035,0.554c-1.99,1.111-3.032,3.403-4.865,4.756c-1.794,1.323-4.134,1.603-6.36,1.724
					c-2.226,0.121-4.53,0.144-6.557,1.072c-2.027,0.928-3.704,3.071-3.283,5.26L615.95,109.307z"/>
			</g>
		</g>
	</g>
	<g>
		<g>
			<path style="fill:#F5F5F5;" d="M443.116,348.906c0.812-1.085-34.4-56.609-34.4-56.609l-25.194-3.982l-25.939,33.903
				l-11.014-5.159l-77.042,30.094l-53.982-68.802l-8.235,8.566l-21.636-32.167l-13.878,30.765l-21.42,53.094l-14.491-10.809
				l-40.237,40.93h42.575h26.235h316.095C480.555,368.731,442.304,349.991,443.116,348.906z"/>
		</g>
	</g>
	<g>
		<g>
			<g>
				<path style="fill:#E0E0E0;" d="M582.743,367.761c0,0.144-114.955,0.26-256.727,0.26c-141.821,0-256.752-0.117-256.752-0.26
					s114.931-0.26,256.752-0.26C467.788,367.5,582.743,367.617,582.743,367.761z"/>
			</g>
		</g>
	</g>
	<g>
		<g>
			<g>
				<path style="fill:#E0E0E0;" d="M564.086,382.535c0,0.144-25.023,0.26-55.884,0.26c-30.872,0-55.889-0.117-55.889-0.26
					s25.018-0.26,55.889-0.26C539.062,382.274,564.086,382.391,564.086,382.535z"/>
			</g>
		</g>
	</g>
	<g>
		<g>
			<g>
				<path style="fill:#EBEBEB;" d="M176.415,152.714c0.861-6.255-7.967-11.401-14.601-11.936c-3.163-0.255-6.449,0.229-9.446-0.816
					c-6.493-2.263-9.087-10.652-15.423-13.324c-4.737-1.998-10.19-0.219-14.782,2.092c-4.592,2.311-9.13,5.22-14.26,5.548
					c-4.462,0.286-9.308-1.369-13.213,0.811c-2.909,1.624-4.433,4.977-7.115,6.955c-2.623,1.935-6.045,2.345-9.3,2.522
					c-3.255,0.177-6.625,0.21-9.589,1.567c-2.964,1.357-5.416,4.491-4.801,7.692L176.415,152.714z"/>
			</g>
		</g>
	</g>
	<g>
		<g>
			<g>
				<path style="fill:#F5F5F5;" d="M633.594,256.429c0.749-5.441-6.931-9.918-12.701-10.383c-2.752-0.222-5.61,0.199-8.217-0.71
					c-5.648-1.969-7.905-9.266-13.416-11.591c-4.12-1.738-8.864-0.191-12.859,1.82c-3.995,2.01-7.942,4.541-12.405,4.826
					c-3.882,0.248-8.097-1.191-11.494,0.705c-2.531,1.413-3.857,4.329-6.189,6.05c-2.282,1.683-5.259,2.04-8.091,2.194
					c-2.832,0.154-5.763,0.183-8.341,1.363c-2.578,1.18-4.711,3.907-4.176,6.692L633.594,256.429z"/>
			</g>
		</g>
	</g>
	<g>
		<g>
			<g>
				<path style="fill:#F5F5F5;" d="M444.65,85.619c0.529-3.841-4.892-7-8.964-7.328c-1.942-0.157-3.96,0.14-5.8-0.501
					c-3.987-1.389-5.579-6.54-9.469-8.181c-2.908-1.227-6.256-0.135-9.076,1.284c-2.819,1.419-5.606,3.205-8.755,3.406
					c-2.74,0.175-5.715-0.841-8.112,0.498c-1.786,0.997-2.722,3.056-4.368,4.27c-1.611,1.188-3.712,1.44-5.71,1.548
					c-1.999,0.109-4.068,0.129-5.887,0.962s-3.325,2.757-2.948,4.723L444.65,85.619z"/>
			</g>
		</g>
	</g>
	<g>
		<g>
			<path style="fill:#E0E0E0;" d="M723.949,454.966c-1.398-27.604-0.788-18.008-2.187-45.612l-49.219-27.425l-44.252,17.402
				l-7.783,12.606c-4.713,7.633-11.177,14.017-18.816,18.722c-9.461,5.827-22.219,14.98-26.845,24.307H723.949z"/>
		</g>
	</g>
	<g>
		<g>
			<polygon style="fill:#E0E0E0;" points="30.86,387.587 81.401,404.342 140.908,454.966 30.86,454.966 			"/>
		</g>
	</g>
	<g>
		<g>
			<g>
				<g>
					<path style="fill:#E0E0E0;" d="M638.167,320.453c3.501,24.927,7.001,49.855,10.502,74.782l2.733,0.089
						C649.658,369.925,647.802,344.019,638.167,320.453z"/>
				</g>
			</g>
		</g>
		<g>
			<g>
				<g>
					<path style="fill:#E0E0E0;" d="M667.332,316.951c-7.336,8.036-10.285,19.089-12.143,29.81
						c-2.635,15.203-2.874,33.154-2.084,48.564l3.833,0.085C655.385,368.794,658.983,342.272,667.332,316.951z"/>
				</g>
			</g>
		</g>
		<g>
			<g>
				<g>
					<path style="fill:#E0E0E0;" d="M640.097,364.695c-0.843-3.704-1.807-7.474-3.922-10.629c-2.857-4.263-7.511-6.959-12.195-9.058
						c-4.683-2.099-9.61-3.777-13.841-6.682c4.721,7.741,15.437,9.802,20.894,17.042c2.715,3.602,3.842,8.122,4.906,12.505
						c2.32,9.559,3.748,17.832,6.068,27.391h3.105C644.09,384.877,642.413,374.873,640.097,364.695z"/>
				</g>
			</g>
		</g>
		<g>
			<g>
				<g>
					<path style="fill:#E0E0E0;" d="M659.735,395.325c0,0,2.63-29.701,4.58-35.154c1.95-5.453,20.385-20.52,20.207-19.811
						c-0.177,0.709-13.826,17.194-15.776,20.562c-1.95,3.368-5.318,34.402-5.318,34.402H659.735z"/>
				</g>
			</g>
		</g>
	</g>
	<g>
		<g>
			<g>
				<path style="fill:#E0E0E0;" d="M547.925,390.199c0,0.018-0.218,0.036-0.633,0.053c-0.47,0.013-1.071,0.029-1.814,0.049
					c-1.642,0.02-3.905,0.048-6.673,0.083c-5.694,0.02-13.448,0.047-22.016,0.076c-8.571-0.03-16.327-0.057-22.02-0.076
					c-2.768-0.034-5.031-0.062-6.673-0.083c-0.743-0.02-1.344-0.036-1.814-0.049c-0.415-0.017-0.633-0.035-0.633-0.053
					c0-0.018,0.218-0.035,0.633-0.052c0.47-0.013,1.071-0.029,1.814-0.049c1.642-0.02,3.905-0.048,6.673-0.083
					c5.694-0.02,13.449-0.047,22.02-0.076c8.568,0.03,16.323,0.056,22.016,0.076c2.768,0.034,5.031,0.062,6.673,0.083
					c0.743,0.02,1.345,0.036,1.814,0.049C547.707,390.164,547.925,390.181,547.925,390.199z"/>
			</g>
		</g>
	</g>
</g>
<g id="Background_Simple" style="display:none;">
	<g style="display:inline;">
		<g>
			<path style="fill:#EBEBEB;" d="M541.825,231.523l-1.308-2.156c-11.028-18.173-30.967-29.128-51.989-27.799
				c-2.702,0.171-5.393,0.537-8.048,1.105c-19.113,4.091-35.744,18.545-42.638,37.056c-4.054,10.887-5.187,23.421-12.881,32.063
				c-10.013,11.246-27.012,11.599-41.958,11.133c-14.946-0.466-31.956-0.068-41.92,11.222c-6.24,7.071-8.224,17.127-7.72,26.596
				c1.332,25.072,18.802,47.489,41.02,58.632c22.218,11.143,48.377,12.141,72.693,7.239c34.064-6.867,66.458-25.724,85.929-54.85
				C552.476,302.64,557.404,262.959,541.825,231.523z"/>
		</g>
	</g>
	<g style="display:inline;">
		<g>
			<circle style="fill:#EBEBEB;" cx="251.196" cy="279.302" r="35.124"/>
		</g>
	</g>
	<g style="display:inline;">
		<g>
			<path style="fill:#EBEBEB;" d="M434.46,58.1c-8.059-9.552-18.567-17.615-30.419-21.578c-10.183-3.405-22.055-3.408-32.76-2.585
				c-10.705,0.823-21.406,4.899-28.871,12.617c-5.974,4.925-10.763,15.463-10.015,24.119c0.747,8.656,7.868,16.355,16.44,17.775
				c12.169,2.016,24.655-7.416,36.374-3.566c10.727,3.524,15.574,16.543,25.719,21.499c11.229,5.486,25.915-1.791,30.669-13.349
				C446.352,81.475,442.519,67.652,434.46,58.1z"/>
		</g>
	</g>
</g>
<g id="Plants">
	<g>
		<g>
			<g>
				<g>
					<g>
						<path style="fill:#FF725E;" d="M585.699,404.976c1.319,0.875,2.135,2.384,2.401,3.945c0.266,1.561,0.028,3.171-0.424,4.688
							c-0.874,2.935-3.116,5.656-5.376,7.723c-2.13-2.652-2.025-6.596-1.846-8.594C580.736,409.581,583.164,404.046,585.699,404.976
							"/>
					</g>
				</g>
			</g>
		</g>
		<g>
			<g>
				<g>
					<g>
						<path style="fill:#FF725E;" d="M584.35,426.8c-0.102-1.765,0.934-3.497,2.441-4.423c1.506-0.926,3.41-1.092,5.122-0.65
							c0.792,0.205,1.617,0.593,1.959,1.336c0.32,0.694,0.117,1.548-0.35,2.153c-0.468,0.605-1.16,0.996-1.869,1.282
							C589.222,427.479,586.69,427.983,584.35,426.8"/>
					</g>
				</g>
			</g>
		</g>
		<g>
			<g>
				<g>
					<g>
						<g>
							<path style="fill:#263238;" d="M579.476,435.409c-0.015-0.006,0.059-0.218,0.2-0.599c0.157-0.419,0.359-0.96,0.602-1.609
								c0.527-1.341,1.24-3.268,2.665-5.009c1.41-1.738,3.155-2.892,4.537-3.373c0.688-0.25,1.273-0.367,1.678-0.41
								c0.202-0.03,0.362-0.027,0.468-0.034c0.107-0.003,0.163-0.001,0.164,0.006c0.009,0.052-0.911,0.053-2.254,0.585
								c-1.342,0.509-3.035,1.658-4.422,3.367c-1.397,1.704-2.128,3.6-2.691,4.927c-0.277,0.67-0.502,1.213-0.668,1.584
								C579.59,435.214,579.49,435.415,579.476,435.409z"/>
						</g>
					</g>
				</g>
			</g>
		</g>
		<g>
			<g>
				<g>
					<g>
						<g>
							<path style="fill:#263238;" d="M584.222,409.354c0.008,0.001,0.002,0.095-0.017,0.274c-0.024,0.202-0.054,0.46-0.092,0.78
								c-0.084,0.677-0.218,1.655-0.393,2.862c-0.351,2.414-0.882,5.743-1.551,9.406c-0.671,3.663-1.352,6.965-1.879,9.347
								c-0.263,1.191-0.484,2.153-0.645,2.816c-0.078,0.313-0.141,0.565-0.19,0.762c-0.046,0.174-0.074,0.264-0.081,0.262
								c-0.007-0.002,0.006-0.095,0.037-0.272c0.039-0.199,0.088-0.455,0.149-0.771c0.142-0.695,0.337-1.655,0.576-2.83
								c0.487-2.389,1.144-5.694,1.814-9.355c0.669-3.66,1.224-6.982,1.614-9.39c0.192-1.183,0.349-2.15,0.463-2.851
								c0.055-0.318,0.099-0.574,0.133-0.774C584.193,409.446,584.214,409.353,584.222,409.354z"/>
						</g>
					</g>
				</g>
			</g>
		</g>
		<g>
			<g>
				<g>
					<g>
						<path style="fill:#FF725E;" d="M579.66,427.845c0.073-3.727-1.786-7.44-4.813-9.616c-0.771-0.554-1.825-1.014-2.629-0.511
							c-0.806,0.504-0.852,1.659-0.668,2.592c0.766,3.882,4.104,7.122,8.007,7.771"/>
					</g>
				</g>
			</g>
		</g>
		<g>
			<g>
				<g>
					<g>
						<g>
							<path style="fill:#263238;" d="M574.749,421.143c0.009-0.012,0.184,0.105,0.494,0.329c0.156,0.111,0.346,0.248,0.547,0.43
								c0.201,0.182,0.451,0.369,0.684,0.62c0.241,0.244,0.511,0.505,0.763,0.82c0.27,0.3,0.522,0.65,0.786,1.019
								c0.507,0.751,0.996,1.628,1.373,2.607c0.368,0.983,0.586,1.963,0.7,2.863c0.043,0.452,0.086,0.881,0.077,1.285
								c0.016,0.404-0.018,0.778-0.044,1.12c-0.013,0.343-0.084,0.647-0.12,0.916c-0.035,0.27-0.094,0.497-0.142,0.682
								c-0.095,0.371-0.154,0.573-0.168,0.569c-0.049-0.011,0.185-0.827,0.275-2.178c0.015-0.338,0.04-0.708,0.016-1.105
								c0.001-0.398-0.048-0.82-0.096-1.263c-0.124-0.884-0.344-1.844-0.705-2.81c-0.37-0.962-0.845-1.825-1.335-2.571
								c-0.255-0.367-0.497-0.715-0.758-1.016c-0.242-0.316-0.502-0.58-0.733-0.828
								C575.417,421.663,574.719,421.182,574.749,421.143z"/>
						</g>
					</g>
				</g>
			</g>
		</g>
	</g>
	<g>
		<g>
			<g>
				<g>
					<path style="fill:#455A64;" d="M117.767,453.907l0.427-0.046c-0.872-13.033-7.409-26.941-12.145-39.135
						c-4.872-12.544-9.44-25.429-20.532-33.049C97.504,405.036,108.276,429.428,117.767,453.907"/>
				</g>
			</g>
		</g>
		<g>
			<g>
				<g>
					<g>
						<path style="fill:#455A64;" d="M125.554,387.832c0.004,0.002-0.01,0.059-0.044,0.168c-0.039,0.123-0.09,0.283-0.153,0.484
							c-0.146,0.441-0.352,1.062-0.615,1.853c-0.136,0.403-0.286,0.849-0.45,1.337c-0.149,0.495-0.312,1.031-0.485,1.606
							c-0.339,1.155-0.764,2.459-1.128,3.93c-0.193,0.733-0.396,1.5-0.606,2.299c-0.207,0.801-0.38,1.643-0.583,2.51
							c-0.422,1.731-0.756,3.605-1.137,5.571c-0.683,3.946-1.271,8.313-1.621,12.922c-0.323,4.613-0.375,9.02-0.28,13.024
							c0.084,2.001,0.139,3.904,0.295,5.679c0.07,0.888,0.115,1.747,0.199,2.57c0.086,0.822,0.169,1.611,0.249,2.365
							c0.137,1.509,0.353,2.863,0.509,4.057c0.082,0.595,0.159,1.15,0.229,1.662c0.085,0.507,0.162,0.971,0.233,1.391
							c0.134,0.823,0.239,1.469,0.313,1.927c0.031,0.209,0.056,0.375,0.075,0.503c0.015,0.114,0.021,0.172,0.016,0.173
							c0,0-0.84-3.663-1.567-9.69c-0.085-0.754-0.174-1.544-0.267-2.367c-0.089-0.823-0.14-1.684-0.215-2.573
							c-0.166-1.777-0.23-3.684-0.321-5.688c-0.109-4.012-0.064-8.428,0.259-13.051c0.351-4.619,0.947-8.995,1.646-12.947
							c0.388-1.969,0.731-3.845,1.164-5.577c0.208-0.868,0.387-1.711,0.599-2.512c0.217-0.799,0.425-1.566,0.624-2.298
							c0.377-1.47,0.815-2.772,1.169-3.924c0.182-0.574,0.351-1.108,0.507-1.601c0.173-0.485,0.331-0.929,0.473-1.33
							c0.283-0.785,0.506-1.401,0.664-1.837c0.074-0.198,0.133-0.355,0.179-0.475C125.526,387.884,125.549,387.83,125.554,387.832z"
							/>
					</g>
				</g>
			</g>
		</g>
		<g>
			<g>
				<g>
					<g>
						<path style="fill:#F5F5F5;" d="M121.858,400.252l-0.673-0.191c-1.582-0.448-2.501-2.094-2.053-3.676l4.462-15.747
							c0.448-1.582,2.094-2.501,3.676-2.053l0.673,0.191c1.582,0.448,2.501,2.094,2.053,3.676l-4.462,15.747
							C125.086,399.781,123.44,400.7,121.858,400.252z"/>
					</g>
				</g>
			</g>
			<g>
				<g>
					<g>
						<g>
							<path style="fill:#263238;" d="M121.858,400.252c0.005-0.019,0.181,0.046,0.53,0.07c0.344,0.027,0.876,0.007,1.477-0.267
								c0.591-0.267,1.252-0.836,1.544-1.726c0.265-0.903,0.544-1.954,0.867-3.103c0.645-2.309,1.411-5.047,2.261-8.086
								c0.427-1.521,0.876-3.117,1.341-4.771c0.213-0.793,0.062-1.694-0.438-2.382c-0.248-0.343-0.574-0.634-0.951-0.84
								c-0.369-0.213-0.813-0.296-1.254-0.429c-0.839-0.237-1.769-0.068-2.45,0.441c-0.342,0.25-0.625,0.574-0.824,0.941
								c-0.206,0.359-0.287,0.783-0.413,1.199c-0.471,1.654-0.926,3.249-1.36,4.769c-0.871,3.034-1.656,5.767-2.318,8.071
								c-0.166,0.573-0.324,1.12-0.474,1.638c-0.151,0.521-0.31,0.995-0.298,1.461c0.008,0.935,0.457,1.68,0.933,2.12
								c0.48,0.459,0.989,0.617,1.319,0.722c0.155,0.05,0.28,0.09,0.381,0.122C121.817,400.23,121.86,400.247,121.858,400.252
								c-0.001,0.005-0.047-0.004-0.135-0.024c-0.103-0.025-0.231-0.057-0.389-0.096c-0.334-0.088-0.868-0.234-1.376-0.697
								c-0.504-0.443-0.99-1.211-1.014-2.196c-0.02-0.493,0.142-0.999,0.284-1.51c0.144-0.52,0.296-1.068,0.455-1.643
								c0.646-2.309,1.411-5.047,2.261-8.087c0.429-1.522,0.878-3.118,1.344-4.773c0.122-0.404,0.205-0.847,0.433-1.254
								c0.218-0.402,0.527-0.758,0.902-1.033c0.745-0.558,1.767-0.744,2.686-0.484c0.428,0.131,0.891,0.215,1.31,0.453
								c0.413,0.226,0.771,0.545,1.042,0.921c0.547,0.754,0.711,1.743,0.476,2.61c-0.471,1.654-0.925,3.25-1.358,4.771
								c-0.871,3.033-1.656,5.766-2.317,8.07c-0.336,1.149-0.624,2.185-0.908,3.099c-0.323,0.931-1.027,1.512-1.645,1.773
								c-0.631,0.268-1.177,0.27-1.526,0.224C122.029,400.334,121.858,400.252,121.858,400.252z"/>
						</g>
					</g>
				</g>
			</g>
		</g>
		<g>
			<g>
				<g>
					<path style="fill:#455A64;" d="M120.569,453.861c-0.406-10.056-0.419-21.115,5.284-29.408c3.23-4.697,8.091-8.082,13.29-10.418
						c5.199-2.336,10.771-3.704,16.307-5.061c-6.17,8.646-20.144,8.744-26.055,17.569c-1.753,2.617-2.575,5.729-3.37,8.777
						c-1.642,6.303-3.091,12.284-4.733,18.587"/>
				</g>
			</g>
		</g>
		<g>
			<g>
				<g>
					<g>
						<path style="fill:#455A64;" d="M76.52,418.563c0.001-0.005,0.047-0.003,0.137,0.006c0.106,0.012,0.237,0.027,0.399,0.045
							c0.349,0.051,0.871,0.09,1.53,0.218c1.326,0.209,3.23,0.63,5.514,1.379c2.285,0.744,4.924,1.895,7.664,3.509
							c1.36,0.824,2.744,1.761,4.109,2.825c1.356,1.075,2.689,2.278,3.958,3.605c1.274,1.323,2.4,2.725,3.401,4.136
							c0.516,0.695,0.963,1.419,1.42,2.114c0.423,0.717,0.859,1.406,1.227,2.111c1.536,2.785,2.601,5.457,3.319,7.749
							c0.716,2.294,1.117,4.202,1.308,5.531c0.119,0.661,0.148,1.183,0.194,1.533c0.015,0.162,0.028,0.294,0.038,0.4
							c0.007,0.09,0.008,0.137,0.004,0.137c-0.005,0-0.015-0.045-0.031-0.134c-0.017-0.105-0.039-0.235-0.065-0.396
							c-0.063-0.347-0.109-0.866-0.244-1.522c-0.223-1.319-0.651-3.214-1.387-5.489c-0.738-2.274-1.816-4.924-3.355-7.687
							c-0.369-0.699-0.805-1.383-1.228-2.094c-0.457-0.689-0.903-1.407-1.417-2.097c-0.997-1.4-2.116-2.79-3.381-4.103
							c-1.259-1.317-2.581-2.513-3.926-3.583c-1.354-1.059-2.726-1.994-4.073-2.819c-2.716-1.616-5.331-2.779-7.597-3.542
							c-2.264-0.769-4.155-1.217-5.471-1.458c-0.654-0.144-1.172-0.2-1.519-0.268c-0.161-0.029-0.29-0.053-0.395-0.072
							C76.565,418.579,76.52,418.568,76.52,418.563z"/>
					</g>
				</g>
			</g>
		</g>
		<g>
			<g>
				<g>
					<g>
						<path style="fill:#F5F5F5;" d="M86.73,421.783l-0.303,0.63c-0.712,1.482-2.491,2.105-3.973,1.393l-14.751-7.093
							c-1.482-0.712-2.105-2.491-1.393-3.973l0.303-0.63c0.712-1.482,2.491-2.105,3.973-1.393l14.751,7.093
							C86.819,418.523,87.442,420.302,86.73,421.783z"/>
					</g>
				</g>
			</g>
			<g>
				<g>
					<g>
						<g>
							<path style="fill:#263238;" d="M86.73,421.783c-0.018-0.008,0.076-0.171,0.159-0.51c0.086-0.335,0.157-0.861-0.01-1.501
								c-0.162-0.628-0.61-1.376-1.436-1.816c-0.844-0.416-1.832-0.87-2.908-1.385c-2.164-1.031-4.731-2.255-7.58-3.612
								c-1.425-0.682-2.921-1.397-4.471-2.138c-0.745-0.346-1.658-0.351-2.422,0.024c-0.381,0.186-0.723,0.457-0.99,0.793
								c-0.273,0.327-0.43,0.751-0.638,1.162c-0.377,0.786-0.37,1.731,0.015,2.49c0.188,0.38,0.459,0.714,0.786,0.973
								c0.319,0.264,0.722,0.417,1.111,0.612c1.548,0.747,3.042,1.469,4.466,2.156c2.84,1.378,5.398,2.619,7.555,3.665
								c0.536,0.262,1.048,0.511,1.532,0.748c0.487,0.238,0.928,0.476,1.388,0.544c0.923,0.152,1.734-0.163,2.248-0.556
								c0.535-0.394,0.777-0.869,0.937-1.176c0.075-0.144,0.136-0.261,0.186-0.355C86.701,421.821,86.726,421.781,86.73,421.783
								c0.004,0.002-0.012,0.046-0.047,0.129c-0.043,0.097-0.096,0.218-0.161,0.367c-0.144,0.314-0.379,0.815-0.922,1.236
								c-0.523,0.42-1.363,0.768-2.338,0.623c-0.489-0.065-0.96-0.311-1.44-0.538c-0.487-0.231-1.001-0.474-1.541-0.73
								c-2.164-1.031-4.731-2.255-7.58-3.612c-1.426-0.683-2.922-1.399-4.473-2.142c-0.377-0.19-0.799-0.347-1.162-0.641
								c-0.359-0.283-0.656-0.65-0.863-1.065c-0.422-0.829-0.431-1.868-0.017-2.729c0.203-0.4,0.364-0.841,0.67-1.213
								c0.293-0.368,0.669-0.666,1.086-0.869c0.837-0.41,1.839-0.402,2.653-0.022c1.549,0.747,3.044,1.468,4.468,2.154
								c2.839,1.377,5.398,2.619,7.554,3.665c1.074,0.528,2.046,0.989,2.898,1.425c0.862,0.477,1.313,1.27,1.465,1.924
								c0.156,0.667,0.064,1.206-0.04,1.542C86.84,421.629,86.73,421.783,86.73,421.783z"/>
						</g>
					</g>
				</g>
			</g>
		</g>
	</g>
</g>
<g id="Route">
	<g>
		<g>
			<g>
				<g>
					<g>
						<path style="fill:#263238;" d="M659.195,188.939c0-0.144,1.343-0.26,3-0.26c1.657,0,3,0.117,3,0.26c0,0.144-1.343,0.26-3,0.26
							C660.538,189.199,659.195,189.083,659.195,188.939z"/>
					</g>
				</g>
			</g>
			<g>
				<g>
					<g>
						<path style="fill:#263238;" d="M635.221,188.939c0-0.144,2.684-0.26,5.993-0.26c3.311,0,5.994,0.117,5.994,0.26
							c0,0.144-2.683,0.26-5.994,0.26C637.904,189.199,635.221,189.083,635.221,188.939z"/>
					</g>
				</g>
			</g>
			<g>
				<g>
					<g>
						<path style="fill:#263238;" d="M611.246,188.939c0-0.144,2.684-0.26,5.993-0.26c3.311,0,5.994,0.117,5.994,0.26
							c0,0.144-2.683,0.26-5.994,0.26C613.93,189.199,611.246,189.083,611.246,188.939z"/>
					</g>
				</g>
			</g>
			<g>
				<g>
					<g>
						<path style="fill:#263238;" d="M587.272,188.939c0-0.144,2.684-0.26,5.993-0.26c3.311,0,5.994,0.117,5.994,0.26
							c0,0.144-2.683,0.26-5.994,0.26C589.956,189.199,587.272,189.083,587.272,188.939z"/>
					</g>
				</g>
			</g>
			<g>
				<g>
					<g>
						<path style="fill:#263238;" d="M563.297,188.939c0-0.144,2.684-0.26,5.993-0.26c3.311,0,5.994,0.117,5.994,0.26
							c0,0.144-2.683,0.26-5.994,0.26C565.981,189.199,563.297,189.083,563.297,188.939z"/>
					</g>
				</g>
			</g>
			<g>
				<g>
					<g>
						<path style="fill:#263238;" d="M539.336,188.408c0.017-0.144,2.689,0.041,5.99,0.161c3.302,0.128,5.984,0.221,5.984,0.37
							c0.001,0.138-2.687,0.279-6.005,0.15C541.986,188.968,539.318,188.549,539.336,188.408z"/>
					</g>
				</g>
			</g>
			<g>
				<g>
					<g>
						<path style="fill:#263238;" d="M518.139,178.706c0.126-0.105,1.795,2.017,4.461,3.932c2.655,1.926,5.159,2.932,5.091,3.088
							c-0.025,0.062-0.678-0.118-1.684-0.549c-1.004-0.43-2.354-1.134-3.713-2.117C519.553,181.088,518.031,178.766,518.139,178.706
							z"/>
					</g>
				</g>
			</g>
			<g>
				<g>
					<g>
						<path style="fill:#263238;" d="M511.595,156.049c0.127,0.004,0.3,2.668,0.702,5.943c0.392,3.274,0.964,5.888,0.823,5.925
							c-0.136,0.041-0.943-2.552-1.34-5.861C511.374,158.757,511.434,156.043,511.595,156.049z"/>
					</g>
				</g>
			</g>
			<g>
				<g>
					<g>
						<path style="fill:#263238;" d="M502.857,134.219c0.095-0.09,1.997,1.856,3.753,4.701c1.77,2.838,2.635,5.424,2.509,5.467
							c-0.143,0.059-1.21-2.401-2.952-5.193C504.44,136.394,502.738,134.321,502.857,134.219z"/>
					</g>
				</g>
			</g>
			<g>
				<g>
					<g>
						<path style="fill:#263238;" d="M483.177,121.046c0.035-0.129,2.67,0.541,5.667,2.013c3.003,1.46,5.157,3.116,5.078,3.223
							c-0.086,0.128-2.345-1.315-5.306-2.755C485.661,122.075,483.13,121.193,483.177,121.046z"/>
					</g>
				</g>
			</g>
			<g>
				<g>
					<g>
						<path style="fill:#263238;" d="M459.461,120.131c-0.035-0.132,2.581-0.868,5.911-1.111c1.659-0.129,3.176-0.104,4.255-0.052
							c1.084,0.051,1.757,0.104,1.757,0.176c0,0.072-0.669,0.149-1.755,0.192c-1.09,0.042-2.574,0.075-4.218,0.203
							C462.127,119.778,459.493,120.279,459.461,120.131z"/>
					</g>
				</g>
			</g>
			<g>
				<g>
					<g>
						<path style="fill:#263238;" d="M438.632,131.339c-0.099-0.088,1.691-2.14,4.384-4.118c2.684-1.991,5.163-3.11,5.219-2.991
							c0.073,0.137-2.266,1.448-4.91,3.41C440.673,129.587,438.742,131.448,438.632,131.339z"/>
					</g>
				</g>
			</g>
			<g>
				<g>
					<g>
						<path style="fill:#263238;" d="M428.16,152.428c-0.131-0.007,0.012-2.734,0.995-5.935c0.967-3.206,2.362-5.552,2.474-5.486
							c0.141,0.07-1.026,2.487-1.976,5.638C428.687,149.789,428.316,152.447,428.16,152.428z"/>
					</g>
				</g>
			</g>
			<g>
				<g>
					<g>
						<path style="fill:#263238;" d="M427.615,176.391c-0.144-0.002-0.222-2.687-0.174-5.996c0.048-3.31,0.203-5.992,0.347-5.99
							c0.144,0.002,0.222,2.687,0.174,5.997C427.914,173.711,427.758,176.393,427.615,176.391z"/>
					</g>
				</g>
			</g>
			<g>
				<g>
					<g>
						<path style="fill:#263238;" d="M427.269,200.363c-0.144-0.002-0.222-2.687-0.174-5.997c0.048-3.311,0.203-5.992,0.347-5.99
							c0.144,0.002,0.222,2.687,0.174,5.997C427.568,197.683,427.412,200.365,427.269,200.363z"/>
					</g>
				</g>
			</g>
			<g>
				<g>
					<g>
						<path style="fill:#263238;" d="M426.922,224.334c-0.144-0.002-0.222-2.687-0.174-5.996c0.048-3.311,0.203-5.992,0.347-5.99
							c0.144,0.002,0.222,2.687,0.174,5.997C427.222,221.655,427.066,224.337,426.922,224.334z"/>
					</g>
				</g>
			</g>
			<g>
				<g>
					<g>
						<path style="fill:#263238;" d="M420.309,246.928c-0.128-0.091,1.386-2.305,2.817-5.266c1.447-2.955,2.238-5.517,2.388-5.473
							c0.128,0.028-0.449,2.695-1.919,5.701C422.138,244.901,420.41,247.01,420.309,246.928z"/>
					</g>
				</g>
			</g>
			<g>
				<g>
					<g>
						<path style="fill:#263238;" d="M401.51,261.243c-0.054-0.145,2.435-1.141,5.317-2.73c2.891-1.576,5.06-3.149,5.154-3.026
							c0.086,0.101-1.97,1.883-4.903,3.482C404.153,260.582,401.55,261.369,401.51,261.243z"/>
					</g>
				</g>
			</g>
			<g>
				<g>
					<g>
						<path style="fill:#263238;" d="M377.866,264.023c0.003-0.135,2.682-0.246,5.993-0.249c0.811,0.005,1.584,0.009,2.332,0.013
							c0.652-0.009,1.282-0.017,1.896-0.025c1.081,0.001,1.756,0.038,1.762,0.109c0.006,0.072-0.659,0.165-1.745,0.259
							c-0.618,0.044-1.253,0.09-1.911,0.137c-0.719,0.028-1.506,0.025-2.334,0.028C380.551,264.298,377.863,264.176,377.866,264.023
							z"/>
					</g>
				</g>
			</g>
			<g>
				<g>
					<g>
						<path style="fill:#263238;" d="M355.224,257.115c0.085-0.13,2.359,1.29,5.348,2.667c2.983,1.392,5.532,2.222,5.488,2.37
							c-0.032,0.129-2.68-0.486-5.707-1.898C357.321,258.857,355.146,257.222,355.224,257.115z"/>
					</g>
				</g>
			</g>
			<g>
				<g>
					<g>
						<path style="fill:#263238;" d="M340.274,238.872c0.146-0.055,1.143,2.434,2.815,5.266c1.659,2.841,3.333,4.936,3.212,5.036
							c-0.095,0.089-1.974-1.884-3.661-4.772C340.94,241.522,340.148,238.911,340.274,238.872z"/>
					</g>
				</g>
			</g>
			<g>
				<g>
					<g>
						<path style="fill:#263238;" d="M337.998,215.171c0.144,0,0.26,2.684,0.26,5.993c0,3.312-0.119,5.993-0.254,5.994
							c-0.152,0.001-0.267-2.684-0.267-5.994C337.738,217.855,337.854,215.171,337.998,215.171z"/>
					</g>
				</g>
			</g>
			<g>
				<g>
					<g>
						<path style="fill:#263238;" d="M337.998,191.197c0.144,0,0.26,2.684,0.26,5.993c0,3.311-0.117,5.994-0.26,5.994
							c-0.144,0-0.26-2.683-0.26-5.994C337.738,193.88,337.854,191.197,337.998,191.197z"/>
					</g>
				</g>
			</g>
			<g>
				<g>
					<g>
						<path style="fill:#263238;" d="M337.998,167.222c0.144,0,0.26,2.684,0.26,5.993c0,3.311-0.117,5.994-0.26,5.994
							c-0.144,0-0.26-2.683-0.26-5.994C337.738,169.906,337.854,167.222,337.998,167.222z"/>
					</g>
				</g>
			</g>
			<g>
				<g>
					<g>
						<path style="fill:#263238;" d="M337.998,143.248c0.144,0,0.26,2.684,0.26,5.993c0,3.311-0.117,5.994-0.26,5.994
							c-0.144,0-0.26-2.683-0.26-5.994C337.738,145.932,337.854,143.248,337.998,143.248z"/>
					</g>
				</g>
			</g>
			<g>
				<g>
					<g>
						<path style="fill:#263238;" d="M337.947,119.274c0.072-0.004,0.155,0.664,0.232,1.754c0.054,1.086,0.078,2.583,0.08,4.239
							c0,3.311-0.117,5.994-0.26,5.994c-0.144,0-0.26-2.683-0.26-5.994c-0.002-1.655,0.033-3.154,0.073-4.237
							C337.828,119.951,337.875,119.278,337.947,119.274z"/>
					</g>
				</g>
			</g>
			<g>
				<g>
					<g>
						<path style="fill:#263238;" d="M328.902,97.55c0.093-0.092,2.032,1.821,3.814,4.65c1.795,2.823,2.677,5.404,2.552,5.447
							c-0.144,0.06-1.226-2.393-2.992-5.169C330.524,99.696,328.784,97.654,328.902,97.55z"/>
					</g>
				</g>
			</g>
			<g>
				<g>
					<g>
						<path style="fill:#263238;" d="M308.764,85.163c0.028-0.13,2.693,0.41,5.758,1.734c3.073,1.31,5.294,2.879,5.219,2.989
							c-0.081,0.132-2.396-1.219-5.424-2.51C311.295,86.071,308.724,85.313,308.764,85.163z"/>
					</g>
				</g>
			</g>
			<g>
				<g>
					<g>
						<path style="fill:#263238;" d="M284.968,84.385c-0.032-0.133,2.602-0.804,5.935-0.967c1.667-0.09,3.17-0.022,4.252,0.016
							c1.085,0.047,1.756,0.112,1.756,0.184c0,0.072-0.671,0.137-1.756,0.184c-1.087,0.055-2.584,0.047-4.225,0.135
							C287.642,84.098,284.997,84.533,284.968,84.385z"/>
					</g>
				</g>
			</g>
			<g>
				<g>
					<g>
						<path style="fill:#263238;" d="M263.854,95.053c-0.097-0.091,1.749-2.092,4.493-3.999c2.736-1.919,5.243-2.975,5.296-2.854
							c0.069,0.139-2.303,1.389-4.997,3.281C265.942,93.358,263.961,95.165,263.854,95.053z"/>
					</g>
				</g>
			</g>
			<g>
				<g>
					<g>
						<path style="fill:#263238;" d="M252.76,115.82c-0.131-0.011,0.098-2.731,1.178-5.897c1.066-3.172,2.528-5.474,2.638-5.405
							c0.139,0.075-1.099,2.454-2.145,5.572C253.369,113.201,252.915,115.844,252.76,115.82z"/>
					</g>
				</g>
			</g>
			<g>
				<g>
					<g>
						<path style="fill:#263238;" d="M252.349,139.775c-0.144,0-0.26-2.684-0.26-5.993c0-3.311,0.117-5.994,0.26-5.994
							s0.26,2.683,0.26,5.994C252.609,137.091,252.493,139.775,252.349,139.775z"/>
					</g>
				</g>
			</g>
			<g>
				<g>
					<g>
						<path style="fill:#263238;" d="M252.349,163.749c-0.144,0-0.26-2.684-0.26-5.993c0-3.311,0.117-5.994,0.26-5.994
							s0.26,2.683,0.26,5.994C252.609,161.066,252.493,163.749,252.349,163.749z"/>
					</g>
				</g>
			</g>
			<g>
				<g>
					<g>
						<path style="fill:#263238;" d="M251.739,187.687c-0.151-0.029,0.305-2.672,0.345-5.96c0.009-3.303,0.119-5.992,0.265-5.991
							c0.142,0.002,0.265,2.679,0.256,5.999C252.563,185.081,251.869,187.721,251.739,187.687z"/>
					</g>
				</g>
			</g>
			<g>
				<g>
					<g>
						<path style="fill:#263238;" d="M239.984,208.096c-0.104-0.117,1.863-1.94,3.945-4.486c2.096-2.537,3.486-4.829,3.621-4.751
							c0.118,0.059-1.089,2.503-3.218,5.081C242.215,206.528,240.066,208.199,239.984,208.096z"/>
					</g>
				</g>
			</g>
			<g>
				<g>
					<g>
						<path style="fill:#263238;" d="M218.579,218.173c-0.024-0.153,2.614-0.634,5.759-1.605c3.151-0.956,5.602-2.042,5.668-1.902
							c0.062,0.117-2.319,1.43-5.515,2.4C221.3,218.05,218.594,218.305,218.579,218.173z"/>
					</g>
				</g>
			</g>
			<g>
				<g>
					<g>
						<path style="fill:#263238;" d="M194.634,218.975c-0.002-0.144,2.68-0.298,5.989-0.344c3.311-0.046,5.995,0.033,5.997,0.176
							s-2.679,0.298-5.99,0.344C197.321,219.197,194.636,219.118,194.634,218.975z"/>
					</g>
				</g>
			</g>
			<g>
				<g>
					<g>
						<path style="fill:#263238;" d="M170.662,219.31c-0.002-0.144,2.68-0.298,5.989-0.344c3.311-0.046,5.995,0.033,5.997,0.176
							c0.002,0.144-2.679,0.298-5.99,0.344C173.349,219.533,170.664,219.454,170.662,219.31z"/>
					</g>
				</g>
			</g>
			<g>
				<g>
					<g>
						<path style="fill:#263238;" d="M146.69,219.646c-0.002-0.144,2.68-0.298,5.989-0.344c3.311-0.046,5.995,0.033,5.997,0.176
							c0.002,0.144-2.679,0.298-5.99,0.344C149.377,219.869,146.692,219.79,146.69,219.646z"/>
					</g>
				</g>
			</g>
			<g>
				<g>
					<g>
						<path style="fill:#263238;" d="M122.718,219.982c-0.002-0.144,2.68-0.298,5.989-0.344c3.311-0.046,5.995,0.033,5.997,0.176
							s-2.679,0.298-5.99,0.344C125.405,220.205,122.72,220.126,122.718,219.982z"/>
					</g>
				</g>
			</g>
			<g>
				<g>
					<g>
						<path style="fill:#263238;" d="M104.661,220.235c-0.002-0.144,1.339-0.279,2.996-0.302c1.657-0.023,3.002,0.075,3.004,0.218
							s-1.339,0.279-2.996,0.302C106.007,220.476,104.663,220.379,104.661,220.235z"/>
					</g>
				</g>
			</g>
		</g>
		<g>
			<g>
				<g>
					<path style="fill:#FF725E;" d="M304.103,68.695c0-4.389-3.967-7.852-8.511-6.999c-2.858,0.537-5.136,2.871-5.637,5.736
						c-0.313,1.791,0.057,3.475,0.874,4.865h-0.004l0.02,0.027c0.273,0.461,0.616,0.79,0.962,1.274l4.139,5.483
						c0.515,0.682,1.54,0.682,2.055,0l4.071-5.393c0,0,0.76-0.906,1.035-1.372l0.015-0.019h-0.003
						C303.74,71.238,304.103,70.01,304.103,68.695z M296.973,71.799c-1.733,0-3.138-1.405-3.138-3.138
						c0-1.733,1.405-3.138,3.138-3.138c1.733,0,3.137,1.405,3.137,3.138C300.111,70.394,298.706,71.799,296.973,71.799z"/>
				</g>
			</g>
		</g>
		<g>
			<g>
				<g>
					<path style="fill:#FF725E;" d="M574.416,174.247c0-4.389-3.967-7.852-8.511-6.999c-2.858,0.536-5.136,2.871-5.637,5.736
						c-0.313,1.791,0.057,3.475,0.873,4.865h-0.004l0.02,0.027c0.273,0.461,0.616,0.79,0.962,1.274l4.139,5.483
						c0.515,0.682,1.54,0.682,2.055,0l4.07-5.393c0,0,0.76-0.906,1.035-1.372l0.015-0.02h-0.003
						C574.054,176.79,574.416,175.562,574.416,174.247z M567.287,177.351c-1.733,0-3.138-1.405-3.138-3.138s1.405-3.137,3.138-3.137
						c1.733,0,3.137,1.405,3.137,3.137S569.02,177.351,567.287,177.351z"/>
				</g>
			</g>
		</g>
		<g>
			<g>
				<g>
					<path style="fill:#455A64;" d="M474.235,103.646c0-4.389-3.967-7.852-8.511-6.999c-2.858,0.536-5.136,2.871-5.637,5.736
						c-0.313,1.791,0.057,3.475,0.873,4.865h-0.004l0.02,0.027c0.273,0.461,0.616,0.79,0.962,1.274l4.139,5.483
						c0.515,0.682,1.54,0.682,2.055,0l4.07-5.393c0,0,0.76-0.906,1.035-1.372l0.015-0.02h-0.003
						C473.872,106.189,474.235,104.961,474.235,103.646z M467.105,106.75c-1.733,0-3.138-1.405-3.138-3.138
						c0-1.733,1.405-3.137,3.138-3.137c1.733,0,3.138,1.405,3.138,3.137C470.243,105.345,468.838,106.75,467.105,106.75z"/>
				</g>
			</g>
		</g>
		<g>
			<g>
				<g>
					<path style="fill:#455A64;" d="M180.378,198.553c0-5.427-4.904-9.709-10.523-8.654c-3.534,0.663-6.35,3.549-6.969,7.092
						c-0.387,2.214,0.07,4.297,1.08,6.016h-0.005l0.025,0.033c0.338,0.57,0.761,0.977,1.189,1.575l5.118,6.779
						c0.637,0.844,1.904,0.843,2.541,0l5.033-6.668c0,0,0.939-1.12,1.28-1.696l0.018-0.024h-0.004
						C179.93,201.698,180.378,200.18,180.378,198.553z M171.564,202.391c-2.142,0-3.879-1.737-3.879-3.879
						c0-2.142,1.737-3.879,3.879-3.879c2.143,0,3.879,1.737,3.879,3.879C175.443,200.654,173.706,202.391,171.564,202.391z"/>
				</g>
			</g>
		</g>
	</g>
</g>
<g id="Character">
	<g>
		<g>
			<g>
				<g>
					<path style="fill:#455A64;" d="M340,171.114c-5.434-0.46-10.893,0.989-15.833,3.298c-5.226,2.441-10.164,6.05-12.767,11.197
						c-2.603,5.147-2.314,12.025,1.789,16.078c-7.88,2.093-13.806,9.1-16.286,16.867c-2.48,7.767-1.953,16.196-0.378,24.197
						c0.743,3.776,2.08,7.975,5.561,9.615c2.246,1.057,4.988,0.808,7.108,2.098c2.059,1.254,3.056,3.648,4.385,5.66
						c2.532,3.833,6.681,6.56,11.204,7.365c4.523,0.805,9.357-0.323,13.057-3.047l16.154-85.883
						C350.829,174.117,345.433,171.574,340,171.114z"/>
				</g>
			</g>
			<g>
				<g>
					<g>
						<path style="fill:#263238;" d="M350.862,180.355c0.026,0.024-0.371,0.502-1.114,1.343c-0.744,0.841-1.833,2.046-3.214,3.503
							c-2.768,2.894-6.703,6.884-11.846,10.292c-5.146,3.41-10.584,5.201-14.598,5.621c-2.007,0.229-3.648,0.207-4.769,0.097
							c-0.562-0.031-0.993-0.122-1.286-0.16c-0.292-0.047-0.444-0.08-0.442-0.098c0.005-0.045,0.624,0.014,1.74,0.056
							c1.115,0.046,2.736,0.012,4.71-0.26c3.948-0.508,9.275-2.323,14.359-5.691c5.084-3.368,9.038-7.291,11.868-10.114
							c1.36-1.382,2.483-2.524,3.33-3.385C350.388,180.762,350.835,180.331,350.862,180.355z"/>
					</g>
				</g>
			</g>
			<g>
				<g>
					<g>
						<path style="fill:#263238;" d="M319.357,206.093c-0.057,0.024-0.318-0.399-0.532-1.168c-0.216-0.765-0.339-1.885-0.15-3.096
							c0.194-1.21,0.657-2.238,1.098-2.899c0.441-0.665,0.82-0.987,0.866-0.946c0.133,0.09-1.107,1.62-1.45,3.927
							C318.804,204.209,319.511,206.048,319.357,206.093z"/>
					</g>
				</g>
			</g>
			<g>
				<g>
					<g>
						<path style="fill:#263238;" d="M324.797,209.278c0.017-0.006,0.094,0.155,0.225,0.47c0.126,0.316,0.329,0.777,0.539,1.388
							c0.445,1.215,1.012,3.004,1.525,5.264c1.027,4.483,1.718,11.056-0.032,17.98c-1.76,6.928-5.765,12.327-9.311,15.293
							c-1.769,1.508-3.372,2.512-4.528,3.098c-0.564,0.32-1.041,0.492-1.348,0.637c-0.313,0.134-0.48,0.197-0.488,0.181
							c-0.02-0.043,0.624-0.354,1.738-0.995c1.116-0.635,2.669-1.675,4.383-3.197c3.436-2.997,7.318-8.334,9.049-15.145
							c1.723-6.813,1.105-13.303,0.177-17.774c-0.463-2.252-0.972-4.047-1.357-5.277
							C324.985,209.97,324.758,209.293,324.797,209.278z"/>
					</g>
				</g>
			</g>
			<g>
				<g>
					<g>
						<path style="fill:#263238;" d="M327.581,222.807c-0.011,0.034-0.447-0.062-1.225-0.266c-0.776-0.209-1.904-0.493-3.302-0.818
							c-2.794-0.655-6.696-1.391-11.055-1.786c-4.361-0.387-8.332-0.357-11.198-0.21c-1.433,0.072-2.594,0.15-3.394,0.218
							c-0.802,0.062-1.248,0.079-1.253,0.043c-0.005-0.036,0.433-0.121,1.23-0.245c0.796-0.13,1.956-0.265,3.393-0.384
							c2.874-0.242,6.875-0.331,11.268,0.059c4.391,0.398,8.312,1.197,11.097,1.947c1.393,0.373,2.511,0.712,3.271,0.982
							C327.177,222.611,327.592,222.773,327.581,222.807z"/>
					</g>
				</g>
			</g>
			<g style="opacity:0.3;">
				<g>
					<g>
						<path d="M314.292,201.036L314.292,201.036c5.44,3.507,12.774,3.1,18.539,0.159c5.765-2.941,9.996-8.423,12.234-14.496
							C337.528,195.361,326.353,201.672,314.292,201.036z"/>
					</g>
				</g>
			</g>
			<g style="opacity:0.3;">
				<g>
					<g>
						<path d="M311.378,253.588c4.407-0.214,8.948-2.764,11.445-6.4c2.498-3.637,3.65-8.041,4.191-12.42
							c-1.57,3.789-3.18,7.402-5.482,10.796c-1.147,1.69-2.808,2.947-4.313,4.328C315.714,251.273,313.29,252.623,311.378,253.588"
							/>
					</g>
				</g>
			</g>
			<g>
				<g>
					<g>
						<path style="fill:#263238;" d="M317.034,220.235c0.072-0.022,0.392,0.97,0.707,2.6c0.165,0.82,0.357,1.76,0.653,2.829
							c0.124,0.543,0.235,1.177,0.018,1.834c-0.196,0.613-0.787,1.286-1.615,1.229c-0.802-0.077-1.324-0.704-1.541-1.326
							c-0.208-0.654-0.113-1.287,0.014-1.834c0.291-1.086,0.6-2.004,0.846-2.803C316.619,221.183,316.965,220.215,317.034,220.235
							c0.069,0.02-0.151,1.024-0.564,2.631c-0.223,0.855-0.468,1.795-0.732,2.806c-0.11,0.512-0.165,1.072,0.001,1.564
							c0.164,0.478,0.601,0.94,1.094,0.972c0.496,0.048,0.932-0.391,1.097-0.877c0.172-0.487,0.105-1.047-0.004-1.562
							c-0.265-1.052-0.432-2.056-0.547-2.87C317.156,221.254,316.968,220.255,317.034,220.235z"/>
					</g>
				</g>
			</g>
			<g>
				<g>
					<g>
						<path style="fill:#263238;" d="M340.67,188.094c-0.042,0.063-1.249-0.679-3.201-1.867c-1.955-1.18-4.663-2.807-7.826-4.242
							c-3.162-1.438-6.197-2.312-8.436-2.7c-2.239-0.402-3.659-0.414-3.657-0.504c0-0.033,0.355-0.067,0.998-0.067
							c0.643-0.001,1.575,0.051,2.717,0.208c2.284,0.298,5.392,1.132,8.593,2.589c3.201,1.453,5.898,3.143,7.808,4.405
							c0.955,0.634,1.714,1.166,2.231,1.545S340.69,188.065,340.67,188.094z"/>
					</g>
				</g>
			</g>
			<g>
				<g>
					<g>
						<path style="fill:#263238;" d="M339.167,187.424c0.06,0,0.117,0.337-0.165,0.77c-0.259,0.414-0.935,0.899-1.77,0.732
							l-0.026-0.005l-0.327-0.06l0.154-0.308c0.344-0.69,0.951-1.09,1.405-1.233c0.463-0.15,0.765-0.09,0.769-0.026
							c0.009,0.077-0.259,0.151-0.62,0.361c-0.359,0.205-0.815,0.578-1.086,1.128l-0.174-0.368l0.017,0.003
							c0.555,0.118,1.099-0.172,1.371-0.454C339.006,187.68,339.088,187.409,339.167,187.424z"/>
					</g>
				</g>
			</g>
		</g>
		<g>
			<g>
				<g>
					<g>
						<g>
							<g>
								<g>
									<g>
										<g>
											<g>
												<g>
													<path style="fill:#FFBE9D;" d="M423.644,185.501c0,0-4.021-5.26-3.989-7.392l1.66-12.382c0,0,0.713-1.249,1.84,0.824
														c1.033,1.9,0.439,4.842,0.439,4.842l0.698,2.907l1.505-2.196l1.7-8.271c0,0,1.088-5.977,2.014-5.354
														c0.926,0.624,1.195,2.363,0.726,4.942c-0.469,2.58-1.065,5.852-1.065,5.852s-0.12,1.018,0.841-0.692
														c0.961-1.71,2.015-8.929,2.386-9.901c0.372-0.972,0.515-3.546,1.985-3.409c1.47,0.137,0.612,3.426,0.612,3.426
														l-1.42,10.662c0,0,1.383-4.287,1.646-5.02c0.263-0.732,0.672-3.074,1.164-4.349c0.492-1.275,1.243-1.939,1.896-1.86
														c1.177,0.142,1.152,1.22,1.152,1.22l-2.186,9.116c0,0-1.211,4.157-1.129,4.421c0.082,0.264,1.615-1.733,1.615-1.733
														l1.173-2.955c0,0,0.973-4.195,2.1-4.315c1.127-0.12,1.167,0.732,1.167,0.732l-1.849,7.659l-3.399,8.677l-3.21,6.566
														c0,0-4.479-0.697-4.651-0.468C428.894,187.28,423.644,185.501,423.644,185.501z"/>
												</g>
											</g>
										</g>
									</g>
								</g>
							</g>
						</g>
					</g>
					<g>
						<g>
							<g>
								<g>
									<g>
										<path style="fill:#EB996E;" d="M431.583,181.812c-0.081,0.029-0.365-0.746-0.923-1.926
											c-0.559-1.143-1.504-2.813-3.319-3.539c-0.796-0.326-1.645-0.391-2.351-0.181l-0.26,0.077l-0.065-0.288
											c-0.288-1.268-0.683-2.439-0.87-3.24c-0.212-0.809-0.268-1.314-0.201-1.323c0.049-0.005,0.203,0.447,0.498,1.231
											c0.276,0.802,0.716,1.849,1.076,3.268l-0.325-0.21c0.82-0.271,1.811-0.203,2.701,0.163
											c0.991,0.396,1.78,1.087,2.322,1.809c0.549,0.722,0.895,1.457,1.145,2.078
											C431.492,180.983,431.643,181.792,431.583,181.812z"/>
									</g>
								</g>
							</g>
						</g>
					</g>
				</g>
				<g>
					<g>
						<path style="fill:#FF725E;" d="M388.987,179.507l22.156,33.114l9.961-28.862l13.613,3.356c0,0-5.552,38.798-7.677,42.65
							c-2.121,3.846-8.768,9.405-16.948,8.289c-8.179-1.115-24.624-23.195-24.624-23.195L388.987,179.507z"/>
					</g>
				</g>
				<g>
					<g>
						<g>
							<path style="fill:#263238;" d="M413.882,225.912c-0.172-0.013,0.463-3.287-0.415-7.202c-0.83-3.927-2.77-6.64-2.619-6.723
								c0.048-0.035,0.596,0.588,1.267,1.745c0.672,1.153,1.422,2.866,1.861,4.867c0.433,2.002,0.464,3.872,0.333,5.199
								C414.179,225.129,413.94,225.924,413.882,225.912z"/>
						</g>
					</g>
				</g>
				<g style="opacity:0.3;">
					<g>
						<g>
							<path d="M390.669,221.898c1.487-0.672,2.401-2.251,2.7-3.855c0.299-1.604,0.077-3.254-0.145-4.87
								c-0.898-6.529-2.145-13.336-3.043-19.865l0.35,27.911"/>
						</g>
					</g>
				</g>
				<g style="opacity:0.3;">
					<g>
						<g>
							<path d="M414.112,224.298c0.893-0.104,1.647-0.783,2.027-1.597c0.38-0.814,0.433-1.746,0.355-2.641
								c-0.289-3.359-2.44-6.498-5.468-7.98C413.08,215.77,414.43,220.087,414.112,224.298"/>
						</g>
					</g>
				</g>
			</g>
			<g>
				<g>
					<g>
						<g>
							<g>
								<g>
									<g>
										<g>
											<g>
												<g>
													<path style="fill:#FF725E;" d="M414.461,395.228l12.655,28.827l36.202-15.246c-1.668-3.362-24.772-1.651-24.772-1.651
														l-8.024-19.571L414.461,395.228z"/>
												</g>
											</g>
										</g>
									</g>
								</g>
							</g>
							<g style="opacity:0.6;">
								<g>
									<g>
										<g>
											<g>
												<g>
													<g>
														<path style="fill:#FFFFFF;" d="M428.142,409.552c-0.62,0.486-0.772,1.476-0.312,2.115
															c0.461,0.638,1.468,0.801,2.096,0.326c0.628-0.475,0.848-1.658,0.318-2.241c-0.529-0.583-1.723-0.709-2.218-0.097"/>
													</g>
												</g>
											</g>
										</g>
									</g>
								</g>
							</g>
							<g style="opacity:0.6;">
								<g>
									<g>
										<g>
											<g>
												<g>
													<path style="fill:#FFFFFF;" d="M427.116,424.055l-1.136-2.97l35.134-13.507c0,0,1.907,0.021,2.203,1.231
														L427.116,424.055z"/>
												</g>
											</g>
										</g>
									</g>
								</g>
							</g>
							<g>
								<g>
									<g>
										<g>
											<g>
												<g>
													<g>
														<path style="fill:#263238;" d="M439.228,407.254c0.069,0.179-0.781,0.631-1.412,1.565
															c-0.655,0.917-0.781,1.87-0.973,1.869c-0.177,0.035-0.359-1.131,0.424-2.248
															C438.041,407.316,439.198,407.076,439.228,407.254z"/>
													</g>
												</g>
											</g>
										</g>
									</g>
								</g>
							</g>
							<g>
								<g>
									<g>
										<g>
											<g>
												<g>
													<g>
														<path style="fill:#263238;" d="M444.664,406.898c0.113,0.154-0.526,0.776-0.812,1.776
															c-0.315,0.99-0.126,1.861-0.305,1.928c-0.155,0.098-0.713-0.884-0.334-2.12
															C443.58,407.243,444.589,406.732,444.664,406.898z"/>
													</g>
												</g>
											</g>
										</g>
									</g>
								</g>
							</g>
							<g>
								<g>
									<g>
										<g>
											<g>
												<g>
													<g>
														<path style="fill:#263238;" d="M448.584,410.387c-0.145,0.106-0.763-0.673-0.717-1.83
															c0.038-1.158,0.711-1.89,0.848-1.775c0.161,0.103-0.157,0.848-0.18,1.799
															C448.489,409.53,448.752,410.296,448.584,410.387z"/>
													</g>
												</g>
											</g>
										</g>
									</g>
								</g>
							</g>
							<g>
								<g>
									<g>
										<g>
											<g>
												<g>
													<g>
														<path style="fill:#263238;" d="M436.906,402.532c-0.006,0.192-0.92,0.29-1.891,0.778
															c-0.981,0.469-1.617,1.131-1.773,1.019c-0.156-0.084,0.327-1.057,1.479-1.617
															C435.868,402.145,436.935,402.357,436.906,402.532z"/>
													</g>
												</g>
											</g>
										</g>
									</g>
								</g>
							</g>
						</g>
					</g>
				</g>
			</g>
			<g>
				<g>
					<g>
						<g>
							<g>
								<g>
									<path style="fill:#FF725E;" d="M287.6,423.499l-1.553-15.385l12.848-16.176l-15.744-10.122l-0.416,0.627l-8.021,12.076
										l-10.393,8.207l16.499,27.101l16.072-1.072C296.889,428.754,295.467,424.973,287.6,423.499z"/>
								</g>
							</g>
							<g style="opacity:0.6;">
								<g>
									<g>
										<g>
											<g>
												<g>
													<polygon style="fill:#FFFFFF;" points="264.319,402.724 280.818,429.826 296.889,428.754 294.917,426.461 
														281.801,426.615 266.53,400.979 													"/>
												</g>
											</g>
										</g>
									</g>
								</g>
							</g>
						</g>
						<g>
							<g>
								<g>
									<g>
										<g>
											<g>
												<g>
													<path style="fill:#263238;" d="M287.023,416.441c-0.108,0.172-1.07-0.292-2.311-0.173
														c-1.244,0.083-2.118,0.696-2.252,0.544c-0.159-0.112,0.682-1.134,2.195-1.25
														C286.167,415.432,287.162,416.306,287.023,416.441z"/>
												</g>
											</g>
										</g>
									</g>
								</g>
							</g>
						</g>
						<g>
							<g>
								<g>
									<g>
										<g>
											<g>
												<g>
													<path style="fill:#263238;" d="M286.507,412.634c-0.153,0.124-0.932-0.775-2.231-0.939
														c-1.297-0.177-2.282,0.491-2.398,0.331c-0.06-0.069,0.107-0.35,0.542-0.626c0.426-0.275,1.145-0.512,1.948-0.406
														c0.802,0.106,1.436,0.52,1.777,0.896C286.494,412.268,286.583,412.583,286.507,412.634z"/>
												</g>
											</g>
										</g>
									</g>
								</g>
							</g>
						</g>
						<g>
							<g>
								<g>
									<g>
										<g>
											<g>
												<g>
													<path style="fill:#263238;" d="M286.282,407.715c-0.17,0.1-0.78-0.791-1.926-1.102
														c-1.142-0.326-2.126,0.12-2.219-0.054c-0.049-0.078,0.14-0.315,0.574-0.512c0.426-0.196,1.115-0.317,1.836-0.116
														c0.72,0.201,1.247,0.661,1.51,1.049C286.326,407.373,286.363,407.673,286.282,407.715z"/>
												</g>
											</g>
										</g>
									</g>
								</g>
							</g>
						</g>
						<g>
							<g>
								<g>
									<g>
										<g>
											<g>
												<g>
													<path style="fill:#263238;" d="M290.328,403.617c-0.187,0.08-0.7-0.803-1.741-1.381
														c-1.025-0.608-2.046-0.607-2.071-0.808c-0.067-0.182,1.16-0.539,2.424,0.195
														C290.211,402.345,290.519,403.583,290.328,403.617z"/>
												</g>
											</g>
										</g>
									</g>
								</g>
							</g>
						</g>
						<g>
							<g>
								<g>
									<g>
										<g>
											<g>
												<g>
													<path style="fill:#263238;" d="M292.202,400.18c-0.078,0.059-0.651-0.552-1.515-1.586
														c-0.49-0.605-0.983-1.215-1.489-1.84c-0.258-0.361-0.604-0.666-0.833-1.247c-0.104-0.294-0.122-0.649,0.032-0.982
														c0.141-0.352,0.58-0.598,0.936-0.572c0.708,0.055,1.124,0.389,1.553,0.678c0.416,0.312,0.765,0.674,1.051,1.049
														c0.571,0.757,0.87,1.57,0.999,2.261c0.252,1.41-0.159,2.25-0.217,2.217c-0.126-0.018,0.082-0.857-0.271-2.104
														c-0.177-0.615-0.493-1.323-1.025-1.971c-0.266-0.321-0.581-0.628-0.946-0.891c-0.356-0.25-0.818-0.522-1.149-0.53
														c-0.16,0.005-0.233,0.051-0.294,0.166c-0.059,0.123-0.068,0.297-0.012,0.457c0.11,0.337,0.446,0.713,0.696,1.076
														c0.464,0.656,0.918,1.296,1.367,1.931C291.848,399.404,292.28,400.121,292.202,400.18z"/>
												</g>
											</g>
										</g>
									</g>
								</g>
							</g>
						</g>
						<g>
							<g>
								<g>
									<g>
										<g>
											<g>
												<g>
													<path style="fill:#263238;" d="M292.81,400.618c-0.076,0-0.072-0.848,0.734-1.872c0.785-0.97,2.576-2.071,4.706-1.179
														c0.156,0.116,0.287,0.337,0.288,0.557c0.007,0.223-0.078,0.394-0.159,0.522c-0.174,0.262-0.376,0.4-0.543,0.544
														c-0.355,0.286-0.725,0.527-1.092,0.725c-0.735,0.398-1.459,0.622-2.074,0.732c-1.24,0.218-2.009,0.027-1.999-0.052
														c0.002-0.114,0.758-0.109,1.884-0.435c0.561-0.163,1.211-0.417,1.867-0.812c0.327-0.196,0.656-0.426,0.973-0.693
														c0.16-0.14,0.322-0.27,0.391-0.39c0.069-0.146,0.051-0.104,0.023-0.144c-0.056-0.056-0.276-0.108-0.477-0.141
														c-0.202-0.034-0.404-0.052-0.603-0.052c-0.398-0.004-0.784,0.055-1.137,0.158c-0.711,0.203-1.272,0.595-1.676,0.995
														C293.11,399.9,292.92,400.656,292.81,400.618z"/>
												</g>
											</g>
										</g>
									</g>
								</g>
							</g>
						</g>
						<g style="opacity:0.6;">
							<g>
								<g>
									<g>
										<g>
											<g>
												<path style="fill:#FFFFFF;" d="M277.106,401.375c0.071,1.052-0.724,1.963-1.777,2.034
													c-1.053,0.071-1.964-0.724-2.036-1.776c-0.071-1.052,0.725-1.962,1.777-2.034
													C276.124,399.529,277.035,400.324,277.106,401.375z"/>
											</g>
										</g>
									</g>
								</g>
							</g>
						</g>
					</g>
				</g>
			</g>
			<g>
				<g>
					<g>
						<g>
							<g>
								<path style="fill:#FF725E;" d="M362.06,127.768c0.805-3.272,1.772-6.553,3.524-9.432c1.751-2.879,4.381-5.349,7.616-6.291
									c3.194-0.93,7.028-0.738,10.203,0.254c2.622,0.82,4.417,2.233,6.251,3.826c2.981,2.591,4.522,6.638,5.786,10.38"/>
							</g>
						</g>
					</g>
				</g>
				<g>
					<g>
						<g>
							<g>
								<path style="fill:#FF725E;" d="M397.561,126.766c-0.579-3.593-2.555-6.957-5.46-9.15c-2.874-2.17-6.502-3.144-10.092-3.416
									c-5.61-0.426-12.172,1.097-16.022,5.199c-3.723,3.966-6.088,9.677-5.61,14.678c0.216,2.254,2.398,8.346,4.125,9.81
									l32.141-0.829C398.569,139.97,398.141,130.36,397.561,126.766z"/>
							</g>
						</g>
					</g>
				</g>
				<g>
					<g>
						<g>
							<g>
								<path style="fill:#FFBE9D;" d="M396.95,133.501c-0.725-9.228-8.415-16.35-17.671-16.369l-0.92-0.002
									c-9.918,0.559-14.985,9.295-14.152,19.194l1.779,45.734h22.733l-0.201-14.885c0,0,9.537-1.463,9.674-10.995
									C398.26,151.574,397.625,142.084,396.95,133.501z"/>
							</g>
						</g>
					</g>
				</g>
				<g>
					<g>
						<g>
							<g>
								<path style="fill:#EB996E;" d="M388.598,167.159c0,0-6.088,0.354-12.482-3.681c0,0,2.923,6.866,12.437,6.027
									L388.598,167.159z"/>
							</g>
						</g>
					</g>
				</g>
				<g>
					<g>
						<g>
							<g>
								<path style="fill:#263238;" d="M393.239,141.032c0.024,0.719-0.565,1.332-1.315,1.371c-0.749,0.038-1.377-0.511-1.401-1.23
									c-0.024-0.719,0.565-1.333,1.314-1.372C392.587,139.762,393.215,140.313,393.239,141.032z"/>
							</g>
						</g>
					</g>
				</g>
				<g>
					<g>
						<g>
							<g>
								<path style="fill:#263238;" d="M394.892,138.161c-0.169,0.177-1.198-0.588-2.664-0.587c-1.463-0.02-2.54,0.731-2.698,0.551
									c-0.078-0.079,0.094-0.4,0.563-0.74c0.461-0.338,1.248-0.667,2.16-0.661c0.913,0.007,1.679,0.344,2.12,0.689
									C394.823,137.76,394.975,138.081,394.892,138.161z"/>
							</g>
						</g>
					</g>
				</g>
				<g>
					<g>
						<g>
							<g>
								<path style="fill:#263238;" d="M379.153,141.685c0.024,0.719-0.565,1.332-1.315,1.371c-0.749,0.039-1.377-0.511-1.401-1.23
									c-0.024-0.719,0.565-1.333,1.314-1.372C378.501,140.415,379.129,140.967,379.153,141.685z"/>
							</g>
						</g>
					</g>
				</g>
				<g>
					<g>
						<g>
							<g>
								<path style="fill:#263238;" d="M380.475,138.892c-0.169,0.177-1.201-0.588-2.664-0.587c-1.463-0.02-2.54,0.731-2.698,0.551
									c-0.078-0.08,0.093-0.399,0.564-0.739c0.461-0.339,1.248-0.667,2.16-0.661c0.913,0.007,1.679,0.344,2.12,0.689
									C380.405,138.492,380.557,138.813,380.475,138.892z"/>
							</g>
						</g>
					</g>
				</g>
				<g>
					<g>
						<g>
							<g>
								<path style="fill:#263238;" d="M385.786,149.279c-0.007-0.083,0.904-0.239,2.38-0.424c0.374-0.038,0.728-0.111,0.792-0.367
									c0.089-0.27-0.067-0.674-0.247-1.109c-0.35-0.906-0.716-1.855-1.1-2.85c-1.528-4.059-2.633-7.395-2.469-7.455
									c0.164-0.06,1.536,3.181,3.063,7.239c0.368,1.001,0.719,1.955,1.054,2.867c0.14,0.425,0.383,0.908,0.191,1.468
									c-0.101,0.279-0.376,0.482-0.616,0.546c-0.24,0.073-0.45,0.076-0.635,0.087
									C386.713,149.357,385.792,149.362,385.786,149.279z"/>
							</g>
						</g>
					</g>
				</g>
				<g>
					<g>
						<g>
							<g>
								<path style="fill:#263238;" d="M381.473,150.283c0.238-0.013,0.238,1.577,1.597,2.708c1.356,1.135,3.051,0.96,3.064,1.182
									c0.022,0.1-0.378,0.308-1.094,0.326c-0.702,0.023-1.726-0.205-2.557-0.897c-0.829-0.694-1.184-1.618-1.237-2.27
									C381.186,150.667,381.365,150.273,381.473,150.283z"/>
							</g>
						</g>
					</g>
				</g>
				<g>
					<g>
						<g>
							<g>
								<path style="fill:#263238;" d="M381.227,135.574c-0.14,0.4-1.605,0.226-3.321,0.451c-1.721,0.191-3.102,0.708-3.333,0.354
									c-0.103-0.17,0.134-0.547,0.691-0.939c0.551-0.391,1.434-0.766,2.464-0.892c1.03-0.123,1.977,0.03,2.605,0.278
									C380.967,135.074,381.288,135.384,381.227,135.574z"/>
							</g>
						</g>
					</g>
				</g>
				<g>
					<g>
						<g>
							<g>
								<path style="fill:#263238;" d="M395.248,133.928c-0.28,0.363-1.544,0.143-3.024,0.277c-1.483,0.091-2.707,0.498-3.03,0.181
									c-0.143-0.155,0.02-0.507,0.535-0.875c0.507-0.367,1.383-0.713,2.401-0.791c1.018-0.076,1.929,0.135,2.477,0.422
									C395.164,133.429,395.37,133.753,395.248,133.928z"/>
							</g>
						</g>
					</g>
				</g>
				<g>
					<g>
						<g>
							<g>
								<path style="fill:#FFBE9D;" d="M365.634,143.384c-0.162-0.071-6.546-1.951-6.351,4.566c0.195,6.517,6.698,4.977,6.703,4.79
									C365.992,152.553,365.634,143.384,365.634,143.384z"/>
							</g>
						</g>
					</g>
				</g>
				<g>
					<g>
						<g>
							<g>
								<path style="fill:#EB996E;" d="M364.495,150.331c-0.029-0.02-0.111,0.083-0.301,0.177c-0.184,0.091-0.504,0.16-0.848,0.043
									c-0.696-0.232-1.308-1.308-1.375-2.482c-0.034-0.592,0.073-1.161,0.269-1.635c0.185-0.483,0.483-0.825,0.828-0.897
									c0.342-0.09,0.594,0.11,0.679,0.291c0.093,0.179,0.055,0.311,0.09,0.321c0.019,0.016,0.137-0.113,0.076-0.381
									c-0.031-0.129-0.112-0.28-0.269-0.401c-0.16-0.123-0.392-0.18-0.633-0.147c-0.502,0.05-0.94,0.526-1.156,1.046
									c-0.243,0.523-0.378,1.163-0.339,1.828c0.081,1.312,0.79,2.521,1.74,2.765c0.462,0.106,0.84-0.044,1.033-0.204
									C364.488,150.489,364.518,150.342,364.495,150.331z"/>
							</g>
						</g>
					</g>
				</g>
				<g>
					<g>
						<g>
							<g>
								<path style="fill:#263238;" d="M369.906,124.011l3.222-2.78l10.246,1.567l7.193-1.853l1.89,2.079
									c-0.806,1.083,0.913-3.559-0.725-4.802c-3.532-2.678-6.516-2.582-10.948-2.66c-4.432-0.077-13.454,5.321-16.665,8.377
									c-2.569,2.446-2.553,4.562-2.553,4.562c-0.408,3.524,1.564,7.529,2.348,10.988c0.404,1.784,1.185,7.182,1.185,7.182
									s0,0,0.001,0c1.497-0.005,2.053-1.197,1.826-2.677l-0.28-5.808c0,0,5.093-3.619,2.68-10.243
									C368.938,127.417,368.112,124.997,369.906,124.011z"/>
							</g>
						</g>
					</g>
				</g>
				<g>
					<g>
						<g>
							<g>
								<path style="fill:#263238;" d="M368.576,125.56c0.578-1.858,2.604-3.016,4.549-2.991c1.945,0.025,3.768,1.039,5.189,2.369
									c0.368,0.344,0.722,0.716,1.164,0.957c0.442,0.241,1.004,0.332,1.446,0.089c0.135-0.074,0.278-0.182,0.427-0.141
									c0.106,0.029,0.177,0.126,0.241,0.216c0.404,0.573,0.87,1.136,1.507,1.43c0.636,0.293,1.48,0.24,1.935-0.293
									c0.709,0.654,1.814,0.838,2.697,0.448s1.491-1.33,1.486-2.295c0.849,0.291,1.777-0.229,2.373-0.9
									c0.948-1.067,1.384-2.57,1.155-3.979c-0.229-1.409-1.118-2.696-2.355-3.409c-0.953-0.549-2.06-0.756-3.149-0.91
									c-1.711-0.241-3.437-0.371-5.164-0.388c-0.759-0.008-1.534,0.009-2.248,0.268c-0.989,0.358-1.814,1.165-2.858,1.294
									c-0.669,0.083-1.334-0.127-1.981-0.316c-0.934-0.272-1.902-0.507-2.871-0.42c-1.909,0.171-3.485,1.54-4.75,2.981
									c-0.889,1.013-1.721,2.143-2,3.462c-0.279,1.319,0.13,2.863,1.275,3.574c0.45,0.279,1.029,0.411,1.514,0.2
									c0.486-0.211,0.794-0.839,0.543-1.305"/>
							</g>
						</g>
					</g>
				</g>
				<g>
					<g>
						<g>
							<g>
								<path style="fill:#FF725E;" d="M364.074,140.475c-0.704-4.973,0.137-10.975,3.765-15.26
									c3.628-4.285,10.052-6.88,14.296-6.074c3.318,0.631,10.513,0.884,13.146,7.814l-0.368-5.72c0,0-3.207-6.491-12.65-6.3
									c-9.443,0.191-13.576,1.304-18.145,6.869c-4.569,5.565-3.217,10.302-2.608,12.7
									C362.12,136.903,364.074,140.475,364.074,140.475z"/>
							</g>
						</g>
					</g>
				</g>
				<g>
					<g>
						<g>
							<g>
								<g>
									<path style="fill:#263238;" d="M390.099,116.351c-0.003,0.007-0.122-0.034-0.345-0.118
										c-0.225-0.079-0.546-0.223-0.973-0.367c-0.853-0.295-2.107-0.674-3.696-0.951c-1.588-0.276-3.512-0.435-5.641-0.332
										c-2.123,0.117-4.464,0.487-6.765,1.35c-2.285,0.89-4.333,2.095-5.97,3.45c-0.822,0.675-1.545,1.387-2.152,2.112
										c-0.318,0.351-0.58,0.726-0.851,1.073c-0.247,0.363-0.493,0.706-0.7,1.051c-0.84,1.376-1.357,2.582-1.675,3.426
										c-0.17,0.419-0.268,0.756-0.353,0.978c-0.08,0.224-0.126,0.341-0.134,0.339s0.024-0.123,0.091-0.352
										c0.072-0.227,0.157-0.57,0.314-0.995c0.294-0.856,0.791-2.08,1.621-3.479c0.205-0.351,0.449-0.701,0.695-1.07
										c0.269-0.353,0.531-0.735,0.849-1.092c0.608-0.738,1.335-1.465,2.162-2.152c1.651-1.381,3.708-2.6,6.023-3.501
										c2.329-0.873,4.693-1.239,6.834-1.346c2.147-0.092,4.084,0.085,5.679,0.382c1.597,0.299,2.851,0.704,3.698,1.026
										c0.425,0.158,0.742,0.314,0.961,0.407C389.989,116.289,390.102,116.344,390.099,116.351z"/>
								</g>
							</g>
						</g>
					</g>
				</g>
				<g>
					<g>
						<g>
							<g>
								<g>
									<path style="fill:#263238;" d="M364.703,132.111c-0.007,0.012-0.113-0.032-0.292-0.136
										c-0.179-0.103-0.428-0.273-0.709-0.515c-0.563-0.479-1.243-1.295-1.64-2.37c-0.398-1.075-0.413-2.138-0.297-2.867
										c0.056-0.367,0.134-0.658,0.203-0.853c0.068-0.195,0.12-0.298,0.133-0.293c0.037,0.011-0.109,0.444-0.179,1.165
										c-0.073,0.716-0.032,1.737,0.35,2.77c0.382,1.033,1.015,1.834,1.537,2.331
										C364.331,131.844,364.724,132.078,364.703,132.111z"/>
								</g>
							</g>
						</g>
					</g>
				</g>
				<g>
					<g>
						<g>
							<g>
								<g>
									<path style="fill:#263238;" d="M367.457,126.393c-0.013,0.021-0.364-0.16-0.821-0.598
										c-0.455-0.433-0.999-1.152-1.308-2.076c-0.32-0.918-0.321-1.829-0.191-2.445c0.125-0.622,0.31-0.97,0.332-0.96
										c0.036,0.012-0.094,0.378-0.175,0.986c-0.086,0.605-0.059,1.464,0.247,2.348c0.296,0.884,0.795,1.587,1.208,2.036
										C367.165,126.137,367.479,126.363,367.457,126.393z"/>
								</g>
							</g>
						</g>
					</g>
				</g>
				<g>
					<g>
						<g>
							<g>
								<g>
									<path style="fill:#263238;" d="M371.931,122.217c-0.015,0.021-0.298-0.137-0.693-0.48c-0.392-0.343-0.887-0.89-1.254-1.608
										c-0.366-0.719-0.511-1.448-0.534-1.97c-0.023-0.525,0.042-0.844,0.067-0.841c0.08-0.009-0.055,1.317,0.668,2.709
										C370.896,121.415,371.99,122.157,371.931,122.217z"/>
								</g>
							</g>
						</g>
					</g>
				</g>
				<g>
					<g>
						<g>
							<g>
								<g>
									<path style="fill:#263238;" d="M376.243,114.84c0.025-0.014,0.193,0.218,0.41,0.627c0.216,0.408,0.471,1,0.65,1.687
										c0.178,0.687,0.242,1.328,0.252,1.79c0.01,0.463-0.024,0.747-0.053,0.747c-0.074,0.002-0.069-1.139-0.418-2.481
										C376.737,115.869,376.177,114.873,376.243,114.84z"/>
								</g>
							</g>
						</g>
					</g>
				</g>
				<g>
					<g>
						<g>
							<g>
								<g>
									<path style="fill:#263238;" d="M384.538,114.68c0.023-0.012,0.18,0.231,0.331,0.67c0.151,0.437,0.272,1.08,0.233,1.791
										c-0.042,0.711-0.235,1.336-0.435,1.753c-0.199,0.42-0.383,0.643-0.404,0.628c-0.066-0.03,0.547-1.015,0.614-2.395
										C384.966,115.751,384.469,114.702,384.538,114.68z"/>
								</g>
							</g>
						</g>
					</g>
				</g>
				<g>
					<g>
						<g>
							<g>
								<g>
									<path style="fill:#263238;" d="M389.868,116.18c0.02-0.014,0.225,0.225,0.443,0.682c0.218,0.454,0.422,1.138,0.445,1.914
										c0.019,0.776-0.148,1.47-0.341,1.936c-0.192,0.468-0.384,0.718-0.405,0.705c-0.069-0.025,0.575-1.127,0.52-2.634
										C390.503,117.274,389.801,116.208,389.868,116.18z"/>
								</g>
							</g>
						</g>
					</g>
				</g>
				<g>
					<g>
						<g>
							<g>
								<g>
									<path style="fill:#263238;" d="M394.988,120.667c0.026-0.004,0.098,0.239,0.115,0.646c0.018,0.406-0.04,0.976-0.248,1.566
										c-0.21,0.589-0.524,1.069-0.793,1.373c-0.269,0.306-0.478,0.449-0.496,0.43c-0.053-0.047,0.683-0.739,1.076-1.878
										C395.053,121.672,394.917,120.67,394.988,120.667z"/>
								</g>
							</g>
						</g>
					</g>
				</g>
				<g>
					<g>
						<g>
							<g>
								<g>
									<path style="fill:#263238;" d="M397.586,126.263c0.057,0-0.001,0.767-0.512,1.534c-0.505,0.772-1.186,1.126-1.209,1.074
										c-0.04-0.056,0.548-0.472,1.021-1.198C397.367,126.953,397.519,126.248,397.586,126.263z"/>
								</g>
							</g>
						</g>
					</g>
				</g>
				<g>
					<g>
						<g>
							<g>
								<g>
									<path style="fill:#263238;" d="M397.935,132.548c0.059,0.01-0.001,0.393-0.341,0.695c-0.337,0.305-0.725,0.323-0.728,0.263
										c-0.014-0.064,0.294-0.171,0.577-0.431C397.733,132.821,397.874,132.527,397.935,132.548z"/>
								</g>
							</g>
						</g>
					</g>
				</g>
				<g>
					<g>
						<g>
							<g>
								<g>
									<path style="fill:#263238;" d="M364.029,137.736c-0.001,0.055-1.035-0.083-2.07-0.797
										c-1.041-0.705-1.546-1.618-1.495-1.639c0.056-0.043,0.623,0.779,1.622,1.453
										C363.076,137.438,364.048,137.669,364.029,137.736z"/>
								</g>
							</g>
						</g>
					</g>
				</g>
				<g>
					<g>
						<g>
							<g>
								<g>
									<path style="fill:#263238;" d="M364.552,140.893c0.043,0.042-0.324,0.373-0.901,0.405c-0.577,0.037-0.98-0.247-0.943-0.294
										c0.029-0.059,0.425,0.105,0.929,0.069C364.143,141.048,364.517,140.838,364.552,140.893z"/>
								</g>
							</g>
						</g>
					</g>
				</g>
				<g style="opacity:0.3;">
					<g>
						<g>
							<g>
								<g>
									<path d="M389.322,116.129c-4.073-2.707-9.275-3.653-14.04-2.553c-4.765,1.1-9.078,4.499-11.552,8.717
										c0,0,5.892-7.454,14.333-7.713C386.503,114.322,389.322,116.129,389.322,116.129z"/>
								</g>
							</g>
						</g>
					</g>
				</g>
				<g>
					<g>
						<g>
							<g>
								<g>
									<g>
										<path style="fill:#455A64;" d="M382.804,141.245c-0.031,0.002-0.003-0.433-0.194-1.174
											c-0.189-0.727-0.677-1.796-1.771-2.621c-0.542-0.403-1.224-0.745-2.01-0.881c-0.78-0.132-1.66-0.105-2.497,0.215
											c-0.421,0.147-0.827,0.369-1.2,0.649c-0.377,0.274-0.72,0.615-1.002,1.009c-0.583,0.777-0.912,1.775-0.921,2.803
											c0.009,1.029,0.338,2.027,0.921,2.804c0.282,0.395,0.625,0.735,1.002,1.009c0.373,0.28,0.779,0.502,1.2,0.649
											c0.837,0.32,1.717,0.346,2.497,0.215c0.786-0.137,1.468-0.478,2.01-0.881c1.094-0.825,1.582-1.893,1.771-2.621
											C382.801,141.677,382.773,141.242,382.804,141.245c0,0,0.059,0.434-0.109,1.196c-0.166,0.746-0.641,1.856-1.759,2.726
											c-0.554,0.425-1.257,0.788-2.072,0.938c-0.81,0.145-1.726,0.125-2.602-0.203c-0.441-0.151-0.866-0.38-1.258-0.671
											c-0.396-0.285-0.755-0.64-1.052-1.051c-0.613-0.811-0.96-1.858-0.969-2.935c0.009-1.077,0.356-2.123,0.969-2.934
											c0.297-0.411,0.656-0.766,1.052-1.051c0.391-0.291,0.817-0.52,1.257-0.671c0.876-0.328,1.792-0.348,2.602-0.203
											c0.815,0.15,1.518,0.513,2.072,0.938c1.118,0.869,1.593,1.979,1.76,2.726
											C382.863,140.811,382.804,141.245,382.804,141.245z"/>
									</g>
								</g>
							</g>
						</g>
					</g>
					<g>
						<g>
							<g>
								<g>
									<g>
										<path style="fill:#455A64;" d="M397.315,140.674c-0.031,0.002-0.003-0.433-0.194-1.174
											c-0.189-0.727-0.677-1.796-1.771-2.621c-0.542-0.403-1.224-0.745-2.01-0.881c-0.78-0.132-1.66-0.105-2.497,0.215
											c-0.421,0.147-0.827,0.369-1.2,0.649c-0.377,0.274-0.72,0.615-1.002,1.009c-0.583,0.777-0.912,1.775-0.921,2.803
											c0.009,1.029,0.338,2.027,0.921,2.804c0.282,0.395,0.625,0.735,1.002,1.009c0.373,0.28,0.779,0.502,1.2,0.649
											c0.837,0.32,1.717,0.346,2.497,0.215c0.786-0.137,1.468-0.478,2.01-0.881c1.094-0.825,1.582-1.893,1.771-2.621
											C397.312,141.107,397.285,140.672,397.315,140.674c0,0,0.059,0.434-0.109,1.196c-0.166,0.746-0.641,1.856-1.76,2.726
											c-0.554,0.425-1.257,0.788-2.072,0.938c-0.81,0.145-1.726,0.125-2.602-0.203c-0.441-0.151-0.866-0.38-1.258-0.671
											c-0.396-0.285-0.755-0.64-1.052-1.051c-0.613-0.811-0.96-1.858-0.969-2.935c0.009-1.077,0.356-2.123,0.969-2.934
											c0.297-0.412,0.656-0.766,1.052-1.051c0.391-0.291,0.817-0.52,1.257-0.671c0.876-0.328,1.792-0.348,2.602-0.203
											c0.815,0.15,1.518,0.513,2.072,0.938c1.118,0.87,1.593,1.979,1.76,2.726C397.374,140.241,397.315,140.674,397.315,140.674
											z"/>
									</g>
								</g>
							</g>
						</g>
					</g>
					<g>
						<g>
							<g>
								<g>
									<g>
										<path style="fill:#455A64;" d="M387.771,138.825c-0.024,0.029-0.283-0.193-0.764-0.426
											c-0.476-0.235-1.201-0.459-2.011-0.412c-0.81,0.048-1.504,0.354-1.95,0.643c-0.451,0.288-0.682,0.538-0.709,0.512
											c-0.019-0.015,0.172-0.308,0.619-0.644c0.44-0.335,1.165-0.686,2.027-0.737c0.862-0.05,1.623,0.215,2.099,0.496
											C387.564,138.539,387.789,138.808,387.771,138.825z"/>
									</g>
								</g>
							</g>
						</g>
					</g>
					<g>
						<g>
							<g>
								<g>
									<g>
										<path style="fill:#455A64;" d="M373.421,140.342c0.018,0.059-1.933,0.719-4.359,1.474
											c-2.427,0.755-4.408,1.318-4.426,1.259c-0.019-0.059,1.933-0.719,4.359-1.474
											C371.421,140.846,373.402,140.283,373.421,140.342z"/>
									</g>
								</g>
							</g>
						</g>
					</g>
					<g>
						<g>
							<g>
								<g>
									<g>
										<path style="fill:#FFFFFF;" d="M377.769,145.271c-0.001,0.023-0.334,0.032-0.849-0.112
											c-0.512-0.141-1.194-0.472-1.795-1.03c-0.599-0.561-0.976-1.217-1.153-1.719c-0.18-0.503-0.194-0.836-0.171-0.839
											c0.038-0.008,0.108,0.31,0.319,0.779c0.208,0.469,0.588,1.079,1.159,1.614c0.574,0.532,1.208,0.868,1.691,1.043
											C377.452,145.185,377.774,145.232,377.769,145.271z"/>
									</g>
								</g>
							</g>
						</g>
					</g>
					<g>
						<g>
							<g>
								<g>
									<g>
										<path style="fill:#FFFFFF;" d="M389.674,143.683c-0.005,0.024-0.319-0.063-0.653-0.432
											c-0.334-0.361-0.66-0.977-0.795-1.712c-0.125-0.734-0.078-1.413,0.042-1.885c0.117-0.474,0.289-0.729,0.311-0.716
											c0.033,0.015-0.083,0.286-0.155,0.748c-0.076,0.458-0.095,1.113,0.024,1.813c0.128,0.695,0.413,1.288,0.695,1.65
											C389.423,143.518,389.693,143.649,389.674,143.683z"/>
									</g>
								</g>
							</g>
						</g>
					</g>
				</g>
				<g>
					<g>
						<g>
							<g>
								<g>
									<g>
										<path style="fill:#263238;" d="M382.643,150.617c-0.044-0.044,0.141-0.299,0.412-0.57c0.272-0.27,0.528-0.454,0.572-0.41
											c0.044,0.044-0.141,0.299-0.413,0.569C382.943,150.477,382.687,150.661,382.643,150.617z"/>
									</g>
								</g>
							</g>
						</g>
					</g>
					<g>
						<g>
							<g>
								<g>
									<g>
										<path style="fill:#263238;" d="M383.345,151.05c-0.049-0.038,0.131-0.349,0.401-0.695c0.271-0.345,0.53-0.594,0.579-0.556
											c0.049,0.038-0.131,0.349-0.401,0.695C383.653,150.84,383.394,151.089,383.345,151.05z"/>
									</g>
								</g>
							</g>
						</g>
					</g>
					<g>
						<g>
							<g>
								<g>
									<g>
										<path style="fill:#263238;" d="M384.056,151.583c-0.055-0.029,0.06-0.353,0.257-0.722c0.197-0.37,0.401-0.645,0.456-0.616
											c0.055,0.029-0.06,0.352-0.257,0.722C384.315,151.337,384.111,151.613,384.056,151.583z"/>
									</g>
								</g>
							</g>
						</g>
					</g>
					<g>
						<g>
							<g>
								<g>
									<g>
										<path style="fill:#263238;" d="M385.154,151.585c-0.062-0.005-0.095-0.229-0.074-0.5c0.021-0.271,0.088-0.487,0.15-0.483
											c0.062,0.005,0.095,0.229,0.074,0.5C385.283,151.374,385.216,151.59,385.154,151.585z"/>
									</g>
								</g>
							</g>
						</g>
					</g>
					<g>
						<g>
							<g>
								<g>
									<g>
										<path style="fill:#263238;" d="M386.197,151.762c-0.062,0-0.113-0.2-0.113-0.446c0-0.246,0.05-0.446,0.113-0.446
											c0.062,0,0.113,0.2,0.113,0.446C386.31,151.562,386.259,151.762,386.197,151.762z"/>
									</g>
								</g>
							</g>
						</g>
					</g>
					<g>
						<g>
							<g>
								<g>
									<g>
										<path style="fill:#263238;" d="M387.179,151.851c-0.061,0.014-0.17-0.234-0.244-0.555
											c-0.074-0.32-0.085-0.591-0.024-0.605c0.061-0.014,0.17,0.234,0.244,0.555
											C387.228,151.566,387.239,151.837,387.179,151.851z"/>
									</g>
								</g>
							</g>
						</g>
					</g>
				</g>
				<g>
					<g>
						<g>
							<g>
								<g>
									<path style="fill:#263238;" d="M364.635,153.031c0.022-0.013,0.099,0.478-0.29,1.111c-0.19,0.301-0.54,0.651-1.052,0.719
										c-0.494,0.08-1.086-0.146-1.422-0.62c-0.336-0.467-0.439-1.036-0.341-1.524c0.112-0.492,0.43-0.843,0.73-1.046
										c0.63-0.415,1.132-0.285,1.114-0.271c0.01,0.045-0.469-0.014-1.02,0.4c-0.265,0.202-0.534,0.531-0.62,0.959
										c-0.076,0.423,0.024,0.942,0.319,1.348c0.294,0.411,0.785,0.603,1.215,0.547c0.432-0.045,0.752-0.333,0.946-0.603
										C364.609,153.488,364.597,153.022,364.635,153.031z"/>
								</g>
							</g>
						</g>
					</g>
				</g>
			</g>
			<g>
				<g>
					<g>
						<g>
							<path style="fill:#263238;" d="M351.167,300.015c1.209,0,51.174,51.98,51.174,55.607s7.414,40.242,11.041,45.883
								c3.626,5.641,5.729,4.316,5.729,4.316l16.605-7.737c0,0-9.198-56.968-11.213-63.415
								c-2.015-6.447-40.126-56.815-40.126-56.815l-36.031,6.85L351.167,300.015z"/>
						</g>
					</g>
					<g>
						<g>
							<path style="fill:#263238;" d="M332.719,273.956l-10.38,64.148c0,0-32.471,32.502-34.486,36.128c0,0-3.626-1.209-4.835,2.015
								c-1.209,3.224-2.252,9.228-2.252,9.228l16.124,13.518c0,0,42.592-35.313,46.621-40.552
								c4.03-5.238,20.912-39.788,24.136-48.653c3.223-8.865,7.034-28.507,7.034-28.507L332.719,273.956z"/>
						</g>
					</g>
					<g>
						<g>
							<g>
								<path style="fill:#455A64;" d="M410.707,343.974c0.059,0.024-0.175,0.807-0.713,2.013c-0.541,1.202-1.409,2.814-2.564,4.466
									c-1.155,1.654-2.387,3.015-3.362,3.908c-0.98,0.893-1.691,1.313-1.727,1.261c-0.048-0.064,0.574-0.581,1.47-1.524
									c0.893-0.944,2.057-2.316,3.194-3.944C409.299,346.906,410.562,343.911,410.707,343.974z"/>
							</g>
						</g>
					</g>
					<g>
						<g>
							<g>
								<path style="fill:#455A64;" d="M328.163,342.539c-0.007,0.132-1.771-0.131-3.421-1.481c-1.663-1.334-2.285-3.005-2.158-3.04
									c0.138-0.076,0.926,1.39,2.486,2.635C326.611,341.921,328.209,342.388,328.163,342.539z"/>
							</g>
						</g>
					</g>
					<g>
						<g>
							<g>
								<path style="fill:#455A64;" d="M294.645,382.604c-0.04,0.12-2.316-1.028-4.091-3.527c-1.8-2.482-2.159-5.006-2.032-5.005
									c0.157-0.048,0.727,2.325,2.455,4.702C292.674,381.171,294.741,382.47,294.645,382.604z"/>
							</g>
						</g>
					</g>
					<g>
						<g>
							<g>
								<path style="fill:#455A64;" d="M346.115,283.478c0.033,0.013-0.041,0.269-0.205,0.723c-0.157,0.456-0.443,1.095-0.845,1.859
									c-0.798,1.529-2.174,3.523-4.105,5.336c-1.937,1.808-4.018,3.049-5.596,3.745c-0.789,0.351-1.445,0.594-1.911,0.72
									c-0.464,0.134-0.724,0.191-0.735,0.157c-0.029-0.084,0.973-0.435,2.485-1.209c1.512-0.769,3.508-2.028,5.4-3.793
									c1.885-1.771,3.273-3.68,4.14-5.137C345.617,284.421,346.033,283.444,346.115,283.478z"/>
							</g>
						</g>
					</g>
				</g>
				<g>
					<g>
						<g>
							<path style="fill:#455A64;" d="M371.579,299.86c0.033,0.014-0.168,0.597-0.56,1.639c-0.436,1.119-1.014,2.602-1.714,4.396
								c-1.478,3.699-3.559,8.796-6.046,14.346c-2.492,5.55-4.916,10.494-6.695,14.058c-0.875,1.716-1.598,3.133-2.143,4.203
								c-0.518,0.987-0.819,1.525-0.852,1.509c-0.032-0.016,0.208-0.584,0.67-1.598c0.508-1.088,1.18-2.529,1.994-4.274
								c1.694-3.604,4.063-8.569,6.551-14.11c2.483-5.541,4.615-10.611,6.18-14.273c0.762-1.768,1.391-3.229,1.866-4.332
								C371.281,300.404,371.546,299.846,371.579,299.86z"/>
						</g>
					</g>
				</g>
			</g>
			<g>
				<g>
					<g>
						<path style="fill:#FF725E;" d="M362.823,169.901c0,0-10.977,4.425-13.551,12.157c-1.301,3.909-8.884,32.5-8.884,32.5
							s-9.996,54.901-8.623,60.134l57.217,8.786h0c1.413-1.719,2.128-3.906,2.002-6.127l-0.934-16.453l0.673-70.51
							c0.005-0.526-0.033-1.052-0.113-1.572l-2.013-13.024l0.647-5.612l-25.651-6.779L362.823,169.901z"/>
					</g>
				</g>
				<g>
					<g>
						<path style="fill:#FF725E;" d="M361.283,165.475L361.283,165.475c0.292-1.854,2.123-3.048,3.937-2.569l23.453,6.195
							c1.455,0.384,2.439,1.74,2.353,3.243l-0.059,1.022c-0.118,2.053-2.13,3.451-4.095,2.845l-23.395-7.216
							C361.973,168.53,361.038,167.031,361.283,165.475z"/>
					</g>
				</g>
				<g>
					<g>
						<g>
							<path style="fill:#263238;" d="M388.987,175.9c-0.01,0.035-0.441-0.05-1.213-0.233c-0.873-0.22-1.963-0.495-3.257-0.821
								c-2.744-0.715-6.524-1.738-10.691-2.899c-1.968-0.555-3.847-1.085-5.574-1.572l0.03,0.006
								c-0.731-0.119-1.416-0.273-2.068-0.482c-0.325-0.108-0.64-0.229-0.938-0.397c-0.148-0.086-0.295-0.178-0.423-0.322
								c-0.137-0.139-0.188-0.287-0.282-0.428c-0.279-0.6-0.289-1.221-0.223-1.755c0.072-0.538,0.217-1.015,0.39-1.426
								c0.346-0.823,0.762-1.401,1.082-1.759c0.326-0.356,0.552-0.493,0.564-0.476c0.052,0.042-0.775,0.718-1.371,2.342
								c-0.267,0.781-0.548,1.884-0.079,2.892c0.212,0.502,0.795,0.692,1.415,0.9c0.621,0.186,1.302,0.327,2.001,0.432l0.016,0.002
								l0.015,0.004c1.729,0.476,3.612,0.994,5.583,1.536c4.167,1.161,7.932,2.24,10.65,3.046c1.276,0.39,2.351,0.718,3.212,0.981
								C388.583,175.715,388.996,175.866,388.987,175.9z"/>
						</g>
					</g>
				</g>
				<g>
					<g>
						<g>
							<path style="fill:#263238;" d="M389.233,179.901c0.018-0.002,0.051,0.177,0.097,0.518c0.047,0.4,0.106,0.894,0.177,1.494
								c0.139,1.299,0.319,3.18,0.497,5.508c0.369,4.655,0.741,11.097,0.949,18.22c0.2,7.125,0.186,13.58,0.03,18.249
								c-0.068,2.335-0.174,4.222-0.266,5.525c-0.05,0.602-0.091,1.097-0.124,1.499c-0.034,0.342-0.061,0.521-0.079,0.52
								c-0.018-0.001-0.026-0.182-0.026-0.526c0.007-0.403,0.016-0.899,0.027-1.503c0.03-1.304,0.08-3.191,0.101-5.523
								c0.062-4.664,0.018-11.109-0.182-18.226c-0.208-7.115-0.521-13.552-0.796-18.21c-0.137-2.271-0.249-4.136-0.332-5.516
								c-0.032-0.603-0.058-1.099-0.079-1.501C389.213,180.084,389.215,179.903,389.233,179.901z"/>
						</g>
					</g>
				</g>
				<g>
					<g>
						<g>
							<path style="fill:#263238;" d="M372.587,165.21c0.128,0.09-0.684,1.242-0.925,2.899c-0.271,1.653,0.154,2.997,0.005,3.044
								c-0.113,0.074-0.81-1.312-0.52-3.123C371.418,166.216,372.501,165.105,372.587,165.21z"/>
						</g>
					</g>
				</g>
				<g>
					<g>
						<g>
							<path style="fill:#263238;" d="M379.246,166.745c0.055-0.029,0.298,0.272,0.496,0.857c0.199,0.58,0.308,1.455,0.126,2.387
								c-0.186,0.932-0.619,1.699-1.024,2.16c-0.405,0.466-0.744,0.652-0.784,0.604c-0.112-0.106,0.978-1.14,1.297-2.865
								C379.717,168.171,379.102,166.8,379.246,166.745z"/>
						</g>
					</g>
				</g>
				<g>
					<g>
						<g>
							<path style="fill:#263238;" d="M385.736,168.54c0.055-0.035,0.324,0.239,0.568,0.802c0.245,0.555,0.43,1.42,0.277,2.359
								c-0.153,0.94-0.603,1.701-1.011,2.15c-0.41,0.456-0.752,0.631-0.793,0.58c-0.113-0.102,1.019-1.11,1.29-2.814
								C386.35,169.916,385.596,168.6,385.736,168.54z"/>
						</g>
					</g>
				</g>
			</g>
			<g>
				<g>
					<path style="fill:#455A64;" d="M382.357,184.405c-2.156-6.374-7.397-11.943-13.997-13.253s-12.798,0.093-17.507,5.575
						l-5.964,12.748c2.665-1.476,6.918-10.124,11.884-13.067c4.965-2.942,10.475-2.996,14.554,1.087
						c3.023,3.025,5.252,7.363,5.183,11.639c-0.136,8.387-3.627,16.248-6.169,24.241c-3.264,10.265-5.838,21.205-13.366,28.91
						c-6.052,6.195-14.15,9.883-22.048,13.435c-1.852,1.527-6.158,7.089-3.939,8.004c2.218,0.915,10.288-2.018,12.584-2.718
						c5.71-1.74,11.641-3.605,15.978-7.706c4.029-3.809,6.221-9.117,8.301-14.257c4.017-9.925,6.615-20.266,10.632-30.191
						C381.905,200.398,385.279,193.045,382.357,184.405z"/>
				</g>
			</g>
			<g>
				<g>
					<g>
						<path style="fill:#FFBE9D;" d="M373.233,291.177l-4.563-7.699l-15.258,5.323l0,0c0,0,1.047,13.558,3.001,13.953
							c1.955,0.395,3.402-0.921,3.402-0.921s1.142,3.534,3.42,3.683c0.698,0.046,1.077,0.063,1.27,0.066
							c0.416,0.315,2.738,1.978,4.649,1.381c0,0,1.769,3.815,3.186,3.42c1.418-0.395,2.339-4.999,2.339-4.999L373.233,291.177z"/>
					</g>
				</g>
				<g>
					<g>
						<g>
							<path style="fill:#FF725E;" d="M359.446,174.569c-5.403,1.865-9.254,6.469-10.38,11.845
								c-3.008,14.37-10.16,51.959-9.866,57.291c0.372,6.746,13.223,46.683,13.223,46.683l18.04-5.418l-8.169-45.027
								c0,0,12.716-42.07,13.717-48.478C377.104,184.481,371.043,170.566,359.446,174.569z"/>
						</g>
					</g>
					<g>
						<g>
							<g>
								<path style="fill:#263238;" d="M359.446,174.603c0,0,0.462-0.205,1.401-0.453c0.931-0.247,2.392-0.515,4.259-0.216
									c1.854,0.286,4.073,1.313,5.952,3.293c1.892,1.954,3.488,4.732,4.448,8.075c0.473,1.671,0.803,3.493,0.784,5.421
									c0.009,0.968-0.168,1.945-0.37,2.923c-0.204,0.979-0.45,1.965-0.695,2.975c-1.021,4.023-2.235,8.33-3.556,12.91
									c-2.647,9.159-5.732,19.406-9.148,30.483l0.007-0.113c2.511,13.801,5.279,29.016,8.19,45.023l0.042,0.229l-0.223,0.067
									c-2.68,0.805-5.548,1.667-8.438,2.535c-3.289,0.988-6.549,1.966-9.602,2.883l-0.243,0.073l-0.078-0.241
									c-2.669-8.194-5.182-16.193-7.507-23.93c-1.151-3.872-2.272-7.673-3.282-11.417c-0.498-1.874-1.001-3.724-1.423-5.575
									c-0.23-0.919-0.426-1.843-0.6-2.767c-0.201-0.913-0.315-1.859-0.385-2.791c-0.006-1.893,0.28-3.686,0.491-5.477
									c0.245-1.782,0.501-3.537,0.781-5.26c0.543-3.449,1.131-6.783,1.699-10.003c1.152-6.436,2.285-12.406,3.336-17.843
									c1.073-5.43,2.041-10.334,2.891-14.637c0.464-2.139,0.748-4.167,1.36-5.962c0.622-1.783,1.457-3.309,2.363-4.561
									c1.829-2.516,3.88-3.89,5.287-4.662C358.62,174.824,359.446,174.603,359.446,174.603s-0.191,0.095-0.57,0.256
									c-0.382,0.154-0.938,0.419-1.639,0.813c-1.382,0.795-3.394,2.184-5.178,4.688c-0.884,1.246-1.696,2.76-2.296,4.523
									c-0.588,1.764-0.861,3.797-1.311,5.94c-0.828,4.307-1.772,9.214-2.817,14.649c-1.028,5.44-2.14,11.412-3.273,17.849
									c-0.558,3.219-1.137,6.553-1.671,9.999c-0.276,1.722-0.527,3.474-0.768,5.251c-0.207,1.773-0.486,3.596-0.477,5.4
									c0.072,0.902,0.181,1.809,0.383,2.721c0.173,0.913,0.369,1.829,0.6,2.746c0.423,1.84,0.928,3.687,1.428,5.556
									c1.014,3.736,2.139,7.533,3.293,11.4c2.332,7.729,4.85,15.725,7.519,23.913l-0.321-0.168
									c3.052-0.917,6.312-1.896,9.601-2.884c2.891-0.868,5.759-1.729,8.439-2.534l-0.181,0.295
									c-2.896-16.01-5.649-31.227-8.146-45.031l-0.01-0.057l0.017-0.056c3.434-11.068,6.544-21.307,9.221-30.453
									c1.335-4.574,2.566-8.874,3.602-12.885c0.464-2.011,1.07-3.934,1.084-5.818c0.029-1.886-0.286-3.687-0.743-5.338
									c-0.928-3.307-2.487-6.062-4.333-7.999c-1.835-1.964-3.997-2.992-5.819-3.297c-1.833-0.319-3.284-0.08-4.215,0.142
									c-0.477,0.084-0.818,0.228-1.058,0.284C359.57,174.577,359.446,174.603,359.446,174.603z"/>
							</g>
						</g>
					</g>
					<g>
						<g>
							<g>
								<path style="fill:#263238;" d="M362.468,239.725c-0.101,0.13-1.9-1.477-4.651-2.385c-2.74-0.946-5.144-0.758-5.146-0.923
									c-0.042-0.12,2.446-0.555,5.312,0.429C360.859,237.801,362.574,239.655,362.468,239.725z"/>
							</g>
						</g>
					</g>
					<g style="opacity:0.3;">
						<g>
							<g>
								<path d="M348.065,277.795c-8.387-12.446-12.799-29.839-7.954-42.201c-1.315,7.404-0.06,14.178,2.147,21.367
									c2.207,7.189,4.854,14.362,5.282,21.87"/>
							</g>
						</g>
					</g>
				</g>
			</g>
		</g>
	</g>
</g>
<g id="Rocks">
	<g>
		<g>
			<g>
				<polyline style="fill:#F5F5F5;" points="322.254,454.966 297.413,428.764 277.046,429.91 262.626,435.611 253.481,454.966 				
					"/>
			</g>
		</g>
		<g>
			<g>
				<polygon style="fill:#E0E0E0;" points="277.046,429.91 298.145,454.966 322.254,454.966 297.413,428.764 				"/>
			</g>
		</g>
		<g>
			<g>
				<g>
					<path style="fill:#263238;" d="M253.481,454.966c-0.01-0.005,0.036-0.13,0.136-0.368c0.118-0.27,0.269-0.614,0.458-1.044
						c0.433-0.95,1.037-2.275,1.798-3.945c1.596-3.431,3.848-8.272,6.556-14.091l0.036-0.078l0.081-0.032
						c4.308-1.715,9.183-3.655,14.406-5.734l0.038-0.015l0.042-0.002c3.144-0.179,6.42-0.365,9.779-0.556
						c3.657-0.203,7.216-0.401,10.589-0.589l0.118-0.007l0.08,0.085c7.08,7.521,13.257,14.081,17.698,18.799
						c2.168,2.332,3.91,4.208,5.145,5.536c0.572,0.629,1.025,1.128,1.364,1.5c0.307,0.345,0.461,0.53,0.45,0.54
						c-0.011,0.011-0.188-0.154-0.516-0.478c-0.354-0.358-0.827-0.837-1.426-1.442c-1.26-1.303-3.04-3.143-5.254-5.432
						c-4.475-4.687-10.697-11.204-17.83-18.675l0.198,0.079c-3.373,0.192-6.932,0.395-10.588,0.603
						c-3.359,0.187-6.635,0.369-9.779,0.544l0.079-0.017c-5.233,2.055-10.117,3.973-14.432,5.667l0.117-0.11
						c-2.777,5.787-5.086,10.601-6.723,14.012c-0.807,1.648-1.447,2.956-1.906,3.893c-0.213,0.419-0.383,0.754-0.516,1.017
						C253.558,454.855,253.491,454.971,253.481,454.966z"/>
				</g>
			</g>
		</g>
	</g>
	<g>
		<g>
			<g>
				<polyline style="fill:#EBEBEB;" points="141.278,454.966 150.758,438.514 168.047,433.685 184.22,447.437 184.22,454.966 				
					"/>
			</g>
		</g>
		<g>
			<g>
				<polygon style="fill:#E0E0E0;" points="150.758,438.514 184.22,447.437 168.047,433.685 				"/>
			</g>
		</g>
		<g>
			<g>
				<g>
					<path style="fill:#263238;" d="M184.22,454.966c-0.016,0-0.031-0.175-0.046-0.511c-0.011-0.386-0.026-0.875-0.043-1.479
						c-0.019-1.353-0.044-3.22-0.076-5.539l0.058,0.126c-3.982-3.356-9.717-8.189-16.233-13.681l0.237,0.052
						c-1.26,0.353-2.589,0.724-3.937,1.102c-4.789,1.328-9.326,2.587-13.357,3.705l0.141-0.109
						c-2.818,4.813-5.206,8.892-6.926,11.83c-0.835,1.393-1.506,2.514-2.001,3.34c-0.219,0.351-0.399,0.639-0.547,0.876
						c-0.128,0.196-0.199,0.295-0.211,0.288c-0.011-0.007,0.038-0.118,0.144-0.327c0.13-0.246,0.289-0.546,0.483-0.912
						c0.466-0.842,1.099-1.985,1.886-3.406c1.68-2.961,4.012-7.074,6.763-11.925l0.047-0.083l0.094-0.026
						c4.027-1.132,8.56-2.407,13.344-3.752c1.349-0.376,2.678-0.747,3.938-1.098l0.133-0.037l0.104,0.089
						c6.468,5.549,12.16,10.432,16.113,13.822l0.059,0.051l-0.001,0.075c-0.032,2.319-0.057,4.186-0.076,5.539
						c-0.018,0.604-0.032,1.093-0.043,1.479C184.251,454.791,184.236,454.966,184.22,454.966z"/>
				</g>
			</g>
		</g>
	</g>
	<g>
		<g>
			<g>
				<polygon style="fill:#F5F5F5;" points="484.56,425.385 460.561,411.711 418.422,427.06 384.377,454.966 504.803,454.354 				"/>
			</g>
		</g>
		<g>
			<g>
				<polygon style="fill:#E0E0E0;" points="384.377,454.966 427.562,429.91 484.56,425.385 459.599,410.609 418.422,427.06 				"/>
			</g>
		</g>
		<g>
			<g>
				<polygon style="fill:#E0E0E0;" points="446.422,454.65 467.986,439.873 487.657,438.472 471.204,442.126 462.675,454.568 				
					"/>
			</g>
		</g>
		<g>
			<g>
				<g>
					<path style="fill:#263238;" d="M384.377,454.966c-0.004-0.005,0.046-0.055,0.149-0.147c0.121-0.105,0.272-0.237,0.463-0.404
						c0.435-0.368,1.044-0.883,1.826-1.544c1.63-1.356,3.976-3.308,6.937-5.772c5.998-4.946,14.482-11.943,24.522-20.222
						l0.027-0.023l0.034-0.014c9.04-3.671,19.258-7.82,30.04-12.198c3.772-1.527,7.474-3.026,11.077-4.485l0.119-0.048l0.11,0.066
						c9.113,5.477,17.586,10.569,24.993,15.021l0.041,0.024l0.026,0.038c6.055,8.731,11.085,15.985,14.619,21.081
						c1.734,2.527,3.101,4.518,4.051,5.902c0.449,0.667,0.799,1.186,1.052,1.562c0.235,0.355,0.342,0.548,0.342,0.548
						s-0.145-0.167-0.398-0.51c-0.266-0.367-0.634-0.874-1.105-1.525c-0.973-1.368-2.373-3.336-4.15-5.833
						c-3.571-5.071-8.653-12.288-14.77-20.975l0.067,0.062c-7.419-4.433-15.904-9.503-25.032-14.956l0.229,0.018
						c-3.602,1.461-7.304,2.962-11.075,4.491c-10.788,4.362-21.013,8.495-30.058,12.152l0.061-0.036
						c-10.089,8.219-18.614,15.165-24.642,20.076c-2.997,2.42-5.371,4.337-7.021,5.669c-0.801,0.637-1.426,1.133-1.872,1.487
						c-0.201,0.155-0.36,0.277-0.487,0.375C384.439,454.931,384.381,454.971,384.377,454.966z"/>
				</g>
			</g>
		</g>
		<g>
			<g>
				<g>
					<path style="fill:#263238;" d="M488.329,438.424c0.002,0.033-0.549,0.104-1.557,0.205c-1.091,0.098-2.536,0.227-4.296,0.385
						c-3.73,0.288-8.78,0.677-14.471,1.116l0.127-0.044c-0.758,0.52-1.557,1.069-2.368,1.625
						c-5.301,3.633-10.117,6.897-13.617,9.239c-1.704,1.126-3.108,2.055-4.16,2.75c-0.455,0.288-0.832,0.527-1.146,0.726
						c-0.265,0.161-0.409,0.239-0.419,0.224c-0.01-0.015,0.114-0.121,0.36-0.31c0.298-0.221,0.658-0.487,1.091-0.807
						c1.028-0.73,2.401-1.705,4.066-2.887c3.447-2.419,8.229-5.732,13.53-9.365c0.812-0.555,1.612-1.103,2.37-1.622l0.059-0.04
						l0.069-0.005c5.696-0.372,10.75-0.702,14.483-0.946c1.765-0.093,3.214-0.17,4.308-0.228
						C487.771,438.399,488.327,438.391,488.329,438.424z"/>
				</g>
			</g>
		</g>
	</g>
	<g>
		<g>
			<g>
				<polygon style="fill:#F5F5F5;" points="598.031,440.596 583.612,434.895 559.574,439.26 547.925,454.922 604.967,454.966 				
					"/>
			</g>
		</g>
		<g>
			<g>
				<path style="fill:#E0E0E0;" d="M559.574,439.26c0.7-0.127,38.456,1.335,38.456,1.335l-14.419-5.701L559.574,439.26z"/>
			</g>
		</g>
		<g>
			<g>
				<g>
					<path style="fill:#263238;" d="M547.925,454.922c-0.01-0.007,0.054-0.113,0.186-0.31c0.159-0.229,0.355-0.512,0.598-0.861
						c0.568-0.789,1.346-1.871,2.32-3.225c2.056-2.802,4.932-6.724,8.363-11.4l0.053-0.072l0.089-0.017
						c5.245-0.962,11.369-2.086,17.886-3.281c2.095-0.379,4.149-0.751,6.146-1.113l0.073-0.013l0.068,0.027
						c5.307,2.116,10.204,4.068,14.403,5.742l0.078,0.031l0.035,0.074c2.051,4.336,3.75,7.928,4.963,10.492
						c0.564,1.225,1.015,2.202,1.346,2.923c0.136,0.31,0.247,0.564,0.339,0.773c0.073,0.176,0.106,0.269,0.096,0.274
						c-0.01,0.005-0.062-0.079-0.155-0.246c-0.107-0.202-0.237-0.447-0.395-0.746c-0.358-0.708-0.843-1.669-1.451-2.872
						c-1.253-2.544-3.008-6.109-5.127-10.413l0.113,0.105c-4.208-1.65-9.116-3.574-14.435-5.659l0.14,0.014
						c-1.996,0.364-4.05,0.738-6.145,1.119c-6.521,1.172-12.649,2.274-17.898,3.217l0.142-0.088
						c-3.493,4.631-6.421,8.514-8.513,11.289c-1.017,1.323-1.829,2.379-2.422,3.15c-0.265,0.332-0.48,0.603-0.653,0.82
						C548.018,454.838,547.935,454.929,547.925,454.922z"/>
				</g>
			</g>
		</g>
	</g>
</g>
<g id="Floor">
	<g>
		<g>
			<g>
				<path style="fill:none;stroke:#FBFBFB;stroke-miterlimit:10;" d="M61.12,397.471"/>
			</g>
		</g>
	</g>
	<g>
		<g>
			<g>
				<path style="fill:#263238;" d="M705.104,454.966c0,0.144-150.043,0.26-335.088,0.26c-185.109,0-335.12-0.117-335.12-0.26
					c0-0.144,150.011-0.26,335.12-0.26C555.061,454.706,705.104,454.822,705.104,454.966z"/>
			</g>
		</g>
	</g>
	<g>
		<g>
			<g>
				<path style="fill:#263238;" d="M293.599,462.912c0,0.144-21.488,0.26-47.989,0.26c-26.51,0-47.994-0.117-47.994-0.26
					c0-0.144,21.484-0.26,47.994-0.26C272.111,462.652,293.599,462.769,293.599,462.912z"/>
			</g>
		</g>
	</g>
	<g>
		<g>
			<g>
				<path style="fill:#263238;" d="M258.028,469.167c0,0.144-6.784,0.26-15.151,0.26c-8.37,0-15.153-0.117-15.153-0.26
					c0-0.144,6.783-0.26,15.153-0.26C251.244,468.907,258.028,469.023,258.028,469.167z"/>
			</g>
		</g>
	</g>
</g>
</svg>
