<?xml version="1.0" encoding="utf-8"?>
<!-- Generator: Adobe Illustrator 27.5.0, SVG Export Plug-In . SVG Version: 6.00 Build 0)  -->
<svg version="1.1" xmlns="http://www.w3.org/2000/svg" xmlns:xlink="http://www.w3.org/1999/xlink" x="0px" y="0px"
	viewBox="0 0 500 500" style="enable-background:new 0 0 500 500;" xml:space="preserve">
	<g id="Shadow">
		<ellipse style="fill:#FFC051;" cx="271.791" cy="450.066" rx="206.265" ry="13.306" />
	</g>
	<g id="Floor">
		<g id="Layer-16_1_">
			<path
				style="fill:none;stroke:#263238;stroke-width:2;stroke-linecap:round;stroke-linejoin:round;stroke-miterlimit:10;"
				d="
			M25.371,370.036h30.565" />
			<path
				style="fill:none;stroke:#263238;stroke-width:2;stroke-linecap:round;stroke-linejoin:round;stroke-miterlimit:10;"
				d="
			M139.681,370.036h338.312" />

			<line
				style="fill:none;stroke:#263238;stroke-width:2;stroke-linecap:round;stroke-linejoin:round;stroke-miterlimit:10;"
				x1="120.273" y1="370.036" x2="74.489" y2="370.036" />
		</g>
	</g>
	<g id="Sparkles">
		<g>
			<g>
				<path
					style="fill:none;stroke:#263238;stroke-width:2;stroke-linecap:round;stroke-linejoin:round;stroke-miterlimit:10;"
					d="
				M440.455,125.111l-0.019,3.646" />
				<path
					style="fill:none;stroke:#263238;stroke-width:2;stroke-linecap:round;stroke-linejoin:round;stroke-miterlimit:10;"
					d="
				M440.415,132.867l-0.019,3.646" />
				<path
					style="fill:none;stroke:#263238;stroke-width:2;stroke-linecap:round;stroke-linejoin:round;stroke-miterlimit:10;"
					d="
				M446.127,130.841l-3.646-0.019" />
				<path
					style="fill:none;stroke:#263238;stroke-width:2;stroke-linecap:round;stroke-linejoin:round;stroke-miterlimit:10;"
					d="
				M438.37,130.801l-3.646-0.018" />
			</g>
			<g>
				<path
					style="fill:none;stroke:#263238;stroke-width:2;stroke-linecap:round;stroke-linejoin:round;stroke-miterlimit:10;"
					d="
				M56.955,236.582l-0.019,3.646" />
				<path
					style="fill:none;stroke:#263238;stroke-width:2;stroke-linecap:round;stroke-linejoin:round;stroke-miterlimit:10;"
					d="
				M56.915,244.338l-0.019,3.646" />
				<path
					style="fill:none;stroke:#263238;stroke-width:2;stroke-linecap:round;stroke-linejoin:round;stroke-miterlimit:10;"
					d="
				M62.627,242.312l-3.646-0.018" />
				<path
					style="fill:none;stroke:#263238;stroke-width:2;stroke-linecap:round;stroke-linejoin:round;stroke-miterlimit:10;"
					d="
				M54.87,242.273l-3.646-0.019" />
			</g>
			<g>
				<path
					style="fill:none;stroke:#263238;stroke-width:2;stroke-linecap:round;stroke-linejoin:round;stroke-miterlimit:10;"
					d="
				M191.451,60.484l-0.019,3.646" />
				<path
					style="fill:none;stroke:#263238;stroke-width:2;stroke-linecap:round;stroke-linejoin:round;stroke-miterlimit:10;"
					d="
				M191.411,68.241l-0.019,3.646" />
				<path
					style="fill:none;stroke:#263238;stroke-width:2;stroke-linecap:round;stroke-linejoin:round;stroke-miterlimit:10;"
					d="
				M197.123,66.214l-3.646-0.019" />
				<path
					style="fill:none;stroke:#263238;stroke-width:2;stroke-linecap:round;stroke-linejoin:round;stroke-miterlimit:10;"
					d="
				M189.366,66.175l-3.646-0.019" />
			</g>
		</g>
	</g>
	<g id="Shelf">
		<g>
			<path style="fill:#1D3BE2;" d="M305.639,66.364c0-1.846,1.36-3.342,3.037-3.342h59.391c1.677,0,3.037,1.496,3.037,3.342v7.859
			c0,1.846-1.36,3.342-3.037,3.342h-59.391c-1.677,0-3.037-1.496-3.037-3.342V66.364z" />
			<path
				style="fill:none;stroke:#FFFFFF;stroke-width:2;stroke-linecap:round;stroke-linejoin:round;stroke-miterlimit:10;"
				d="
			M315.184,64.611v11.433" />
			<path
				style="fill:none;stroke:#FFFFFF;stroke-width:2;stroke-linecap:round;stroke-linejoin:round;stroke-miterlimit:10;"
				d="
			M318.668,64.611v11.433" />
			<path
				style="fill:none;stroke:#FFFFFF;stroke-width:2;stroke-linecap:round;stroke-linejoin:round;stroke-miterlimit:10;"
				d="
			M358.871,64.534v11.433" />
			<path
				style="fill:none;stroke:#FFFFFF;stroke-width:2;stroke-linecap:round;stroke-linejoin:round;stroke-miterlimit:10;"
				d="
			M362.355,64.534v11.433" />
			<path style="fill:#1D3BE2;" d="M391.299,25.635c1.475-0.678,3.221-0.032,3.899,1.443l20.101,43.719
			c0.678,1.475,0.032,3.221-1.443,3.899l-5.655,2.6c-1.475,0.678-3.221,0.032-3.899-1.443l-20.101-43.719
			c-0.678-1.475-0.032-3.221,1.443-3.899L391.299,25.635z" />
			<path
				style="fill:none;stroke:#FFC051;stroke-width:2;stroke-linecap:round;stroke-linejoin:round;stroke-miterlimit:10;"
				d="
			M298.592,57.429c0-1.731,1.201-3.135,2.682-3.135h52.434c1.481,0,2.682,1.403,2.682,3.135V64.8c0,1.731-1.201,3.135-2.682,3.135
			h-52.434c-1.481,0-2.682-1.403-2.682-3.135V57.429z" />
			<path
				style="fill:none;stroke:#263238;stroke-width:2;stroke-linecap:round;stroke-linejoin:round;stroke-miterlimit:10;"
				d="
			M314.251,41.869c0-1.924,1.632-3.483,3.645-3.483h49.563c2.013,0,3.645,1.56,3.645,3.483v7.075c0,1.924-1.632,3.483-3.645,3.483
			h-49.563c-2.013,0-3.645-1.56-3.645-3.483V41.869z" />
			<g>
				<path
					style="fill:none;stroke:#263238;stroke-width:2;stroke-linecap:round;stroke-linejoin:round;stroke-miterlimit:10;"
					d="
				M323.996,38.386v14.043" />
				<path
					style="fill:none;stroke:#263238;stroke-width:2;stroke-linecap:round;stroke-linejoin:round;stroke-miterlimit:10;"
					d="
				M327.48,38.386v14.043" />
			</g>
			<g>
				<path
					style="fill:none;stroke:#263238;stroke-width:2;stroke-linecap:round;stroke-linejoin:round;stroke-miterlimit:10;"
					d="
				M358.62,38.386v14.043" />
				<path
					style="fill:none;stroke:#263238;stroke-width:2;stroke-linecap:round;stroke-linejoin:round;stroke-miterlimit:10;"
					d="
				M362.104,38.386v14.043" />
			</g>
			<path
				style="fill:none;stroke:#FFC051;stroke-width:2;stroke-linecap:round;stroke-linejoin:round;stroke-miterlimit:10;"
				d="
			M380.621,26.632c1.657-0.358,3.304,0.757,3.679,2.49l9.237,42.688c0.375,1.734-0.664,3.43-2.321,3.789l-6.093,1.318
			c-1.657,0.358-3.305-0.757-3.68-2.491l-9.236-42.688c-0.375-1.734,0.664-3.43,2.32-3.789L380.621,26.632z" />
			<path
				style="fill:none;stroke:#FFC051;stroke-width:2;stroke-linecap:round;stroke-linejoin:round;stroke-miterlimit:10;"
				d="
			M385.437,34.376l-12.095,2.617" />
			<path
				style="fill:none;stroke:#FFC051;stroke-width:2;stroke-linecap:round;stroke-linejoin:round;stroke-miterlimit:10;"
				d="
			M386.086,37.377l-12.095,2.617" />
			<path
				style="fill:none;stroke:#FFC051;stroke-width:2;stroke-linecap:round;stroke-linejoin:round;stroke-miterlimit:10;"
				d="
			M391.889,64.196l-12.095,2.617" />
			<path
				style="fill:none;stroke:#FFC051;stroke-width:2;stroke-linecap:round;stroke-linejoin:round;stroke-miterlimit:10;"
				d="
			M392.539,67.197l-12.095,2.617" />
			<path style="fill:#263238;" d="M292.973,78.964c0-0.772,0.626-1.398,1.398-1.398h134.916c0.772,0,1.398,0.626,1.398,1.398v7.579
			c0,0.772-0.626,1.398-1.398,1.398H294.371c-0.772,0-1.398-0.626-1.398-1.398V78.964z" />
			<path
				style="fill:none;stroke:#263238;stroke-width:2;stroke-linecap:round;stroke-linejoin:round;stroke-miterlimit:10;"
				d="
			M303.835,84.919l4.066,11.641" />
			<path
				style="fill:none;stroke:#263238;stroke-width:2;stroke-linecap:round;stroke-linejoin:round;stroke-miterlimit:10;"
				d="
			M416.881,84.919l4.066,11.641" />
		</g>
	</g>
	<g id="Sun">
		<path style="fill:#1D3BE2;" d="M72.311,84.465c0-13.244,10.737-23.981,23.981-23.981c13.245,0,23.981,10.737,23.981,23.981
		s-10.736,23.981-23.981,23.981C83.048,108.446,72.311,97.71,72.311,84.465z" />
	</g>
	<g id="Window">
		<g>
			<path
				style="fill:none;stroke:#FFC051;stroke-width:2;stroke-linecap:round;stroke-linejoin:round;stroke-miterlimit:10;"
				d="
			M51.224,35.002h183.254v180.217H51.224V35.002z" />
			<path
				style="fill:none;stroke:#FFC051;stroke-width:2;stroke-linecap:round;stroke-linejoin:round;stroke-miterlimit:10;"
				d="
			M51.224,204.178h183.254" />
			<path
				style="fill:none;stroke:#FFC051;stroke-width:2;stroke-linecap:round;stroke-linejoin:round;stroke-miterlimit:10;"
				d="
			M142.851,35.002v169.176" />
			<path
				style="fill:none;stroke:#FFC051;stroke-width:2;stroke-linecap:round;stroke-linejoin:round;stroke-miterlimit:10;"
				d="
			M51.224,101.879h183.329" />
		</g>
	</g>
	<g id="Plant">
		<g>
			<path style="fill:#FFC051;" d="M187.584,161.549c0,0-6.639-38.311-24.733-36.286c-10.008,1.12-11.859,12.053-5.895,19.514
			C162.92,152.238,187.584,161.549,187.584,161.549z" />
			<path style="fill:#FFC051;" d="M194.772,161.549c0,0,11.232-37.192,28.684-32.946c9.654,2.349,10.113,13.426,3.356,20.091
			C220.055,155.36,194.772,161.549,194.772,161.549z" />
			<path style="fill:#FFC051;" d="M189.917,169.729c0,0-19.115-44.973,0.136-58.3c10.648-7.372,19.471,3.052,15.997,13.756
			C201.951,137.817,189.917,169.729,189.917,169.729z" />
			<path
				style="fill:none;stroke:#263238;stroke-width:2;stroke-linecap:round;stroke-linejoin:round;stroke-miterlimit:10;"
				d="
			M192.264,133.942c-2.347,10.965-3.529,16.481-2.347,33.623" />
			<path
				style="fill:none;stroke:#263238;stroke-width:2;stroke-linecap:round;stroke-linejoin:round;stroke-miterlimit:10;"
				d="
			M191.444,168.774c-5.062-10.021-7.606-15.062-19.308-27.72" />
			<path
				style="fill:none;stroke:#263238;stroke-width:2;stroke-linecap:round;stroke-linejoin:round;stroke-miterlimit:10;"
				d="
			M212.537,144.729c-11.871,6.024-21.093,21.295-21.093,26.174" />
			<path style="fill:#1D3BE2;" d="M158.255,160.83c0.472,17.544,8.316,32.468,19.361,38.946v1.95c0,0.831,0.945,1.52,2.122,1.52
			h10.195h10.163c1.177,0,2.155-0.689,2.155-1.52v-1.95c11.044-6.479,18.856-21.402,19.329-38.946H158.255z" />
			<path
				style="fill:none;stroke:#263238;stroke-width:2;stroke-linecap:round;stroke-linejoin:round;stroke-miterlimit:10;"
				d="
			M158.255,166.024h63.325" />
		</g>
	</g>
	<g id="Table">
		<g>
			<path
				style="fill:none;stroke:#FFC051;stroke-width:2;stroke-linecap:round;stroke-linejoin:round;stroke-miterlimit:10;"
				d="
			M45,276.287h106.912v8.667H45V276.287z" />
			<path
				style="fill:none;stroke:#FFC051;stroke-width:2;stroke-linecap:round;stroke-linejoin:round;stroke-miterlimit:10;"
				d="
			M87.624,284.954L58.83,413.891h-5.508l26.85-128.937" />
			<path
				style="fill:none;stroke:#FFC051;stroke-width:2;stroke-linecap:round;stroke-linejoin:round;stroke-miterlimit:10;"
				d="
			M108.333,284.954l28.794,128.937h5.508l-26.849-128.937" />
			<path
				style="fill:none;stroke:#FFC051;stroke-width:2;stroke-linecap:round;stroke-linejoin:round;stroke-miterlimit:10;"
				d="
			M80.588,317.747h34.473" />
			<path
				style="fill:none;stroke:#FFC051;stroke-width:2;stroke-linecap:round;stroke-linejoin:round;stroke-miterlimit:10;"
				d="
			M79.295,323.449h36.762" />
		</g>
	</g>
	<g id="Mug">
		<g>
			<g>
				<path style="fill:#1D3BE2;" d="M89.541,242.283l46.352,0.222c0,0,0.463,8.678-2.442,16.963
				c-2.904,8.285-10.693,15.689-10.693,15.689l-20.629-0.077c0,0-7.247-7.272-10.361-15.612
				C88.654,251.127,89.541,242.283,89.541,242.283z" />
				<path
					style="fill:none;stroke:#1D3BE2;stroke-width:2;stroke-linecap:round;stroke-linejoin:round;stroke-miterlimit:10;"
					d="
				M132.597,250.527c9.349-5.864,20.946,0.114,7.701,10.541c-2.767,2.179-9.069,4.86-12.295,5.48" />
				<path
					style="fill:none;stroke:#FFFFFF;stroke-width:2;stroke-linecap:round;stroke-linejoin:round;stroke-miterlimit:10;"
					d="
				M91.608,248.221h41.842" />
			</g>
			<g>
				<path
					style="fill:none;stroke:#263238;stroke-width:2;stroke-linecap:round;stroke-linejoin:round;stroke-miterlimit:10;"
					d="
				M108.663,210.553c-4.213,8.425,2.449,10.684,2.943,18.582c0.254,4.064-0.949,5.797-2.48,8.86" />
				<path
					style="fill:none;stroke:#263238;stroke-width:2;stroke-linecap:round;stroke-linejoin:round;stroke-miterlimit:10;"
					d="
				M117.847,200.903c1.028,6.012-1.008,6.012-3.696,12.467c-2.588,6.211,6.148,9.264,3.484,16.192" />
			</g>
		</g>
	</g>
	<g id="Character">
		<g>
			<path
				style="fill:none;stroke:#263238;stroke-width:2;stroke-linecap:round;stroke-linejoin:round;stroke-miterlimit:10;"
				d="
			M178.288,314.793c-2.767-1.965-42.294-2.649-44.194,9.038c-2.03,12.492,30.822,28.124,36.401,29.846" />
			<path
				style="fill:none;stroke:#263238;stroke-width:2;stroke-linecap:round;stroke-linejoin:round;stroke-miterlimit:10;"
				d="
			M183.165,317.051c-2.683-1.862-40.987-2.54-42.818,8.521c-1.958,11.823,29.888,26.645,35.296,28.279" />
			<path
				style="fill:#FFFFFF;stroke:#1D3BE2;stroke-width:2;stroke-linecap:round;stroke-linejoin:round;stroke-miterlimit:10;"
				d="
			M182.075,412.634c0,0,7.881,19.906,31.325,28.222c10.687,3.79,42.421,8.279,92.82,8.103c42.33-0.147,82.717-1.268,104.995-13.589
			c47.219-26.113,87.045-238.717,23.648-258.455l-87.823,2.059L197.728,317.84L182.075,412.634z" />
			<path
				style="fill:none;stroke:#1D3BE2;stroke-width:2;stroke-linecap:round;stroke-linejoin:round;stroke-miterlimit:10;"
				d="
			M268.185,379.112c0,0,27.287-20.452,60.998-26.368c33.712-5.916,84.903-2.086,84.903-2.086" />
			<g id="Layer-9_2_">
				<path style="fill:#FFC051;" d="M292.749,287.683c0,0-102.846,2.144-115.163,16.652c-19.536,23.01-76.918,103.832-76.918,103.832
				l74.767,31.403l63.178-108.461L292.749,287.683z" />
			</g>
			<g id="Layer-9_00000076564054454746379220000007074364354545552788_">
				<path
					style="fill:none;stroke:#263238;stroke-width:2;stroke-linecap:round;stroke-linejoin:round;stroke-miterlimit:10;"
					d="
				M100.668,408.167l74.767,31.403l63.178-108.461" />
			</g>
			<g id="Layer-1_2_">
				<path style="fill:#263238;" d="M206.724,328.886c0.835-24.627,37.523-39.778,87.566-43.806
				c42.624-3.431,113.668-21.56,102.796,46.296c-4.638,28.943-49.763,31.818-99.968,32.111
				C228.087,363.889,205.889,353.512,206.724,328.886z" />
			</g>
			<g id="Layer-2_2_">
				<path style="fill:#1D3BE2;" d="M419.622,207.285c0,0,13.968,3.064,17.217-2.862c3.3-6.02-5.6-42.367-17.417-43.583
				c-20.621-2.123-73.205-2.228-110.093,11.323c-26.959,9.903-45.544,27.04-53.873,40.817
				c-18.192,30.085-27.236,78.266-27.236,78.266l82.664,2.801c0,0,2.228,21.837,47.043,19.974
				c44.815-1.864,60.546-22.322,65.066-31.279C440.843,247.361,419.622,207.285,419.622,207.285z" />
			</g>
			<g id="Layer-18_2_">
				<path style="opacity:0.2984;fill:#FFFFFF;enable-background:new    ;" d="M401.425,159.922l-0.158,4.653l-13.523-0.458
				l0.144-4.248c-0.854,0.016-1.603,0.018-2.472,0.041l-0.14,4.123l-13.492-0.457l0.103-3.03c-0.83,0.054-1.64,0.106-2.476,0.166
				l-0.094,2.78l-13.523-0.458l0.036-1.062c-0.831,0.096-1.649,0.22-2.481,0.323l-0.022,0.656l-3.56-0.121
				c-4.3,0.586-8.574,1.232-12.826,2.035l0.312,0.011l-0.457,13.492l-13.492-0.457l0.344-10.15c-0.862,0.223-1.643,0.526-2.496,0.76
				l-0.315,9.307l-13.523-0.458l0.15-4.434c-0.857,0.33-1.666,0.696-2.506,1.041l-0.112,3.31l-6.871-0.233
				c-1.548,0.749-3.039,1.526-4.518,2.317l11.306,0.383l-0.458,13.523l-13.554-0.459l0.416-12.274
				c-0.872,0.491-1.675,1.006-2.522,1.509l-0.362,10.681l-13.492-0.457l0.021-0.624c-1.215,0.986-2.349,1.977-3.478,2.977
				l0.905,0.031l-0.459,13.555l-12.774-0.433c-1.267,1.69-2.399,3.334-3.389,4.95l-0.369,10.9l-5.372-0.182
				c-0.398,0.817-0.79,1.602-1.177,2.431l6.465,0.219l-0.458,13.523l-11.649-0.395c-0.312,0.817-0.562,1.625-0.864,2.441
				l12.43,0.421l-0.458,13.523l-13.523-0.458l0.344-10.15c-0.949,2.673-1.897,5.304-2.738,7.912l-0.073,2.155l-0.593-0.02
				c-0.26,0.827-0.491,1.632-0.74,2.445l1.249,0.042l-0.457,13.492l-4.528-0.153c-0.227,0.87-0.405,1.623-0.614,2.45l5.059,0.171
				l-0.458,13.523l-7.901-0.268c-0.195,0.937-0.432,2.002-0.52,2.453l8.338,0.283l-0.07,2.061l2.468,0.084l0.07-2.061l13.523,0.458
				l-0.07,2.061l2.468,0.084l0.07-2.061l13.523,0.458l-0.07,2.061l2.468,0.084l0.07-2.061l13.492,0.457l-0.07,2.061l2.468,0.084
				l0.07-2.061l13.554,0.459l-0.07,2.061l2.468,0.084l0.07-2.061l13.523,0.458l-0.387,11.431c0.705,0.683,1.507,1.343,2.402,2.02
				l0.453-13.367l13.492,0.457l-0.459,13.554l-13.148-0.445c1.205,0.886,2.363,1.786,3.945,2.604l9.12,0.309l-0.104,3.061
				c0.768,0.202,1.628,0.341,2.453,0.52l0.119-3.498l13.523,0.458l-0.159,4.685c0.82,0.034,1.61,0.1,2.467,0.115l0.16-4.716
				l13.523,0.458l-0.12,3.529c0.839-0.074,1.662-0.141,2.478-0.228l0.109-3.217l13.492,0.457l-0.02,0.594
				c3.505-0.805,6.796-1.693,9.785-2.733l-7.214-0.245l0.459-13.554l13.523,0.458l-0.371,10.963c0.905-0.404,1.661-0.839,2.513-1.26
				l0.326-9.62l13.554,0.459c0.956-0.857,1.742-1.696,2.556-2.54l0.453-13.367l8.401,0.285c0.357-0.809,0.731-1.622,1.052-2.435
				l-9.37-0.317l0.457-13.492l12.618,0.428c0.139-0.821,0.255-1.64,0.365-2.458l-12.899-0.437l0.458-13.523l13.086,0.443
				c-0.031-0.831-0.111-1.657-0.166-2.476l-12.836-0.435l0.458-13.523l10.525,0.357c-0.19-0.9-0.429-1.626-0.635-2.492l-9.806-0.332
				l0.457-13.492l5.216,0.177c-0.404-1.063-0.583-1.623-0.948-2.502l-4.185-0.142l0.459-13.555l13.492,0.457l-0.251,7.403
				c0.909-0.211,1.742-0.455,2.499-0.854l0.219-6.465l2.935,0.099c0.004-0.722-0.076-1.635-0.135-2.475l-2.717-0.092l0.419-12.367
				c-0.64-2.369-1.376-4.687-2.233-7.018l-0.112,3.31l-13.492-0.457l0.457-13.492l8.276,0.28c-0.632-0.993-1.334-1.717-2.009-2.538
				l-6.184-0.21l0.143-4.217c-0.158-0.029-0.305-0.124-0.465-0.141c-0.496-0.051-1.464-0.051-1.998-0.099l-0.148,4.372
				l-13.554-0.459l0.156-4.591C402.97,160.04,402.385,159.943,401.425,159.922z M339.719,164.959l13.523,0.458l-0.457,13.492
				l-13.523-0.458L339.719,164.959z M355.71,165.501l13.523,0.458l-0.457,13.492l-13.523-0.458L355.71,165.501z M371.701,166.043
				l13.492,0.457l-0.457,13.492l-13.492-0.457L371.701,166.043z M387.66,166.584l13.523,0.458l-0.457,13.492l-13.523-0.458
				L387.66,166.584z M403.651,167.126l13.554,0.459l-0.457,13.492l-13.554-0.459L403.651,167.126z M307.228,179.836l13.523,0.458
				l-0.458,13.523l-13.523-0.458L307.228,179.836z M323.219,180.378l13.492,0.457l-0.458,13.523l-13.492-0.457L323.219,180.378z
				 M339.178,180.919l13.523,0.458l-0.458,13.523l-13.523-0.458L339.178,180.919z M355.169,181.461l13.523,0.458l-0.458,13.523
				l-13.523-0.458L355.169,181.461z M371.16,182.003l13.492,0.457l-0.458,13.523l-13.492-0.457L371.16,182.003z M387.12,182.544
				l13.523,0.458l-0.458,13.523l-13.523-0.458L387.12,182.544z M403.111,183.086l13.554,0.459l-0.458,13.523l-13.554-0.459
				L403.111,183.086z M419.132,183.629l13.492,0.457l-0.458,13.523l-13.492-0.457L419.132,183.629z M274.704,194.743l13.492,0.457
				l-0.459,13.555l-13.492-0.457L274.704,194.743z M290.664,195.284l13.554,0.459l-0.459,13.555l-13.554-0.459L290.664,195.284z
				 M306.686,195.827l13.523,0.458l-0.459,13.555l-13.523-0.458L306.686,195.827z M322.677,196.369l13.492,0.457l-0.459,13.555
				l-13.492-0.457L322.677,196.369z M338.636,196.91l13.523,0.458l-0.459,13.555l-13.523-0.458L338.636,196.91z M354.627,197.452
				l13.523,0.458l-0.459,13.555l-13.523-0.458L354.627,197.452z M370.618,197.994l13.492,0.457l-0.459,13.555l-13.492-0.457
				L370.618,197.994z M386.578,198.535l13.523,0.458l-0.459,13.555l-13.523-0.458L386.578,198.535z M402.569,199.077l13.554,0.459
				l-0.459,13.555l-13.554-0.459L402.569,199.077z M258.17,210.223l13.523,0.458l-0.457,13.492l-13.523-0.458L258.17,210.223z
				 M274.161,210.765l13.492,0.457l-0.457,13.492l-13.492-0.457L274.161,210.765z M290.121,211.306l13.554,0.459l-0.457,13.492
				l-13.554-0.459L290.121,211.306z M306.143,211.849l13.523,0.458l-0.457,13.492l-13.523-0.458L306.143,211.849z M322.134,212.391
				l13.492,0.457l-0.457,13.492l-13.492-0.457L322.134,212.391z M338.093,212.932l13.523,0.458l-0.457,13.492l-13.523-0.458
				L338.093,212.932z M354.084,213.474l13.523,0.458l-0.457,13.492l-13.523-0.458L354.084,213.474z M370.075,214.016l13.492,0.457
				l-0.457,13.492l-13.492-0.457L370.075,214.016z M386.035,214.556l13.523,0.458l-0.457,13.492l-13.523-0.458L386.035,214.556z
				 M402.026,215.098l13.554,0.459l-0.457,13.492l-13.554-0.459L402.026,215.098z M257.629,226.183l13.523,0.458l-0.458,13.523
				l-13.523-0.458L257.629,226.183z M273.62,226.725l13.492,0.457l-0.458,13.523l-13.492-0.457L273.62,226.725z M289.58,227.266
				l13.554,0.459l-0.458,13.523l-13.554-0.459L289.58,227.266z M305.602,227.809l13.523,0.458l-0.458,13.523l-13.523-0.458
				L305.602,227.809z M321.593,228.351l13.492,0.457l-0.458,13.523l-13.492-0.457L321.593,228.351z M337.553,228.891l13.523,0.458
				l-0.458,13.523l-13.523-0.458L337.553,228.891z M353.543,229.433l13.523,0.458l-0.458,13.523l-13.523-0.458L353.543,229.433z
				 M369.534,229.975l13.492,0.457l-0.458,13.523l-13.492-0.457L369.534,229.975z M385.494,230.516l13.523,0.458l-0.458,13.523
				l-13.523-0.458L385.494,230.516z M401.485,231.058l13.554,0.459l-0.458,13.523l-13.554-0.459L401.485,231.058z M257.088,242.174
				l13.523,0.458l-0.458,13.523l-13.523-0.458L257.088,242.174z M273.078,242.716l13.492,0.457l-0.458,13.523l-13.492-0.457
				L273.078,242.716z M289.038,243.257l13.554,0.459l-0.458,13.523l-13.554-0.459L289.038,243.257z M305.06,243.8l13.523,0.458
				l-0.458,13.523l-13.523-0.458L305.06,243.8z M321.051,244.342l13.492,0.457l-0.458,13.523l-13.492-0.457L321.051,244.342z
				 M337.011,244.882l13.523,0.458l-0.458,13.523l-13.523-0.458L337.011,244.882z M353.001,245.424l13.523,0.458l-0.458,13.523
				l-13.523-0.458L353.001,245.424z M368.992,245.966l13.492,0.457l-0.458,13.523l-13.492-0.457L368.992,245.966z M384.952,246.507
				l13.523,0.458l-0.458,13.523l-13.523-0.458L384.952,246.507z M400.943,247.049l13.554,0.459l-0.458,13.523l-13.554-0.459
				L400.943,247.049z M240.555,257.623l13.523,0.458l-0.457,13.492l-13.523-0.458L240.555,257.623z M256.546,258.165l13.523,0.458
				l-0.457,13.492l-13.523-0.458L256.546,258.165z M272.536,258.707l13.492,0.457l-0.457,13.492l-13.492-0.457L272.536,258.707z
				 M288.496,259.247l13.554,0.459l-0.457,13.492l-13.554-0.459L288.496,259.247z M304.518,259.79l13.523,0.458l-0.457,13.492
				l-13.523-0.458L304.518,259.79z M320.509,260.332l13.492,0.457l-0.457,13.492l-13.492-0.457L320.509,260.332z M336.469,260.873
				l13.523,0.458l-0.457,13.492l-13.523-0.458L336.469,260.873z M352.46,261.415l13.523,0.458l-0.457,13.492l-13.523-0.458
				L352.46,261.415z M368.45,261.957l13.492,0.457l-0.457,13.492l-13.492-0.457L368.45,261.957z M384.41,262.498l13.523,0.458
				l-0.457,13.492l-13.523-0.458L384.41,262.498z M400.401,263.04l13.554,0.459l-0.457,13.492l-13.554-0.459L400.401,263.04z
				 M240.014,273.583l13.523,0.458l-0.458,13.523l-13.523-0.458L240.014,273.583z M256.005,274.125l13.523,0.458l-0.458,13.523
				l-13.523-0.458L256.005,274.125z M271.996,274.667l13.492,0.457l-0.458,13.523l-13.492-0.457L271.996,274.667z M287.956,275.207
				l13.554,0.459l-0.458,13.523l-13.554-0.459L287.956,275.207z M303.977,275.75l13.523,0.458l-0.458,13.523l-13.523-0.458
				L303.977,275.75z M319.968,276.292l13.492,0.457l-0.458,13.523l-13.492-0.457L319.968,276.292z M335.928,276.833l13.523,0.458
				l-0.458,13.523l-13.523-0.458L335.928,276.833z M351.919,277.375l13.523,0.458l-0.458,13.523l-13.523-0.458L351.919,277.375z
				 M367.91,277.917l13.492,0.457l-0.458,13.523l-13.492-0.457L367.91,277.917z M383.869,278.458l13.523,0.458l-0.458,13.523
				l-13.523-0.458L383.869,278.458z M399.86,279l13.554,0.459l-0.458,13.523l-13.554-0.459L399.86,279z M335.386,292.824
				l13.523,0.458l-0.459,13.554l-13.523-0.458L335.386,292.824z M351.377,293.366l13.523,0.458l-0.459,13.554l-13.523-0.458
				L351.377,293.366z M367.368,293.908l13.492,0.457l-0.459,13.554l-13.492-0.457L367.368,293.908z" />
			</g>
			<path
				style="fill:none;stroke:#FFC051;stroke-width:2;stroke-linecap:round;stroke-linejoin:round;stroke-miterlimit:10;"
				d="
			M222.416,318.677l144.984,4.913" />
			<path
				style="fill:none;stroke:#FFFFFF;stroke-width:2;stroke-linecap:round;stroke-linejoin:round;stroke-miterlimit:10;"
				d="
			M179.915,306.746l-69.625,96.362" />
			<g id="Layer-7_2_">
				<path style="fill:#FFFFFF;" d="M328.338,175.823c0.047-1.388,1.211-2.476,2.6-2.429c1.388,0.047,2.475,1.211,2.428,2.6
				c-0.047,1.388-1.211,2.476-2.599,2.429C329.378,178.376,328.291,177.211,328.338,175.823z" />
				<path style="fill:#FFFFFF;" d="M344.612,176.374c0.047-1.388,1.211-2.476,2.599-2.429c1.389,0.047,2.477,1.212,2.43,2.6
				c-0.047,1.388-1.211,2.476-2.6,2.429C345.652,178.927,344.565,177.763,344.612,176.374z" />
			</g>
			<path
				style="fill:none;stroke:#263238;stroke-width:2;stroke-linecap:round;stroke-linejoin:round;stroke-miterlimit:10;"
				d="
			M330.629,175.826c-11.482,7.875-0.484,11.683-4.128,19.187c-1.771,3.646-7.626,3.104-8.683,7.597" />
			<path
				style="fill:none;stroke:#263238;stroke-width:2;stroke-linecap:round;stroke-linejoin:round;stroke-miterlimit:10;"
				d="
			M347.269,176.188c-2.839,5.227-0.148,10.087-1.915,15.05c-1.283,3.605-4.723,5.544-6.778,8.598
			c-1.39,2.064-2.069,4.512-0.696,6.73" />
			<path
				style="fill:none;stroke:#FFFFFF;stroke-width:2;stroke-linecap:round;stroke-linejoin:round;stroke-miterlimit:10;"
				d="
			M291.201,199.515c0,0-5.748,6.358-11.673,15.738c-3.624,5.738-7.478,16.648-7.478,16.648" />
			<path
				style="fill:none;stroke:#FFFFFF;stroke-width:2;stroke-linecap:round;stroke-linejoin:round;stroke-miterlimit:10;"
				d="
			M374.763,218.864c0,0,1.025,9.789,0.183,17.635c-0.842,7.846-3.16,19.318-3.16,19.318" />
			<path
				style="fill:none;stroke:#FFFFFF;stroke-width:2;stroke-linecap:round;stroke-linejoin:round;stroke-miterlimit:10;"
				d="
			M380.652,257.668c0,0-17.863-4.69-35.064-0.181c-13.221,3.466-26.847,10.078-27.82,38.801" />
			<path
				style="fill:none;stroke:#FFFFFF;stroke-width:2;stroke-linecap:round;stroke-linejoin:round;stroke-miterlimit:10;"
				d="
			M372.586,170.531c0,0,18.868,5.879,32.72,17.993c8.131,7.109,12.727,15.29,12.727,15.29" />
			<path style="fill:#263238;" d="M376.184,165.071c1.381-1.693,39.555-0.301,39.555-0.301s8.342,9.933,1.477,11.299
			C408.938,177.715,374.837,166.723,376.184,165.071z" />
			<path style="fill:#263238;" d="M352.603,126.691c0,0-18.198,7.251-25.589,6.358c-10.004-1.208-12.445-12.198-6.31-17.211
			c5.81-4.747,10.578-2.417,18.462-0.675c3.775,0.834,9.356-3.789,14.939-2.352c6.527,1.679,6.663,8.414,6.663,8.414
			s8.75-2.534,11.22,5.342c3.242,10.344-8.652,17.757-8.652,17.757s-3.845-2.59-6.927-8.126
			C353.304,130.623,352.603,126.691,352.603,126.691z" />
			<path style="fill:#263238;" d="M343.097,137.774c1.02-0.336,2.119,0.195,2.445,1.221c0.326,1.026-0.247,2.149-1.267,2.486
			c-1.021,0.336-2.093-0.246-2.419-1.273C341.529,139.182,342.077,138.111,343.097,137.774z" />
			<path style="fill:#263238;" d="M331.602,138.277c1.02-0.337,2.119,0.194,2.445,1.221c0.327,1.026-0.247,2.149-1.267,2.484
			c-1.021,0.337-2.093-0.245-2.419-1.272C330.034,139.685,330.582,138.614,331.602,138.277z" />
			<path
				style="fill:none;stroke:#263238;stroke-width:2;stroke-linecap:round;stroke-linejoin:round;stroke-miterlimit:10;"
				d="
			M330.602,150.979c-6.494-8.048-5.302-19.892,2.662-26.455c7.966-6.563,19.688-5.359,26.182,2.689
			c6.494,8.048,5.302,19.891-2.663,26.454C348.818,160.231,337.097,159.027,330.602,150.979z" />
			<path style="fill:#1D3BE2;" d="M350.606,144.256c0.448-1.139-0.103-2.421-1.231-2.864c-1.127-0.442-2.402,0.122-2.85,1.26
			c-0.448,1.139,0.103,2.421,1.23,2.864C348.882,145.959,350.158,145.395,350.606,144.256z" />
			<path
				style="fill:none;stroke:#263238;stroke-width:2;stroke-linecap:round;stroke-linejoin:round;stroke-miterlimit:10;"
				d="
			M337.957,139.492l-3.028,7.642l4.039-0.785" />
			<path
				style="fill:none;stroke:#263238;stroke-width:2;stroke-linecap:round;stroke-linejoin:round;stroke-miterlimit:10;"
				d="
			M339.431,150.308c1.141,0.467,2.759,0.678,4.126-0.344c0.785-0.587,1.164-1.897,1.343-3.559" />
			<path
				style="fill:none;stroke:#263238;stroke-width:2;stroke-linecap:round;stroke-linejoin:round;stroke-miterlimit:10;"
				d="
			M359.702,121.7l4.916-11.325" />
			<path
				style="fill:none;stroke:#263238;stroke-width:2;stroke-linecap:round;stroke-linejoin:round;stroke-miterlimit:10;"
				d="
			M359.702,121.7l6.064-3.911l2.402-1.549" />
			<path
				style="fill:none;stroke:#263238;stroke-width:2;stroke-linecap:round;stroke-linejoin:round;stroke-miterlimit:10;"
				d="
			M158.639,432.55l-4.103,15.111c0,0-84.931,2.516-93.28-2.1c-5.627-3.112,3.272-11.56,19.324-18.645
			c11.023-4.865,27.508-11.058,27.508-11.058l1.885-3.357" />
			<path
				style="fill:none;stroke:#1D3BE2;stroke-width:2;stroke-linecap:round;stroke-linejoin:round;stroke-miterlimit:10;"
				d="
			M107.883,426.404l-14.039-12.537" />
			<path
				style="fill:none;stroke:#1D3BE2;stroke-width:2;stroke-linecap:round;stroke-linejoin:round;stroke-miterlimit:10;"
				d="
			M102.476,429.289l-14.039-12.537" />
			<path
				style="fill:none;stroke:#263238;stroke-width:2;stroke-linecap:round;stroke-linejoin:round;stroke-miterlimit:10;"
				d="
			M147.966,442.41l-81.241-0.253" />
			<path
				style="fill:none;stroke:#263238;stroke-width:2;stroke-linecap:round;stroke-linejoin:round;stroke-miterlimit:10;"
				d="
			M126.279,429.934c0.079-2.328,2.03-4.151,4.357-4.072c2.328,0.079,4.151,2.03,4.072,4.358c-0.079,2.328-2.03,4.151-4.357,4.072
			C128.023,434.213,126.2,432.262,126.279,429.934z" />
			<path style="fill:#FFFFFF;" d="M182.758,229.986c-4.447-0.151-8.191,3.547-8.352,8.289l6.939,52.619
			c-0.161,4.743,3.323,8.736,7.77,8.886c0.017,0,0.034,0.001,0.05,0.002l124.762,4.832c1.939,0.066,3.61-1.497,3.676-3.434
			l0.085-2.504c0.066-1.939-1.497-3.56-3.436-3.625l-28.675-1.576l-6.771-51.662c0.161-4.742-3.324-8.685-7.771-8.835
			L182.758,229.986z" />
			<path
				style="fill:none;stroke:#1D3BE2;stroke-width:2;stroke-linecap:round;stroke-linejoin:round;stroke-miterlimit:10;"
				d="
			M219.405,263.66c0.091-2.69,2.345-4.795,5.034-4.704c2.689,0.091,4.795,2.345,4.704,5.034c-0.091,2.689-2.345,4.795-5.034,4.704
			C221.42,268.603,219.314,266.349,219.405,263.66z" />
			<path
				style="fill:none;stroke:#1D3BE2;stroke-width:2;stroke-linecap:round;stroke-linejoin:round;stroke-miterlimit:10;"
				d="
			M191.06,289.987l86.064,2.917" />
			<path
				style="fill:none;stroke:#1D3BE2;stroke-width:2;stroke-linecap:round;stroke-linejoin:round;stroke-miterlimit:10;"
				d="
			M181.345,290.895c-0.161,4.743,3.323,8.736,7.77,8.886c0.017,0,0.034,0.001,0.05,0.002l124.762,4.832
			c1.939,0.066,3.61-1.497,3.676-3.434l0.085-2.504c0.066-1.939-1.497-3.56-3.436-3.625l-28.675-1.576l-6.771-51.662
			c0.161-4.742-3.324-8.685-7.771-8.835l-88.275-2.992c-4.447-0.151-8.191,3.547-8.352,8.289l1.902,14.424" />
			<path
				style="fill:none;stroke:#263238;stroke-width:2;stroke-linecap:round;stroke-linejoin:round;stroke-miterlimit:10;"
				d="
			M179.815,286.711c0.066-1.953-1.038-7.947-1.038-7.947s13.335,0.061,14.928-4.089c1.403-3.655-2.098-4.713-6.858-5.428
			c-4.698-0.707-8.948-0.258-8.948-0.258s2.765-0.471,7.104-0.088c4.34,0.381,9.41,2.126,9.41,2.126s4.913-6.718-5.717-9.868
			c-5.672-1.682-12.643-0.062-12.643-0.062s2.368-0.698,7.805-0.724c5.949-0.029,10.082,4.401,11.069,1.221
			c2.121-6.83-17.929-13.786-27.182-3.577c-5.649,6.232-3.626,16.171,0.025,22.965C170.49,286.043,179.576,293.742,179.815,286.711z
			" />
			<g id="Layer-4_2_">
				<path
					style="fill:none;stroke:#263238;stroke-width:2;stroke-linecap:round;stroke-linejoin:round;stroke-miterlimit:10;"
					d="
				M334.429,287.263c-12.697,2.246-20.555-8.164-20.555-8.164s-8.151,1.89-13.6,2.929c-4.274,0.814-5.669,0.66-6.662-1.177
				c-0.994-1.838,3.448-6.533,8.004-8.091c4.554-1.557,7.305-2.291,7.305-2.291s-5.235,1.253-7.767,2.288
				c-7.997,3.269-6.479,3.52-10.086,4.27c-3.131,0.651-3.825-3.787,0.809-8.276c5.706-5.529,18.243-6.169,18.243-6.169
				s-3.23-1.23-9.077-0.551c-4.294,0.5-16.047,2.966-17.102,0.269c-2.647-6.758,10.768-8.914,18.473-9.915
				c7.959-1.034,20.258,1.401,28.07,7.599c7.746,6.147,9.547,11.917,9.547,11.917" />
			</g>
			<path
				style="fill:none;stroke:#1D3BE2;stroke-width:2;stroke-linecap:round;stroke-linejoin:round;stroke-miterlimit:10;"
				d="
			M181.261,290.26" />
		</g>
		<path
			style="fill:none;stroke:#1D3BE2;stroke-width:2;stroke-linecap:round;stroke-linejoin:round;stroke-miterlimit:10;"
			d="
		M397.26,345.317c6.081-11.679,19.621-21.868,19.621-21.868" />
		<polygon style="fill:#FFC051;" points="263.101,243.398 262.74,246.684 265.242,248.844 262.006,249.516 260.725,252.564 
		259.085,249.693 255.791,249.416 258.014,246.97 257.259,243.751 260.273,245.11 	" />
		<polygon style="fill:#1D3BE2;" points="250.188,255.757 253.825,258.135 257.846,256.487 256.708,260.681 259.518,263.997 
		255.177,264.21 252.892,267.907 251.348,263.845 247.126,262.814 250.512,260.09 	" />
	</g>
	<g id="Cat">
		<g id="Layer-12_1_">
			<g>
				<path style="fill:#1D3BE2;" d="M378.759,402.715c-18.897,1.044-29.163,11.481-28.759,11.252c0.685-4.01,0.931-7.733-0.833-7.19
				c-2.944,0.907-9.965,11.494-13.396,16.816c-2.737,2.667-4.928,5.427-6.125,8.25c-2.405,3.002-4.949,6.825-4.312,10.077
				c1.046,5.337,3.013,7.463,3.013,7.463s-3.206,10.88,4.197,12.55c7.403,1.671,8.848-1.09,8.848-1.09l-2.818-4.9l8.224,1.184
				c0,0-3.855,2.904-3.126,5.198c0.728,2.295,8.865,5.622,12.666,4.253c2.993-1.077,6.379-4.702,7.978-6.493
				c4.598,0.823,9.274,1.447,13.909,1.64c24.047,1.005,46.28-12.742,46.869-26.842C425.983,413.609,409.239,401.031,378.759,402.715
				z" />
				<path
					style="fill:none;stroke:#263238;stroke-width:2;stroke-linecap:round;stroke-linejoin:round;stroke-miterlimit:10;"
					d="
				M362.278,456.223c-3.02,0.533-6.909,1.345-12.903,1.095c-3.603-0.151-26.872-1.597-23.853-19.14
				c1.177-6.841,9.583-13.676,9.583-13.676s11.361-17.982,13.866-18.351c2.506-0.368-0.795,17.355-0.795,17.355l6.526,0.115
				c0,0,10.804-17.646,13.498-16.666c2.693,0.98-2.723,20.587-2.723,20.587s9.897,5.257,9.509,14.553" />
				<path
					style="fill:none;stroke:#263238;stroke-width:2;stroke-linecap:round;stroke-linejoin:round;stroke-miterlimit:10;"
					d="
				M410.774,440.145c0,0-6.966,4.439-19.968,5.349c-9.002,0.63-18.131-5.19-24.322-1.222c-3.878,2.485-7.986,9.282-3.145,13.055
				c5.278,4.112,21.762,7.911,40.532-0.815c11.593-5.39,17.721-14.157,17.721-14.157" />
				<path
					style="fill:none;stroke:#263238;stroke-width:2;stroke-linecap:round;stroke-linejoin:round;stroke-miterlimit:10;"
					d="
				M335.73,436.76c0,0,0.858,3.4,4.387,3.863c2.967,0.39,4.792-2.942,4.792-2.942" />
				<path
					style="fill:none;stroke:#263238;stroke-width:2;stroke-linecap:round;stroke-linejoin:round;stroke-miterlimit:10;"
					d="
				M353.765,439.361c0,0,0.858,3.4,4.387,3.863c2.967,0.39,4.793-2.942,4.793-2.942" />
				<path style="fill:#263238;" d="M344.585,445.635c0.098-0.884,1.825-1.426,3.857-1.21c2.033,0.215,3.602,1.106,3.504,1.989
				c-0.098,0.884-1.824,1.425-3.857,1.21C346.056,447.409,344.487,446.518,344.585,445.635z" />
				<path
					style="fill:none;stroke:#263238;stroke-width:2;stroke-linecap:round;stroke-linejoin:round;stroke-miterlimit:10;"
					d="
				M348.266,446.024l-1.684,6.553" />
				<path
					style="fill:none;stroke:#263238;stroke-width:2;stroke-linecap:round;stroke-linejoin:round;stroke-miterlimit:10;"
					d="
				M333.78,453.697c0,0,5.53,2.104,6.729,5.611c1.2,3.506-3.786,6.514-10.533,1.11c-5.285-4.233-2.365-10.89-2.365-10.89" />
				<path
					style="fill:none;stroke:#263238;stroke-width:2;stroke-linecap:round;stroke-linejoin:round;stroke-miterlimit:10;"
					d="
				M354.074,457.365c0,0-7.956-0.317-10.11,2.926c-2.153,3.243,3.346,8.605,12.877,5.895c7.663-2.18,8.132-7.197,8.132-7.197" />
				<path
					style="fill:none;stroke:#263238;stroke-width:2;stroke-linecap:round;stroke-linejoin:round;stroke-miterlimit:10;"
					d="
				M325.352,438.471l-12.924-6.143" />
				<path
					style="fill:none;stroke:#263238;stroke-width:2;stroke-linecap:round;stroke-linejoin:round;stroke-miterlimit:10;"
					d="
				M325.396,440.771l-15.465-1.395" />
				<path
					style="fill:none;stroke:#263238;stroke-width:2;stroke-linecap:round;stroke-linejoin:round;stroke-miterlimit:10;"
					d="
				M325.005,443.428l-15.339,2.293" />
				<path
					style="fill:none;stroke:#263238;stroke-width:2;stroke-linecap:round;stroke-linejoin:round;stroke-miterlimit:10;"
					d="
				M375.018,441.327l15.445-1.51" />
				<path
					style="fill:none;stroke:#263238;stroke-width:2;stroke-linecap:round;stroke-linejoin:round;stroke-miterlimit:10;"
					d="
				M375.129,438.656l14.587-5.108" />
			</g>
		</g>
	</g>
</svg>