<?xml version="1.0" encoding="utf-8"?>
<!-- Generator: Adobe Illustrator 27.5.0, SVG Export Plug-In . SVG Version: 6.00 Build 0)  -->
<svg version="1.1" xmlns="http://www.w3.org/2000/svg" xmlns:xlink="http://www.w3.org/1999/xlink" x="0px" y="0px"
	 viewBox="0 0 500 500" style="enable-background:new 0 0 500 500;" xml:space="preserve">
<g id="BACKGROUND">
	<rect style="fill:#FFFFFF;" width="500" height="500"/>
</g>
<g id="OBJECTS">
	<g>
		<g>
			<g>
				<ellipse style="fill:#FFE7EF;" cx="105.801" cy="87.207" rx="53.431" ry="48.94"/>
				<path style="fill:#FFE7EF;" d="M62.359,385.936c0,0-25.842-36.553-28.199-78.475c-2.358-41.922,25.616-96.173,85.91-96.74
					c60.294-0.567,96.6,17.026,110.7-29.236c14.1-46.262,33.852-103.151,107.809-107.905
					c73.957-4.754,118.942,39.381,128.052,93.464c9.11,54.083,12.38,162.011-75.043,239.719l-19.312,15.85l-263.008-0.772
					C109.267,421.84,77.278,406.642,62.359,385.936z"/>
			</g>
			<g>
				<g>
					<path style="fill-rule:evenodd;clip-rule:evenodd;fill:none;stroke:#D1A2CC;stroke-miterlimit:10;" d="M464.276,269.762
						c1.245,0.649,2.382,1.455,3.389,2.388l3.621-1.289l3.404,5.373l-2.712,2.724c0.413,1.309,0.657,2.681,0.711,4.085l3.471,1.649
						l-1.393,6.206l-3.842,0.009c-0.648,1.246-1.456,2.383-2.388,3.389l1.289,3.622l-5.372,3.404l-2.724-2.712
						c-1.309,0.413-2.681,0.656-4.085,0.711l-1.648,3.471l-6.206-1.392l-0.008-3.843c-1.246-0.648-2.382-1.455-3.389-2.388
						l-3.622,1.289l-3.404-5.372l2.713-2.724c-0.413-1.309-0.656-2.681-0.711-4.085l-3.47-1.649l1.392-6.206l3.842-0.008
						c0.648-1.246,1.456-2.383,2.388-3.39l-1.289-3.622l5.372-3.404l2.724,2.713c1.309-0.413,2.681-0.657,4.085-0.711l1.648-3.471
						l6.206,1.392L464.276,269.762L464.276,269.762z M458.805,277.064c-3.676-0.825-7.326,1.487-8.151,5.164
						c-0.825,3.677,1.488,7.326,5.164,8.151c3.677,0.825,7.326-1.487,8.151-5.164C464.793,281.538,462.482,277.889,458.805,277.064z
						"/>
				</g>
				<g>
					<path style="fill-rule:evenodd;clip-rule:evenodd;fill:none;stroke:#D1A2CC;stroke-miterlimit:10;" d="M343.027,285.389
						c2.506,1.306,4.794,2.929,6.821,4.805l7.288-2.595l6.85,10.813l-5.458,5.482c0.831,2.634,1.322,5.396,1.432,8.221l6.986,3.318
						l-2.803,12.489l-7.733,0.017c-1.305,2.508-2.93,4.795-4.807,6.822l2.595,7.289l-10.811,6.85l-5.483-5.458
						c-2.634,0.831-5.395,1.32-8.222,1.43l-3.317,6.986l-12.491-2.801l-0.016-7.734c-2.508-1.305-4.794-2.929-6.821-4.806
						l-7.29,2.595l-6.85-10.813l5.46-5.482c-0.831-2.634-1.32-5.395-1.432-8.221l-6.985-3.318l2.801-12.49l7.733-0.016
						c1.305-2.508,2.929-4.796,4.807-6.822l-2.595-7.289l10.811-6.85l5.483,5.459c2.634-0.831,5.395-1.321,8.222-1.431l3.317-6.985
						l12.489,2.801L343.027,285.389L343.027,285.389z M332.016,300.086c-7.399-1.66-14.744,2.993-16.403,10.393
						c-1.66,7.4,2.994,14.743,10.393,16.403c7.4,1.66,14.744-2.993,16.404-10.393C344.068,309.089,339.416,301.746,332.016,300.086z
						"/>
				</g>
				<g>
					<g>
						<g>
							<g>
								<path style="fill-rule:evenodd;clip-rule:evenodd;fill:none;stroke:#D1A2CC;stroke-miterlimit:10;" d="M126.955,122.186
									c1.933,1.007,3.698,2.259,5.262,3.707l5.622-2.002l5.284,8.341l-4.21,4.229c0.641,2.032,1.02,4.162,1.105,6.342l5.389,2.559
									l-2.162,9.634l-5.965,0.013c-1.007,1.934-2.26,3.699-3.708,5.262l2.001,5.623l-8.339,5.284l-4.23-4.21
									c-2.032,0.641-4.162,1.019-6.342,1.103l-2.559,5.389l-9.635-2.161l-0.013-5.966c-1.935-1.007-3.698-2.259-5.262-3.707
									l-5.623,2.002l-5.284-8.341l4.212-4.229c-0.641-2.032-1.019-4.162-1.104-6.341l-5.388-2.56l2.161-9.635l5.965-0.012
									c1.007-1.935,2.26-3.7,3.708-5.263l-2.002-5.623l8.34-5.284l4.23,4.211c2.032-0.641,4.162-1.019,6.342-1.104l2.558-5.388
									l9.634,2.161L126.955,122.186L126.955,122.186z M118.46,133.523c-5.707-1.28-11.373,2.309-12.653,8.017
									c-1.281,5.708,2.31,11.373,8.017,12.654c5.709,1.28,11.373-2.309,12.654-8.017
									C127.757,140.468,124.169,134.803,118.46,133.523z"/>
							</g>
						</g>
					</g>
				</g>
				<g>
					<g>
						<g>
							<g>
								<path style="fill-rule:evenodd;clip-rule:evenodd;fill:none;stroke:#D1A2CC;stroke-miterlimit:10;" d="M155.675,253.387
									c1.538,0.801,2.942,1.798,4.186,2.949l4.473-1.592l4.204,6.636l-3.35,3.364c0.51,1.617,0.811,3.312,0.879,5.046l4.287,2.036
									l-1.72,7.664l-4.746,0.011c-0.801,1.539-1.798,2.943-2.95,4.187l1.592,4.473l-6.635,4.204l-3.365-3.35
									c-1.617,0.51-3.311,0.81-5.046,0.878l-2.036,4.287l-7.666-1.719l-0.01-4.746c-1.539-0.801-2.942-1.797-4.186-2.949
									l-4.474,1.592l-4.204-6.636l3.351-3.365c-0.51-1.616-0.81-3.311-0.879-5.045l-4.287-2.036l1.719-7.665l4.746-0.01
									c0.801-1.539,1.798-2.943,2.95-4.187l-1.592-4.473l6.635-4.204l3.365,3.351c1.616-0.51,3.311-0.811,5.046-0.879l2.036-4.287
									l7.664,1.719L155.675,253.387L155.675,253.387z M148.917,262.406c-4.541-1.019-9.048,1.837-10.067,6.378
									c-1.019,4.541,1.838,9.048,6.378,10.067c4.542,1.019,9.048-1.837,10.067-6.378
									C156.313,267.932,153.458,263.425,148.917,262.406z"/>
							</g>
						</g>
					</g>
				</g>
				<g>
					<g>
						<g>
							<g>
								<path style="fill-rule:evenodd;clip-rule:evenodd;fill:none;stroke:#D1A2CC;stroke-miterlimit:10;" d="M52,227.619
									c1.33,0.693,2.543,1.554,3.618,2.549l3.866-1.376l3.634,5.736l-2.895,2.908c0.441,1.397,0.701,2.863,0.76,4.361l3.706,1.76
									l-1.487,6.625l-4.102,0.009c-0.692,1.33-1.554,2.544-2.55,3.619l1.376,3.867l-5.735,3.634l-2.909-2.895
									c-1.397,0.441-2.862,0.7-4.361,0.759l-1.759,3.706l-6.626-1.486l-0.009-4.103c-1.33-0.692-2.543-1.554-3.619-2.549
									l-3.867,1.376l-3.634-5.736l2.896-2.908c-0.441-1.397-0.7-2.862-0.76-4.361l-3.705-1.76l1.486-6.625l4.102-0.009
									c0.692-1.33,1.554-2.544,2.55-3.619l-1.376-3.867l5.735-3.634l2.909,2.896c1.397-0.441,2.862-0.701,4.361-0.759l1.76-3.705
									l6.625,1.486L52,227.619L52,227.619z M46.158,235.415c-3.925-0.88-7.821,1.588-8.702,5.513
									c-0.881,3.925,1.589,7.821,5.513,8.702c3.926,0.88,7.821-1.588,8.702-5.513C52.552,240.191,50.084,236.295,46.158,235.415z"
									/>
							</g>
						</g>
					</g>
				</g>
				<g>
					<g>
						<g>
							<g>
								<path style="fill-rule:evenodd;clip-rule:evenodd;fill:none;stroke:#D1A2CC;stroke-miterlimit:10;" d="M421.205,156.907
									c1.329,0.693,2.543,1.554,3.618,2.549l3.866-1.376l3.634,5.736l-2.895,2.908c0.441,1.397,0.701,2.863,0.76,4.361l3.706,1.76
									l-1.487,6.625l-4.102,0.009c-0.692,1.33-1.554,2.544-2.55,3.619l1.376,3.867l-5.735,3.634l-2.909-2.895
									c-1.397,0.441-2.862,0.7-4.361,0.759l-1.759,3.706l-6.626-1.486l-0.009-4.103c-1.33-0.692-2.543-1.554-3.619-2.549
									l-3.867,1.376l-3.634-5.736l2.897-2.908c-0.441-1.397-0.701-2.862-0.76-4.361l-3.705-1.76l1.486-6.625l4.102-0.009
									c0.692-1.33,1.554-2.544,2.55-3.619l-1.377-3.867l5.735-3.634l2.909,2.896c1.397-0.441,2.862-0.701,4.361-0.759l1.76-3.705
									l6.625,1.486L421.205,156.907L421.205,156.907z M415.363,164.703c-3.925-0.88-7.821,1.588-8.702,5.513
									c-0.88,3.925,1.589,7.821,5.513,8.702c3.926,0.88,7.821-1.588,8.701-5.513C421.757,169.479,419.289,165.583,415.363,164.703
									z"/>
							</g>
						</g>
					</g>
				</g>
			</g>
		</g>
		<g>
			<g>
				<g>
					<g>
						<path style="fill:#FFFFFF;stroke:#231F20;stroke-miterlimit:10;" d="M259.167,212.988h41.569c5.009,0,9.069,4.06,9.069,9.069
							v22.725c0,4.687-3.556,8.542-8.116,9.018v13.742l-18.382-13.692h-24.139c-5.009,0-9.069-4.06-9.069-9.069v-22.725
							C250.098,217.048,254.158,212.988,259.167,212.988z"/>
					</g>
					
						<text transform="matrix(1 0 0 1 267.2964 245.5825)" style="fill:#231F20; font-family:'Montserrat-Bold'; font-size:36.4129px;">?</text>
				</g>
				<g>
					<g>
						<path style="fill:#FFFFFF;stroke:#231F20;stroke-miterlimit:10;" d="M344.083,135.532h-49.98
							c-6.022,0-10.904,4.882-10.904,10.904v27.324c0,5.635,4.275,10.27,9.759,10.843v16.523l22.102-16.462h29.024
							c6.022,0,10.904-4.882,10.904-10.904v-27.324C354.987,140.414,350.105,135.532,344.083,135.532z"/>
					</g>
					<g>
						<path d="M306.677,160.519c0,2.766-2.243,5.009-5.009,5.009c-2.766,0-5.009-2.243-5.009-5.009c0-2.766,2.243-5.009,5.009-5.009
							C304.434,155.51,306.677,157.753,306.677,160.519z"/>
						<path d="M324.102,160.519c0,2.766-2.243,5.009-5.009,5.009c-2.766,0-5.009-2.243-5.009-5.009c0-2.766,2.243-5.009,5.009-5.009
							C321.859,155.51,324.102,157.753,324.102,160.519z"/>
						<path d="M341.526,160.519c0,2.766-2.243,5.009-5.009,5.009c-2.766,0-5.009-2.243-5.009-5.009c0-2.766,2.243-5.009,5.009-5.009
							C339.284,155.51,341.526,157.753,341.526,160.519z"/>
					</g>
				</g>
			</g>
			<g>
				<g>
					<path style="fill:#231F20;" d="M26.608,421.685c3.864,0,7.727,0,11.591,0c10.421,0,20.841,0,31.261,0
						c15.449,0,30.899,0,46.348,0c18.849,0,37.698,0,56.546,0c20.573,0,41.145,0,61.718,0c20.908,0,41.815,0,62.723,0
						c19.362,0,38.723,0,58.085,0c16.42,0,32.841,0,49.261,0c11.806,0,23.611,0,35.417,0c5.576,0,11.164,0.105,16.74,0
						c0.244-0.005,0.488,0,0.732,0c0.483,0,0.483-0.75,0-0.75c-3.864,0-7.727,0-11.591,0c-10.421,0-20.841,0-31.262,0
						c-15.449,0-30.899,0-46.348,0c-18.849,0-37.698,0-56.546,0c-20.573,0-41.145,0-61.718,0c-20.908,0-41.815,0-62.723,0
						c-19.361,0-38.723,0-58.085,0c-16.42,0-32.841,0-49.261,0c-11.806,0-23.611,0-35.417,0c-5.576,0-11.165-0.105-16.74,0
						c-0.244,0.005-0.488,0-0.732,0C26.125,420.935,26.124,421.685,26.608,421.685L26.608,421.685z"/>
				</g>
			</g>
			<g>
				<g>
					<polygon style="fill:#BCB9BD;stroke:#000000;stroke-miterlimit:10;" points="82.946,393.773 82.946,421.515 198.873,421.934 
						206.313,378.3 					"/>
					<g>
						<path style="fill:#6040EC;" d="M196.683,222.06c0,0,37.381,47.021,58.005,102.518c10.424,28.051,25.264,72.672,25.264,72.672
							l-71.096,2.234l-19.781-108.27l9.349-68.223"/>
						<g>
							<path d="M196.418,222.325c3.668,4.616,7.094,9.439,10.467,14.271c8.331,11.933,16.107,24.26,23.274,36.926
								c9.292,16.422,17.582,33.46,24.167,51.155c5.447,14.638,10.56,29.403,15.624,44.177c2.115,6.169,4.213,12.345,6.296,18.525
								c0.689,2.043,1.375,4.086,2.06,6.13c0.372,1.11,0.65,2.332,1.136,3.398c0.063,0.139,0.099,0.298,0.148,0.443
								c0.121-0.158,0.241-0.316,0.362-0.475c-8.039,0.253-16.079,0.505-24.118,0.758c-12.719,0.4-25.439,0.799-38.158,1.199
								c-2.94,0.092-5.88,0.185-8.819,0.277c0.12,0.092,0.241,0.184,0.362,0.275c-0.446-2.443-0.893-4.885-1.339-7.328
								c-1.121-6.135-2.242-12.271-3.363-18.406c-1.49-8.158-2.981-16.315-4.471-24.473c-1.539-8.422-3.077-16.844-4.616-25.266
								c-1.265-6.924-2.53-13.848-3.795-20.771c-0.687-3.763-1.375-7.526-2.062-11.288c-0.043-0.233-0.107-0.474-0.13-0.71
								c0.036,0.38,0.041-0.163,0.068-0.36c0.239-1.742,0.477-3.484,0.716-5.227c0.975-7.117,1.951-14.234,2.926-21.351
								c1.144-8.35,2.288-16.699,3.433-25.049c0.7-5.106,1.4-10.212,2.099-15.318c0.034-0.248,0.068-0.497,0.102-0.745
								c0.065-0.472-0.658-0.676-0.723-0.199c-0.5,3.646-0.999,7.293-1.499,10.939c-1.098,8.012-2.196,16.025-3.294,24.037
								c-1.073,7.833-2.147,15.665-3.22,23.498c-0.338,2.47-0.677,4.939-1.015,7.409c-0.112,0.815-0.364,1.729-0.318,2.554
								c0.041,0.746,0.279,1.529,0.413,2.261c0.344,1.884,0.689,3.769,1.033,5.653c1.156,6.328,2.312,12.655,3.468,18.983
								c1.501,8.215,3.002,16.429,4.502,24.644c1.533,8.388,3.065,16.776,4.598,25.164c1.247,6.826,2.494,13.652,3.741,20.477
								c0.645,3.533,1.257,7.074,1.937,10.601c0.03,0.157,0.057,0.314,0.086,0.471c0.029,0.156,0.208,0.28,0.362,0.275
								c8.039-0.253,16.079-0.505,24.118-0.758c12.719-0.4,25.439-0.799,38.158-1.199c2.94-0.092,5.88-0.185,8.819-0.277
								c0.232-0.007,0.441-0.235,0.362-0.475c-2.611-7.85-5.266-15.687-7.937-23.517c-5.083-14.899-10.228-29.78-15.635-44.565
								c-6.352-17.37-13.982-34.156-22.853-50.385c-7.375-13.493-15.463-26.602-24.156-39.286c-2.755-4.021-5.573-7.999-8.47-11.919
								c-1.313-1.777-2.568-3.871-4.129-5.449c-0.069-0.07-0.124-0.158-0.185-0.235C196.648,221.417,196.12,221.951,196.418,222.325
								L196.418,222.325z"/>
						</g>
					</g>
					<g>
						<path style="fill:#6040EC;" d="M195.419,216.685c0,0,9.989,7.457,23.313,55.449c13.324,47.992,13.927,132.71,13.927,132.71
							H72.363c0,0,6.862-76.795,8.109-91.487c1.248-14.692,13.747-44.385,27.135-59.867c10.158-11.746,33.988-34.45,33.988-34.45
							s19.675-6.623,26.373-7.663C174.666,210.337,195.419,216.685,195.419,216.685z"/>
						<g>
							<path d="M195.229,217.009c-0.118-0.089,0.369,0.344,0.47,0.447c0.528,0.535,1.006,1.121,1.462,1.718
								c2.163,2.831,3.897,6.001,5.494,9.175c3.239,6.434,5.871,13.169,8.267,19.956c3.435,9.73,6.497,19.654,8.942,29.68
								c4.204,17.24,6.523,34.939,8.3,52.574c1.644,16.314,2.716,32.686,3.407,49.066c0.236,5.589,0.425,11.179,0.56,16.771
								c0.042,1.765,0.08,3.53,0.109,5.295c0.015,0.886-0.12,1.921,0.039,2.795c0.02,0.112,0.002,0.243,0.003,0.358
								c0.125-0.125,0.25-0.25,0.375-0.375c-5.324,0-10.649,0-15.973,0c-12.783,0-25.565,0-38.348,0c-15.455,0-30.911,0-46.366,0
								c-13.286,0-26.571,0-39.857,0c-4.405,0-8.81,0-13.215,0c-1.371,0-2.742,0-4.114,0c-0.625,0-1.548-0.176-2.152,0
								c-0.075,0.022-0.19,0-0.271,0c0.125,0.125,0.25,0.25,0.375,0.375c0.321-3.591,0.641-7.182,0.962-10.773
								c0.751-8.422,1.502-16.844,2.252-25.266c0.866-9.727,1.73-19.455,2.592-29.182c0.665-7.507,1.33-15.013,1.982-22.521
								c0.286-3.297,0.581-6.557,1.284-9.801c1.246-5.75,3.135-11.364,5.273-16.839c4.797-12.286,10.953-24.555,19.258-34.868
								c3.246-4.031,6.875-7.77,10.466-11.491c4.01-4.155,8.089-8.243,12.198-12.301c3.249-3.208,6.517-6.397,9.804-9.566
								c0.858-0.827,1.717-1.653,2.578-2.477c0.148-0.141,0.292-0.319,0.459-0.438c-0.276,0.198,0.131-0.016,0.326-0.078
								c8.229-2.605,16.447-5.696,24.941-7.335c4.18-0.807,8.685,0.27,12.775,1.135c4.431,0.937,8.82,2.086,13.172,3.338
								c0.755,0.217,1.509,0.436,2.26,0.666c0.463,0.141,0.661-0.582,0.199-0.723c-7.474-2.283-15.242-4.465-23.031-5.273
								c-4.018-0.417-7.642,0.522-11.498,1.582c-4.914,1.35-9.781,2.878-14.629,4.446c-1.452,0.469-2.902,0.944-4.349,1.427
								c-0.439,0.146-0.669,0.263-1.001,0.575c-2.226,2.09-4.404,4.234-6.592,6.364c-7.993,7.779-15.961,15.614-23.522,23.817
								c-3.748,4.066-7.205,8.305-10.249,12.928c-3.721,5.652-6.957,11.625-9.84,17.743c-2.787,5.914-5.26,11.993-7.268,18.217
								c-1.568,4.861-2.946,9.879-3.422,14.981c-0.589,6.329-1.102,12.667-1.661,18.999c-0.843,9.55-1.691,19.099-2.54,28.648
								c-0.821,9.237-1.644,18.473-2.468,27.709c-0.464,5.201-0.928,10.401-1.392,15.602c-0.022,0.252-0.045,0.504-0.068,0.756
								c-0.018,0.202,0.186,0.375,0.375,0.375c5.324,0,10.649,0,15.973,0c12.783,0,25.565,0,38.348,0c15.455,0,30.911,0,46.366,0
								c13.286,0,26.571,0,39.857,0c4.405,0,8.81,0,13.215,0c2.054,0,4.219,0.197,6.266,0c0.088-0.008,0.182,0,0.27,0
								c0.202,0,0.377-0.172,0.375-0.375c-0.05-6.964-0.275-13.931-0.538-20.89c-0.604-15.999-1.574-31.989-3.052-47.932
								c-1.65-17.802-3.834-35.643-7.671-53.121c-2.165-9.861-5.035-19.575-8.201-29.157c-2.527-7.648-5.31-15.24-8.708-22.548
								c-1.79-3.85-3.741-7.679-6.165-11.176c-0.777-1.12-1.718-2.729-2.895-3.503c-0.068-0.044-0.131-0.109-0.195-0.157
								C195.222,216.071,194.848,216.722,195.229,217.009z"/>
						</g>
					</g>
					<g>
						<g>
							<path style="fill:#FFFFFF;stroke:#000000;stroke-miterlimit:10;" d="M221.328,142.548l-14.81-3.376
								c-9.846-2.244-19.993,5.091-22.548,16.301l-5.233,22.957c-0.147,0.647-0.259,1.293-0.351,1.937
								c-0.314,0.641-0.568,1.321-0.733,2.045l-3.186,13.975l-0.177,0.779l-3.186,13.975c-1.156,5.071,2.047,10.166,7.118,11.322
								l5.875,1.339c5.071,1.156,10.166-2.047,11.322-7.118l2.819-12.368l8.564,1.952c9.846,2.244,19.993-5.091,22.548-16.301
								l5.233-22.957C237.138,155.801,231.173,144.793,221.328,142.548z"/>
							<g>
								<path d="M183.113,167.326c0,0,7.759-18.578,8.009-15.516c0.357,4.369-4.939,26.898-1.015,29.88
									c5.194,3.946,9.585-5.48,21.342-3.219c11.757,2.261,17.157,9.526,17.226,14.455c0.069,4.929-7.458,10.218-11.82,12.44
									c-5.469,2.787-18.617-1.049-18.617-1.049s-11.705-1.932-14.982-9.846C179.846,186.236,183.113,167.326,183.113,167.326z"/>
								<g>
									<g>
										<path d="M203.237,167.756c-0.42,1.844,0.733,3.679,2.577,4.1c1.844,0.42,3.679-0.734,4.099-2.577
											c0.42-1.843-0.734-3.679-2.577-4.099C205.492,164.758,203.657,165.912,203.237,167.756z"/>
										<path d="M225.204,172.249c-0.359,1.574,0.626,3.141,2.2,3.499c1.574,0.359,3.14-0.626,3.499-2.2
											c0.359-1.574-0.626-3.14-2.2-3.499C227.13,169.691,225.563,170.675,225.204,172.249z"/>
									</g>
									<g>
										<path style="fill:#FFFFFF;" d="M218.903,185.181c0,0-2.792,4.506-6.415,4.033c-3.623-0.473-5.507-5.037-5-8.148
											L218.903,185.181z"/>
										<g>
											<path d="M218.421,184.9c-0.876,1.405-2.213,2.762-3.74,3.427c-2.591,1.129-4.958-0.656-6.011-2.984
												c-0.571-1.262-0.853-2.749-0.644-4.128c-0.229,0.13-0.458,0.26-0.687,0.39c3.326,1.199,6.652,2.398,9.978,3.597
												c0.479,0.173,0.958,0.345,1.437,0.518c0.677,0.244,0.969-0.834,0.297-1.076c-3.326-1.199-6.652-2.398-9.978-3.597
												c-0.479-0.173-0.958-0.345-1.437-0.518c-0.261-0.094-0.644,0.107-0.687,0.39c-0.431,2.832,0.663,6.11,3.009,7.847
												c1.201,0.889,2.731,1.245,4.193,0.909c1.371-0.315,2.577-1.181,3.561-2.157c0.621-0.616,1.208-1.309,1.672-2.054
												C219.766,184.852,218.8,184.29,218.421,184.9z"/>
										</g>
									</g>
									<polygon style="fill:#E5809D;" points="218.915,167.818 215.641,179.03 221.823,176.96 									"/>
								</g>
							</g>
							<path d="M184.31,171.888l6.833-17.359c0,0,48.329,17.578,69.966-2.912c21.637-20.49,6.87-33.921-1.642-34.423
								c-8.512-0.503-20.78,9.066-20.78,9.066s10.001-8.648,2.742-12.028c-7.259-3.38-17.498,2.625-23.762,9.824
								c0,0-32.096-10.533-47.706,6.783c-15.61,17.316-9.834,33.442,5.768,58.566l4.463-11.046L184.31,171.888z"/>
						</g>
						<g>
							<path style="fill:#FFFFFF;" d="M161.687,167.127c-1.472,6.459,2.613,12.898,9.125,14.383
								c6.512,1.484,12.984-2.548,14.456-9.007c1.472-6.459-2.613-12.898-9.124-14.382
								C169.632,156.635,163.16,160.668,161.687,167.127z"/>
							<g>
								<g>
									<path d="M179.902,172.923c0.801-2.709,0.212-6.031-2.123-7.791c-1.245-0.939-2.778-1.347-4.304-1.533
										c-0.526-0.064-0.522,0.762,0,0.826c2.193,0.267,4.388,1.184,5.365,3.291c0.576,1.243,0.648,2.795,0.459,4.055
										c-0.047,0.313-0.103,0.63-0.193,0.934C178.954,173.214,179.751,173.432,179.902,172.923L179.902,172.923z"/>
								</g>
							</g>
							<path style="fill:none;stroke:#263238;stroke-miterlimit:10;" d="M181.918,178.436c1.619-1.558,2.815-3.586,3.35-5.934
								c0.748-3.282,0.062-6.558-1.649-9.183"/>
							<path style="fill:none;stroke:#000000;stroke-miterlimit:10;" d="M183.619,163.32c-1.656-2.54-4.272-4.47-7.475-5.2
								c-6.512-1.484-12.984,2.548-14.457,9.007c-1.472,6.459,2.613,12.898,9.125,14.383c2.01,0.458,4.016,0.391,5.872-0.111
								c0.689-0.186,1.868-0.597,2.47-0.969"/>
						</g>
					</g>
					<g>
						<g>
							<path style="fill:#FFFFFF;" d="M155.759,214.961c0,0-1.262,23.967,9.759,32.596c11.02,8.629,21.045,5.302,21.045,5.302
								s8.922-2.019,11.405-4.544c2.105-2.141,7.057-10.161,8.516-12.554c-6.746-15.851-11.065-19.077-11.065-19.077
								s-0.225-0.069-0.62-0.186c-1.965,0.897-5.153,2.562-9.111,1.948c-6.03-0.936-17.718-7.07-17.718-7.07
								c-1.294,0.201-3.076,0.612-5.105,1.142L155.759,214.961z"/>
							<g>
								<path d="M155.384,214.961c-0.152,2.939-0.009,5.915,0.248,8.843c0.496,5.648,1.555,11.4,3.985,16.56
									c2.972,6.312,8.634,10.599,15.309,12.535c3.835,1.112,7.916,1.307,11.79,0.31c4.355-1.12,9.641-2.129,12.554-5.845
									c1.88-2.399,3.519-4.998,5.149-7.57c0.718-1.134,1.443-2.267,2.13-3.42c0.271-0.455,0.322-0.531,0.161-1.028
									c-0.396-1.231-1.058-2.435-1.599-3.611c-2.232-4.859-4.683-9.939-8.184-14.04c-0.37-0.433-0.784-0.992-1.277-1.3
									c-0.975-0.61-1.934,0.212-2.846,0.594c-1.97,0.825-4.069,1.346-6.218,1.187c-3.159-0.235-6.311-1.596-9.203-2.798
									c-2.647-1.101-5.246-2.317-7.809-3.601c-0.43-0.215-0.942-0.604-1.411-0.719c-0.459-0.113-0.981,0.074-1.443,0.166
									c-1.172,0.233-2.336,0.513-3.492,0.815c-1.928,0.503-3.808,1.27-5.692,1.917c-0.626,0.215-1.252,0.43-1.878,0.645
									c-0.454,0.156-0.259,0.881,0.199,0.723c1.708-0.587,3.417-1.174,5.125-1.762c0.656-0.225,1.308-0.475,1.971-0.678
									c0.926-0.283,1.891-0.484,2.836-0.697c0.501-0.113,1.598-0.53,2.011-0.475c0.43,0.057,1.013,0.52,1.395,0.711
									c1.022,0.512,2.049,1.01,3.083,1.497c2.711,1.276,5.463,2.486,8.286,3.494c2.991,1.068,6.036,1.918,9.228,1.302
									c1.644-0.317,3.039-1.071,4.592-1.616c0.563-0.197,0.661-0.216,0.951,0.006c0.734,0.562,1.335,1.423,1.886,2.149
									c1.378,1.818,2.565,3.781,3.675,5.771c0.851,1.525,1.649,3.078,2.413,4.648c0.457,0.94,0.902,1.887,1.335,2.838
									c0.22,0.483,0.437,0.966,0.651,1.451c0.203,0.46,0.704,1.15,0.725,1.636c0.033,0.778-1.268,2.252-1.701,2.942
									c-0.831,1.323-1.672,2.639-2.533,3.942c-1.378,2.085-2.802,4.798-4.915,6.235c-2.293,1.559-5.17,2.365-7.813,3.108
									c-2.942,0.827-5.796,1.439-8.888,1.242c-6.961-0.442-14.381-4.133-18.236-10.06c-3.108-4.778-4.485-10.588-5.223-16.175
									c-0.492-3.724-0.71-7.509-0.602-11.266c0.006-0.202,0.012-0.405,0.022-0.607
									C156.158,214.479,155.408,214.48,155.384,214.961z"/>
							</g>
						</g>
						<g>
							<path style="fill:#6040EC;" d="M151.742,222.06l-5.302-3.613c0,0-7.018,4.522-7.798,8.577
								c-0.78,4.055-10.293,22.613,6.55,36.18c16.843,13.568,41.951,15.127,46.785,12.008c4.834-3.119,13.212-25.564,13.212-25.564
								l-1.176-8.277c0,0-28.723,28.644-51.803-18.35"/>
							<g>
								<path style="fill:#6040EC;" d="M188.061,260.844c8.848-5.317,17.309-13.802,21.254-18.021
									c-1.92-5.058-3.691-9.173-5.282-12.509c-3.156,7.134-15.358,21.548-16.683,21.888
									c-24.919,6.401-30.767-37.473-30.767-37.473l-10.196,2.885C147.427,251.504,175.914,268.143,188.061,260.844z"/>
								<g>
									<path d="M188.25,261.167c7.976-4.834,14.975-11.297,21.33-18.08c0.085-0.091,0.144-0.24,0.096-0.365
										c-1.623-4.262-3.363-8.479-5.319-12.599c-0.115-0.241-0.536-0.249-0.648,0c-1.492,3.319-3.659,6.353-5.803,9.276
										c-2.332,3.18-4.8,6.273-7.42,9.221c-0.804,0.904-1.616,1.816-2.506,2.637c-0.788,0.727-1.587,0.815-2.664,0.985
										c-2.931,0.464-5.945,0.193-8.704-0.919c-5.3-2.137-9.05-6.926-11.741-11.787c-2.731-4.933-4.61-10.321-6.032-15.763
										c-0.557-2.129-1.04-4.278-1.444-6.441c-0.119-0.64-0.232-1.282-0.334-1.925c-0.022-0.141-0.126-0.846-0.103-0.679
										c-0.031-0.235-0.215-0.435-0.475-0.362c-3.399,0.962-6.797,1.923-10.196,2.885c-0.154,0.044-0.281,0.197-0.275,0.362
										c0.387,11.452,4.004,22.764,11.299,31.706c5.209,6.385,12.604,12.005,20.924,13.332
										C181.629,263.192,185.238,262.947,188.25,261.167c0.415-0.245,0.038-0.894-0.379-0.648
										c-5.829,3.442-13.435,1.035-18.848-2.076c-8.176-4.699-14.379-12.481-18.047-21.088
										c-2.661-6.244-3.985-12.974-4.214-19.743c-0.092,0.121-0.184,0.241-0.275,0.362c3.399-0.962,6.797-1.923,10.196-2.885
										c-0.158-0.12-0.316-0.241-0.475-0.362c1.102,8.229,3.571,16.649,7.389,24.017c2.617,5.05,6.24,10.061,11.437,12.681
										c2.568,1.295,5.426,1.901,8.299,1.769c1.301-0.06,3.078-0.115,4.264-0.692c0.666-0.324,1.228-1.005,1.732-1.524
										c2.855-2.939,5.43-6.179,7.907-9.437c2.626-3.453,5.333-7.063,7.12-11.039c-0.216,0-0.432,0-0.648,0
										c1.52,3.2,2.91,6.459,4.212,9.753c0.22,0.557,1.069,2.074,0.883,2.564c-0.152,0.4-0.881,0.929-1.187,1.246
										c-0.96,0.996-1.934,1.977-2.923,2.944c-5.14,5.027-10.66,9.775-16.823,13.51C187.46,260.77,187.836,261.418,188.25,261.167
										z"/>
								</g>
							</g>
						</g>
						<g>
							<g>
								<path d="M184.647,218.291c0,0-3.666,2.632-4.124,3.769c-0.457,1.137,1.444,6.523,5.045,6.368
									c3.601-0.156,7.304-2.07,7.09-4.388c-0.214-2.318-3.801-6.411-3.801-6.411S185.292,217.453,184.647,218.291z"/>
								<path d="M183.744,225.309c0,0-3.427,23.704-11.364,53.439l12.996,0.416c0,0,6.768-36.34,3.015-53.855
									C185.895,213.664,183.744,225.309,183.744,225.309z"/>
							</g>
							<g>
								<path style="fill:#FFFFFF;stroke:#000000;stroke-miterlimit:10;" d="M164.134,212.592l8.589-8.556
									c0,0,3.426,4.536,5.894,7.549c4.769,5.822,8.733,6.03,8.733,6.03l-12.982,13.606
									C174.369,231.221,165.41,222.572,164.134,212.592z"/>
								<path style="fill:#FFFFFF;stroke:#000000;stroke-miterlimit:10;" d="M187.35,217.615l6.654,14.036
									c0,0,3.223-8.629,3.847-11.956c0.624-3.327-1.471-7.225-1.471-7.225S191.613,216.575,187.35,217.615z"/>
							</g>
						</g>
					</g>
					<g>
						<g>
							<path style="fill:#EE8E01;stroke:#000000;stroke-miterlimit:10;" d="M190.95,340.783l-49.236-3.04
								c-5.756-0.355-10.135-5.31-9.779-11.066l4.44-71.915c0.355-5.756,5.31-10.135,11.066-9.779l49.236,3.04
								c5.756,0.355,10.135,5.31,9.779,11.066l-4.441,71.915C201.661,336.76,196.706,341.138,190.95,340.783z"/>
							<g>
								<path style="fill:#928C96;stroke:#000000;stroke-miterlimit:10;" d="M172.66,236.775c-4.255-0.263-7.918,2.974-8.181,7.229
									c-0.263,4.255,2.974,7.918,7.229,8.181c4.256,0.263,7.918-2.974,8.181-7.229
									C180.152,240.701,176.915,237.038,172.66,236.775z M171.924,248.688c-2.324-0.143-4.091-2.143-3.947-4.467
									c0.143-2.324,2.143-4.091,4.467-3.948c2.324,0.144,4.091,2.144,3.948,4.467
									C176.248,247.064,174.248,248.831,171.924,248.688z"/>
								<path style="fill:#928C96;stroke:#000000;stroke-miterlimit:10;" d="M183.945,254.639l-24.682-1.524
									c-2.755-0.17-4.85-2.541-4.68-5.296l0,0c0.17-2.755,2.541-4.85,5.296-4.68l24.682,1.524c2.755,0.17,4.85,2.541,4.68,5.296
									l0,0C189.071,252.714,186.7,254.809,183.945,254.639z"/>
							</g>
						</g>
						<g>
							<g>
								<path style="fill:#FFFFFF;" d="M155.143,301.463l-1.479-4.786l21.117-8.596l19.466-7.769c0,0,4.318-2.017,6.489-0.689
									c2.17,1.328,0.487,2.824,0.31,3.283c-0.177,0.458-5.71,4.726-5.71,4.726l-2.119,1.557l10.458-3.249l1.507-0.553l0.206-3.858
									l0.107-3.072c0,0-0.294-0.245,0,0c1.57,1.309,4.234,9.231,4.095,9.662c-0.432,1.338-0.899,2.387-0.899,2.387
									s0.065,0.176,0.843,1.693c0.933,1.821-0.532,3.917-0.532,3.917l-1.005,0.826c0,0,0.195,0.13,1.02,1.042
									c0.825,0.913,0.302,2.889-0.535,3.73c-0.837,0.841-1.139,0.916-1.139,0.916s1.247-0.035,1.121,1.318
									c-0.126,1.353,0.006,1.745-2.102,3.979c-2.108,2.235-6.813,3.872-8.408,4.812c-1.595,0.94-12.27,3.806-12.27,3.806
									l-19.659,4.573l-3.142,0.596C162.885,321.715,155.384,304.17,155.143,301.463z"/>
								<path style="fill:none;stroke:#000000;stroke-miterlimit:10;" d="M205.2,277.802c0,0,3.355,5.721,3.997,9.237
									c0.576,3.154-1.227,3.766-3.986,5.156c-2.432,1.225-11.153,3.889-11.153,3.889"/>
								<path style="fill:none;stroke:#000000;stroke-miterlimit:10;" d="M196.683,301.336c0,0,8.255-2.48,10.995-4.131
									c2.916-1.756,2.241-7.433,0.157-6.42"/>
								<path style="fill:none;stroke:#000000;stroke-miterlimit:10;" d="M208.359,296.656c0,0,1.195,1.334,0.652,3.41
									c-0.565,2.16-1.187,2.781-10.138,7.18"/>
								<path style="fill:none;stroke:#000000;stroke-miterlimit:10;" d="M207.582,302.465c0,0,4.097,1.711-3.811,7.458
									c-7.002,5.089-38.677,11.509-40.618,11.717c-1.94,0.208-9.489-24.964-9.489-24.964s32.132-13.125,39.221-15.866
									c7.089-2.741,9.069-1.47,8.719,1.07c-0.295,2.141-9.583,7.775-9.583,7.775l13.451-4.347"/>
							</g>
						</g>
						<g>
							<path style="fill:#6040EC;" d="M137.083,220.133c0,0,4.974-1.23,5.903-1.507c0.93-0.277,0.647,9.805,0.647,9.805
								l-14.191,36.333c0,0-4.502,6.309-7.419,9.937c-2.917,3.628-12.267,15.964-12.267,15.964l-2.338,3.315l-0.576,0.839
								l-1.055,0.796l34.349-4.039l9.268-1.183l3.119,38.78l-0.13,5.614c0,0-18.716,7.491-25.338,9.602
								c-6.622,2.111-18.518,5.852-29.079,7.092c-10.562,1.24-18.279,1.338-26.389,0.178c-8.111-1.16-19.012-3.262-26.895-12.367
								c-7.883-9.105-7.155-20.968-5.491-30.086c1.663-9.118,8.23-28.724,22.803-43.483c14.573-14.759,28.981-25.012,41.141-31.017
								C115.303,228.7,132.944,221.173,137.083,220.133z"/>
							<g>
								<g>
									<g>
										<path d="M164.034,212.23c-7.65,2.165-15.309,4.295-22.928,6.564c-4.531,1.349-9.011,2.714-13.441,4.376
											c-9.355,3.51-18.461,7.721-27.198,12.566c-11.937,6.62-23.273,14.499-33.13,23.971
											c-10.737,10.317-19.473,22.558-24.719,36.549c-4.214,11.24-7.394,24.733-2.519,36.3c3.624,8.6,11.441,14.052,20.07,16.925
											c9.689,3.226,20.228,3.715,30.35,3.076c10.944-0.691,21.47-3.015,31.913-6.286c13.617-4.265,27.174-9.366,39.806-16.057
											c0.58-0.307,1.161-0.616,1.73-0.943c0.107-0.062,0.196-0.196,0.186-0.324c-0.912-11.739-1.825-23.479-2.737-35.218
											c-0.128-1.645-0.256-3.289-0.383-4.934c-0.021-0.266-0.222-0.398-0.475-0.362c-6.056,0.861-12.118,1.676-18.182,2.473
											c-11.513,1.513-23.038,2.962-34.591,4.134c-5.209,0.528-10.433,1.036-15.667,1.238c-0.481,0.019-0.483,0.769,0,0.75
											c10.434-0.403,20.858-1.736,31.217-2.974c10.328-1.234,20.642-2.583,30.946-3.997c2.159-0.296,4.318-0.594,6.476-0.901
											c-0.158-0.12-0.316-0.241-0.475-0.362c0.791,10.181,1.583,20.363,2.374,30.544c0.187,2.402,0.373,4.805,0.56,7.207
											c0.05,0.641,0.038,1.325,0.152,1.958c0.02,0.112-0.017,0.288,0.03,0.393c0.041,0.089,0.282-0.271,0.138-0.244
											c-0.312,0.058-0.706,0.392-0.982,0.541c-0.706,0.382-1.418,0.754-2.133,1.12c-2.537,1.301-5.113,2.528-7.71,3.706
											c-9.063,4.113-18.396,7.633-27.864,10.695c-6.782,2.193-13.595,4.197-20.618,5.443
											c-11.611,2.06-23.798,2.734-35.459,0.688c-10.462-1.836-21.371-6.339-26.764-16.064
											c-7.176-12.942-2.507-29.57,2.888-42.236c6.698-15.725,18.13-28.947,31.293-39.656
											c11.433-9.301,24.246-16.88,37.596-23.082c6.996-3.25,14.189-6.226,21.564-8.512c7.835-2.429,15.741-4.623,23.632-6.856
											c1.751-0.495,3.502-0.991,5.253-1.486C164.697,212.822,164.5,212.098,164.034,212.23L164.034,212.23z"/>
									</g>
								</g>
								<g>
									<path style="fill:#6040EC;" d="M163.778,328.947l-3.121-40.152c0,0-6.692,0.952-16.073,2.195l5.264,44.79
										C157.864,332.213,163.778,328.947,163.778,328.947z"/>
									<g>
										<path d="M164.153,328.947c-0.912-11.739-1.825-23.479-2.737-35.218c-0.128-1.645-0.256-3.289-0.383-4.934
											c-0.021-0.266-0.222-0.398-0.475-0.362c-5.32,0.756-10.646,1.475-15.973,2.182c-0.182,0.024-0.401,0.153-0.375,0.375
											c0.591,5.027,1.181,10.053,1.772,15.079c0.947,8.061,1.895,16.121,2.842,24.181c0.217,1.843,0.433,3.686,0.65,5.53
											c0.035,0.297,0.288,0.447,0.564,0.324c4.717-2.107,9.403-4.338,13.93-6.833c0.423-0.233,0.045-0.881-0.378-0.648
											c-4.527,2.495-9.213,4.727-13.93,6.833c0.188,0.108,0.376,0.216,0.564,0.324c-0.591-5.026-1.181-10.053-1.772-15.079
											c-0.947-8.061-1.894-16.121-2.842-24.182c-0.217-1.843-0.433-3.686-0.65-5.53c-0.125,0.125-0.25,0.25-0.375,0.375
											c5.394-0.715,10.786-1.443,16.173-2.208c-0.158-0.12-0.316-0.241-0.475-0.362c0.912,11.739,1.825,23.479,2.737,35.218
											c0.128,1.645,0.256,3.289,0.383,4.934C163.44,329.425,164.19,329.429,164.153,328.947z"/>
									</g>
								</g>
								<g>
									<g>
										<path d="M123.873,271.869c-6.325,7.523-12.346,15.366-17.86,23.502c-0.271,0.401,0.378,0.776,0.648,0.378
											c5.479-8.083,11.459-15.874,17.743-23.35C124.712,272.032,124.185,271.499,123.873,271.869L123.873,271.869z"/>
									</g>
								</g>
							</g>
						</g>
					</g>
					<g>
						<g>
							<path style="fill:#FFFFFF;" d="M52.677,309.422c0.571-1.35,1.198-2.675,1.886-3.969c0.69-1.298,1.454-2.55,2.057-3.893
								c0.192-0.428,0.159-0.915-0.243-1.216c-0.35-0.261-0.929-0.289-1.237,0.074c-1.017,1.195-1.766,2.536-2.462,3.934
								c-0.694,1.395-1.32,2.824-1.888,4.275c-0.185,0.472,0.165,1.044,0.598,1.218C51.814,310.016,52.474,309.901,52.677,309.422
								L52.677,309.422z"/>
						</g>
						<g>
							<path style="fill:#FFFFFF;" d="M69.951,277.683c0.853-1.212,1.705-2.423,2.557-3.635c0.412-0.586,0.825-1.173,1.237-1.759
								c0.219-0.312,0.443-0.623,0.619-0.962c0.191-0.368,0.326-0.777,0.481-1.162c0.156-0.386-0.105-0.885-0.44-1.081
								c-0.376-0.22-0.848-0.141-1.16,0.15c-0.275,0.255-0.565,0.5-0.807,0.786c-0.282,0.334-0.531,0.69-0.775,1.052
								c-0.4,0.594-0.799,1.188-1.199,1.782c-0.826,1.227-1.651,2.455-2.477,3.682c-0.333,0.495-0.111,1.281,0.408,1.555
								C68.978,278.399,69.584,278.204,69.951,277.683L69.951,277.683z"/>
						</g>
						<g>
							<path style="fill:#FFFFFF;" d="M79.796,293.818c0.526-0.776,1.051-1.552,1.577-2.328c0.258-0.382,0.517-0.763,0.776-1.145
								c0.265-0.391,0.462-0.835,0.681-1.253c0.213-0.406,0.133-0.893-0.235-1.177c-0.333-0.258-0.904-0.277-1.198,0.071
								c-0.349,0.414-0.724,0.818-1.03,1.264c-0.26,0.38-0.512,0.767-0.767,1.15c-0.529,0.792-1.057,1.584-1.586,2.376
								c-0.3,0.45-0.103,1.162,0.37,1.412C78.906,294.464,79.472,294.296,79.796,293.818L79.796,293.818z"/>
						</g>
						<g>
							<path style="fill:#FFFFFF;" d="M99.393,261.072c1.885-1.753,3.771-3.507,5.657-5.26c0.314-0.292,0.295-0.826,0-1.121
								c-0.309-0.309-0.811-0.297-1.121,0c-1.857,1.781-3.715,3.563-5.572,5.345C97.673,260.69,98.703,261.713,99.393,261.072
								L99.393,261.072z"/>
						</g>
						<g>
							<path style="fill:#FFFFFF;" d="M108.507,279.231c0.678-0.673,1.357-1.346,2.035-2.019c0.337-0.334,0.666-0.664,0.972-1.026
								c0.314-0.372,0.628-0.743,0.941-1.115c0.196-0.232,0.329-0.48,0.329-0.793c0-0.275-0.122-0.604-0.329-0.793
								c-0.479-0.44-1.107-0.405-1.587,0c-0.361,0.305-0.723,0.61-1.084,0.915c-0.373,0.315-0.714,0.652-1.057,0.999
								c-0.673,0.678-1.346,1.357-2.019,2.035c-0.469,0.473-0.507,1.332,0,1.798C107.218,279.698,108.002,279.731,108.507,279.231
								L108.507,279.231z"/>
						</g>
						<g>
							<path style="fill:#FFFFFF;" d="M128.049,250.113c1.577-1.227,3.141-2.463,4.686-3.731c0.431-0.354,0.4-1.069,0.088-1.473
								c-0.307-0.398-1.002-0.629-1.447-0.289c-1.664,1.272-3.303,2.57-4.934,3.885c-0.465,0.375-0.42,1.223,0,1.608
								c0.217,0.199,0.501,0.346,0.804,0.333C127.567,250.432,127.797,250.309,128.049,250.113L128.049,250.113z"/>
						</g>
						<g>
							<path style="fill:#FFFFFF;" d="M109.152,241.947c1.059-0.581,2.117-1.161,3.175-1.742c0.512-0.281,1.021-0.561,1.519-0.865
								c0.57-0.348,1.073-0.758,1.59-1.179c0.68-0.552-0.053-1.707-0.844-1.45c-0.642,0.208-1.255,0.423-1.864,0.717
								c-0.526,0.254-1.039,0.53-1.553,0.807c-1.062,0.574-2.125,1.148-3.187,1.722c-0.531,0.287-0.743,1.065-0.413,1.576
								C107.921,242.07,108.586,242.258,109.152,241.947L109.152,241.947z"/>
						</g>
						<g>
							<path style="fill:#FFFFFF;" d="M135.961,233.506c1.544-0.651,3.065-1.349,4.552-2.121c0.702-0.364,1.398-0.743,2.085-1.135
								c0.761-0.434,1.397-1.006,2.052-1.585c0.556-0.492-0.032-1.6-0.757-1.3c-0.751,0.31-1.524,0.567-2.229,0.972
								c-0.686,0.394-1.38,0.774-2.082,1.141c-1.368,0.714-2.764,1.38-4.185,1.979c-0.528,0.223-0.908,0.702-0.742,1.307
								C134.792,233.262,135.429,233.731,135.961,233.506L135.961,233.506z"/>
						</g>
						<g>
							<path style="fill:#FFFFFF;" d="M125.307,287.066c0.533-0.38,1.065-0.761,1.598-1.141c0.326-0.233,0.625-0.498,0.928-0.76
								c0.271-0.235,0.48-0.592,0.695-0.881c0.19-0.255,0.114-0.668-0.063-0.897c-0.188-0.243-0.543-0.392-0.849-0.289
								c-0.354,0.119-0.744,0.214-1.065,0.406c-0.271,0.163-0.548,0.317-0.802,0.504c-0.52,0.382-1.039,0.765-1.559,1.147
								c-0.24,0.176-0.427,0.364-0.509,0.661c-0.073,0.265-0.04,0.618,0.112,0.853c0.152,0.236,0.379,0.444,0.662,0.509
								C124.729,287.24,125.068,287.237,125.307,287.066L125.307,287.066z"/>
						</g>
						<g>
							<path style="fill:#FFFFFF;" d="M76.481,319.781c0.722-1.044,1.444-2.087,2.166-3.131c0.354-0.512,0.73-1.014,1.049-1.549
								c0.329-0.552,0.658-1.105,0.987-1.658c0.235-0.394,0.125-0.925-0.239-1.196c-0.335-0.251-0.926-0.294-1.218,0.073
								c-0.833,1.046-1.644,2.092-2.404,3.192c-0.734,1.061-1.467,2.122-2.201,3.182c-0.321,0.465-0.101,1.216,0.386,1.474
								C75.556,320.458,76.138,320.277,76.481,319.781L76.481,319.781z"/>
						</g>
						<g>
							<path style="fill:#FFFFFF;" d="M57.625,333.459c0.688-0.736,1.38-1.469,2.063-2.209c0.332-0.36,0.624-0.763,0.929-1.146
								c0.362-0.453,0.614-0.957,0.89-1.464c0.159-0.294,0.136-0.706-0.122-0.943c-0.249-0.228-0.644-0.312-0.943-0.122
								c-0.46,0.293-0.958,0.561-1.362,0.931c-0.37,0.339-0.762,0.665-1.107,1.029c-0.692,0.732-1.375,1.473-2.063,2.209
								c-0.433,0.463-0.493,1.26,0,1.714C56.382,333.891,57.163,333.954,57.625,333.459L57.625,333.459z"/>
						</g>
						<g>
							<path style="fill:#FFFFFF;" d="M88.466,342.779c1.344-1.463,2.689-2.925,4.033-4.388c0.244-0.265,0.282-0.714,0-0.973
								c-0.267-0.246-0.71-0.28-0.973,0c-1.359,1.448-2.717,2.897-4.076,4.345c-0.257,0.274-0.292,0.747,0,1.016
								C87.727,343.033,88.195,343.074,88.466,342.779L88.466,342.779z"/>
						</g>
						<g>
							<path style="fill:#FFFFFF;" d="M103.544,317.003c1.065-1.173,2.172-2.306,3.322-3.395c0.559-0.529,1.12-1.057,1.686-1.579
								c0.593-0.547,1.09-1.208,1.63-1.807c0.747-0.828-0.196-2.158-1.215-1.574c-0.736,0.422-1.501,0.829-2.163,1.362
								c-0.634,0.511-1.246,1.048-1.841,1.604c-1.173,1.096-2.302,2.238-3.387,3.421c-0.492,0.536-0.57,1.444,0,1.967
								C102.109,317.492,103.021,317.578,103.544,317.003L103.544,317.003z"/>
						</g>
						<g>
							<path style="fill:#FFFFFF;" d="M124.409,334.12c0.9-1.105,1.801-2.211,2.701-3.316c0.959-1.178,1.8-2.45,2.674-3.692
								c0.424-0.603,0.158-1.493-0.381-1.91c-0.561-0.434-1.44-0.428-1.944,0.116c-0.95,1.023-1.944,2.019-2.819,3.107
								c-0.881,1.095-1.761,2.189-2.642,3.284c-0.293,0.365-0.499,0.719-0.499,1.206c0,0.418,0.186,0.918,0.499,1.206
								C122.621,334.692,123.807,334.858,124.409,334.12L124.409,334.12z"/>
						</g>
						<g>
							<path style="fill:#FFFFFF;" d="M137.233,307.957c0.753-0.777,1.506-1.553,2.259-2.33c0.18-0.186,0.36-0.372,0.541-0.558
								c0.25-0.258,0.451-0.545,0.651-0.842c0.298-0.443,0.596-0.886,0.894-1.328c0.234-0.348,0.152-0.915-0.154-1.196
								c-0.303-0.278-0.834-0.415-1.196-0.154c-0.419,0.301-0.838,0.603-1.257,0.904c-0.287,0.207-0.583,0.405-0.83,0.66
								c-0.191,0.197-0.382,0.394-0.573,0.591c-0.753,0.777-1.506,1.553-2.259,2.33c-0.496,0.512-0.548,1.422,0,1.925
								C135.844,308.45,136.703,308.503,137.233,307.957L137.233,307.957z"/>
						</g>
						<g>
							<path style="fill:#FFFFFF;" d="M142.63,331.753c0.32-0.376,0.639-0.752,0.959-1.127c0.075-0.088,0.151-0.177,0.226-0.265
								c0.093-0.11,0.195-0.215,0.264-0.342c0.062-0.114,0.117-0.257,0.162-0.378c0.018-0.05,0.036-0.1,0.054-0.15
								c0.079-0.22,0.145-0.437,0.201-0.664c0.103-0.419-0.038-0.852-0.381-1.116c-0.153-0.118-0.311-0.183-0.502-0.209
								c-0.094-0.025-0.188-0.025-0.282,0c-0.141,0.006-0.273,0.048-0.395,0.126c-0.208,0.093-0.407,0.193-0.605,0.306
								c-0.195,0.111-0.397,0.228-0.545,0.398c-0.081,0.093-0.157,0.191-0.236,0.286c-0.31,0.376-0.619,0.751-0.929,1.127
								c-0.139,0.129-0.236,0.281-0.294,0.457c-0.089,0.169-0.13,0.352-0.122,0.547c0,0.349,0.155,0.765,0.416,1.005
								c0.271,0.249,0.626,0.433,1.005,0.416C141.985,332.153,142.389,332.037,142.63,331.753L142.63,331.753z"/>
						</g>
						<g>
							<path style="fill:#FFFFFF;" d="M87.601,365.122c0.462-0.643,0.924-1.287,1.387-1.93c0.493-0.686,0.734-1.534,1.018-2.321
								c0.126-0.351-0.081-0.825-0.406-0.997c-0.376-0.199-0.748-0.117-1.069,0.138c-0.313,0.249-0.63,0.492-0.938,0.746
								c-0.367,0.303-0.679,0.675-0.956,1.059c-0.462,0.643-0.924,1.287-1.387,1.93c-0.195,0.271-0.222,0.74-0.137,1.049
								c0.087,0.316,0.331,0.658,0.626,0.814c0.316,0.167,0.699,0.251,1.049,0.137C87.142,365.633,87.384,365.425,87.601,365.122
								L87.601,365.122z"/>
						</g>
						<g>
							<path style="fill:#FFFFFF;" d="M114.414,357.936c0.478-0.721,0.962-1.438,1.435-2.162c0.231-0.354,0.421-0.74,0.627-1.11
								c0.214-0.384,0.427-0.767,0.64-1.151c0.299-0.537,0.17-1.207-0.316-1.582c-0.435-0.336-1.234-0.386-1.611,0.096
								c-0.276,0.353-0.552,0.706-0.828,1.059c-0.315,0.403-0.654,0.797-0.943,1.218c-0.498,0.724-0.973,1.466-1.459,2.198
								c-0.412,0.621-0.142,1.6,0.51,1.944C113.183,358.823,113.974,358.599,114.414,357.936L114.414,357.936z"/>
						</g>
						<g>
							<path style="fill:#FFFFFF;" d="M100.293,375.665c0.323-0.525,0.646-1.05,0.969-1.575c0.163-0.265,0.313-0.528,0.45-0.807
								c0.175-0.357,0.291-0.722,0.407-1.1c0.142-0.462-0.09-1.055-0.522-1.284c-0.455-0.24-1.001-0.184-1.378,0.178
								c-0.115,0.111-0.231,0.222-0.346,0.332c-0.169,0.162-0.303,0.353-0.443,0.539c-0.188,0.249-0.355,0.502-0.519,0.768
								c-0.323,0.525-0.646,1.05-0.969,1.575c-0.374,0.607-0.151,1.524,0.488,1.862C99.096,376.505,99.894,376.314,100.293,375.665
								L100.293,375.665z"/>
						</g>
						<g>
							<path style="fill:#FFFFFF;" d="M103.401,394.812c0.434-0.68,0.867-1.361,1.301-2.041c0.213-0.335,0.426-0.669,0.64-1.004
								c0.239-0.376,0.361-0.853,0.515-1.271c0.118-0.32-0.076-0.756-0.371-0.912c-0.316-0.167-0.721-0.137-0.979,0.126
								c-0.311,0.318-0.655,0.623-0.9,0.997c-0.224,0.343-0.435,0.695-0.652,1.042c-0.428,0.684-0.856,1.367-1.284,2.051
								c-0.279,0.445-0.109,1.124,0.36,1.371C102.525,395.434,103.1,395.285,103.401,394.812L103.401,394.812z"/>
						</g>
						<g>
							<path style="fill:#FFFFFF;" d="M126.043,371.532c0.52-0.728,1.04-1.456,1.56-2.183c0.16-0.224,0.183-0.609,0.113-0.864
								c-0.072-0.26-0.273-0.542-0.516-0.671c-0.26-0.138-0.576-0.207-0.865-0.113c-0.089,0.038-0.179,0.075-0.268,0.113
								c-0.169,0.1-0.303,0.234-0.402,0.402c-0.52,0.728-1.04,1.456-1.56,2.183c-0.16,0.224-0.184,0.609-0.113,0.865
								c0.072,0.26,0.273,0.542,0.515,0.671c0.26,0.138,0.576,0.207,0.865,0.113c0.089-0.038,0.179-0.075,0.268-0.113
								C125.809,371.835,125.943,371.701,126.043,371.532L126.043,371.532z"/>
						</g>
						<g>
							<path style="fill:#FFFFFF;" d="M132.761,393.775c0.545-0.889,1.09-1.779,1.635-2.669c0.139-0.226,0.277-0.452,0.416-0.678
								c0.173-0.282,0.29-0.588,0.416-0.893c0.197-0.477,0.395-0.955,0.592-1.432c0.18-0.435-0.117-1.056-0.516-1.267
								c-0.404-0.214-1.049-0.222-1.36,0.175c-0.318,0.407-0.637,0.814-0.956,1.22c-0.203,0.259-0.41,0.509-0.57,0.798
								c-0.129,0.232-0.257,0.464-0.386,0.696c-0.506,0.912-1.012,1.824-1.519,2.736c-0.33,0.595-0.164,1.447,0.467,1.781
								C131.615,394.578,132.381,394.396,132.761,393.775L132.761,393.775z"/>
						</g>
						<g>
							<path style="fill:#FFFFFF;" d="M151.779,356.029c0.578-0.88,1.157-1.759,1.735-2.639c0.578-0.88,1.096-1.793,1.624-2.704
								c0.322-0.556,0.147-1.368-0.44-1.678c-0.637-0.337-1.273-0.115-1.678,0.44c-0.623,0.854-1.251,1.699-1.825,2.586
								c-0.572,0.884-1.143,1.767-1.715,2.651c-0.379,0.586-0.138,1.496,0.478,1.822
								C150.624,356.859,151.37,356.652,151.779,356.029L151.779,356.029z"/>
						</g>
						<g>
							<path style="fill:#FFFFFF;" d="M155.467,380.066c0.529-1.111,1.069-2.217,1.588-3.333c0.564-1.213,0.997-2.502,1.483-3.748
								c0.144-0.368,0.039-0.978-0.17-1.302c-0.202-0.314-0.463-0.546-0.808-0.692c-0.76-0.321-1.691-0.045-2.111,0.692
								c-0.594,1.043-1.246,2.072-1.78,3.146c-0.537,1.083-1.04,2.184-1.56,3.275c-0.229,0.48-0.342,0.97-0.196,1.499
								c0.124,0.451,0.473,0.94,0.894,1.162C153.673,381.221,155,381.046,155.467,380.066L155.467,380.066z"/>
						</g>
						<g>
							<path style="fill:#FFFFFF;" d="M167.627,393.084c0.029-0.071,0.059-0.141,0.088-0.211c-0.045,0.107-0.04,0.095,0.015-0.034
								c0.061-0.14,0.122-0.28,0.183-0.42c0.108-0.244,0.219-0.487,0.332-0.73c0.242-0.519,0.496-1.033,0.759-1.541
								c0.528-1.016,1.109-2.004,1.684-2.995c0.303-0.521,0.138-1.285-0.413-1.576c-0.583-0.308-1.213-0.12-1.576,0.413
								c-1.365,2.007-2.423,4.228-3.352,6.465c-0.238,0.573,0.256,1.324,0.825,1.454
								C166.863,394.067,167.373,393.698,167.627,393.084L167.627,393.084z"/>
						</g>
						<g>
							<path style="fill:#FFFFFF;" d="M180.606,353.426c0.633-0.982,1.265-1.965,1.898-2.947c0.316-0.491,0.647-0.974,0.949-1.474
								c0.3-0.497,0.507-1.064,0.747-1.591c0.21-0.46,0.163-0.967-0.258-1.293c-0.368-0.284-0.991-0.303-1.316,0.078
								c-0.411,0.483-0.862,0.952-1.228,1.47c-0.347,0.49-0.644,1.025-0.963,1.533c-0.632,1.005-1.263,2.011-1.895,3.016
								c-0.333,0.531-0.13,1.342,0.429,1.637C179.563,354.169,180.243,353.989,180.606,353.426L180.606,353.426z"/>
						</g>
						<g>
							<path style="fill:#FFFFFF;" d="M209.108,347.751c0.525-1.007,1.05-2.014,1.575-3.021c0.254-0.487,0.505-0.974,0.744-1.468
								c0.158-0.327,0.322-0.651,0.423-1.001c0.085-0.294,0.161-0.592,0.241-0.887c0.141-0.517-0.088-1.16-0.577-1.419
								c-0.461-0.244-1.163-0.241-1.523,0.197c-0.421,0.512-0.849,1.005-1.17,1.588c-0.265,0.48-0.517,0.966-0.767,1.454
								c-0.518,1.011-1.037,2.021-1.555,3.032c-0.36,0.703-0.206,1.672,0.542,2.067C207.736,348.66,208.718,348.499,209.108,347.751
								L209.108,347.751z"/>
						</g>
						<g>
							<path style="fill:#FFFFFF;" d="M211.16,318.182c0.573-0.884,1.146-1.767,1.719-2.651c0.573-0.884,1.078-1.806,1.596-2.723
								c0.247-0.436,0.118-1.066-0.343-1.31c-0.483-0.255-1.011-0.101-1.31,0.344c-0.588,0.875-1.186,1.741-1.719,2.651
								c-0.532,0.908-1.064,1.815-1.596,2.723c-0.254,0.432-0.113,1.069,0.343,1.31C210.327,318.778,210.869,318.632,211.16,318.182
								L211.16,318.182z"/>
						</g>
						<g>
							<path style="fill:#FFFFFF;" d="M223.506,328.761c0.328-0.576,0.656-1.151,0.984-1.727c0.083-0.146,0.172-0.29,0.25-0.439
								c0.131-0.249,0.224-0.521,0.328-0.783c0.121-0.305,0.241-0.611,0.362-0.916c0.018-0.138,0.037-0.276,0.055-0.414
								c0.008-0.214-0.036-0.414-0.134-0.599c-0.126-0.299-0.342-0.588-0.637-0.744c-0.244-0.129-0.509-0.2-0.785-0.212
								c-0.34-0.015-0.883,0.176-1.1,0.456c-0.201,0.259-0.401,0.517-0.602,0.776c-0.17,0.219-0.368,0.436-0.51,0.669
								c-0.087,0.144-0.167,0.293-0.25,0.439c-0.328,0.576-0.656,1.151-0.984,1.727c-0.227,0.397-0.298,0.906-0.176,1.349
								c0.112,0.406,0.426,0.846,0.804,1.046c0.406,0.215,0.898,0.322,1.349,0.176C222.891,329.426,223.276,329.163,223.506,328.761
								L223.506,328.761z"/>
						</g>
						<g>
							<path style="fill:#FFFFFF;" d="M215.817,289.964c0.316-0.742,0.631-1.485,0.947-2.227c0.193-0.455,0.38-0.911,0.558-1.372
								c0.145-0.377,0.255-0.753,0.359-1.143c0.16-0.601-0.152-1.225-0.719-1.465c-0.574-0.242-1.222-0.023-1.55,0.508
								c-0.83,1.34-1.392,2.838-2.022,4.28c-0.157,0.359-0.25,0.689-0.142,1.083c0.09,0.326,0.342,0.68,0.646,0.84
								c0.326,0.172,0.722,0.259,1.083,0.142C215.3,290.505,215.678,290.291,215.817,289.964L215.817,289.964z"/>
						</g>
						<g>
							<path style="fill:#FFFFFF;" d="M210.069,266.759c0.267-0.528,0.534-1.055,0.802-1.583c0.129-0.255,0.258-0.509,0.387-0.764
								c0.079-0.157,0.167-0.312,0.213-0.482c0.042-0.154,0.072-0.312,0.107-0.468c0.047-0.206-0.029-0.453-0.227-0.557
								c-0.184-0.098-0.452-0.092-0.598,0.077c-0.095,0.11-0.19,0.221-0.286,0.331c-0.126,0.146-0.209,0.295-0.295,0.465
								c-0.129,0.255-0.258,0.509-0.387,0.764c-0.267,0.527-0.534,1.055-0.802,1.583c-0.148,0.293-0.087,0.695,0.225,0.86
								C209.495,267.136,209.91,267.073,210.069,266.759L210.069,266.759z"/>
						</g>
						<g>
							<path style="fill:#FFFFFF;" d="M244.132,343.924c1.138-3.538,2.313-7.057,3.273-10.648c0.192-0.718-0.241-1.495-0.961-1.693
								c-0.775-0.213-1.427,0.264-1.693,0.961c-1.326,3.477-2.438,7.022-3.59,10.561c-0.258,0.791,0.3,1.682,1.076,1.895
								C243.07,345.229,243.877,344.719,244.132,343.924L244.132,343.924z"/>
						</g>
						<g>
							<path style="fill:#FFFFFF;" d="M232.737,310.596c0.48-0.896,0.983-1.783,1.439-2.691c0.259-0.515,0.544-1.044,0.712-1.596
								c0.149-0.492,0.298-0.984,0.448-1.475c0.14-0.462-0.089-1.055-0.522-1.284c-0.414-0.219-1.056-0.221-1.378,0.178
								c-0.317,0.394-0.635,0.788-0.952,1.182c-0.366,0.454-0.655,0.949-0.939,1.457c-0.495,0.888-0.946,1.803-1.417,2.704
								c-0.366,0.7-0.202,1.674,0.542,2.067C231.372,311.509,232.338,311.34,232.737,310.596L232.737,310.596z"/>
						</g>
						<g>
							<path style="fill:#FFFFFF;" d="M243.255,314.73c0.268-0.474,0.536-0.947,0.804-1.421c0.132-0.234,0.26-0.467,0.375-0.71
								c0.15-0.316,0.259-0.636,0.368-0.967c0.127-0.385-0.081-0.891-0.44-1.081c-0.15-0.079-0.313-0.123-0.483-0.131
								c-0.214-0.01-0.538,0.109-0.677,0.28c-0.215,0.265-0.441,0.525-0.622,0.815c-0.143,0.228-0.27,0.461-0.395,0.698
								c-0.255,0.482-0.509,0.963-0.764,1.444c-0.132,0.25-0.183,0.541-0.107,0.818c0.068,0.246,0.258,0.513,0.488,0.635
								C242.305,315.377,242.962,315.246,243.255,314.73L243.255,314.73z"/>
						</g>
						<g>
							<path style="fill:#FFFFFF;" d="M229.257,285.542c0.376-1.036,0.753-2.071,1.129-3.107c0.181-0.498,0.375-0.994,0.544-1.496
								c0.185-0.548,0.261-1.107,0.345-1.677c0.078-0.531-0.088-1.03-0.615-1.253c-0.485-0.205-1.052-0.023-1.326,0.435
								c-0.331,0.552-0.633,1.089-0.868,1.69c-0.2,0.512-0.368,1.039-0.55,1.558c-0.37,1.059-0.74,2.117-1.111,3.176
								c-0.22,0.629,0.25,1.419,0.888,1.564C228.409,286.593,229.013,286.212,229.257,285.542L229.257,285.542z"/>
						</g>
					</g>
				</g>
				<g>
					<g>
						<g>
							<polygon style="fill:#FFFFFF;" points="69.78,383.659 66.937,383.659 49.237,383.659 54.042,429.55 66.937,429.55 
								69.78,429.55 82.675,429.55 87.48,383.659 							"/>
							<g>
								<path style="fill:#231F20;" d="M69.78,383.284c-6.848,0-13.695,0-20.543,0c-0.187,0-0.396,0.173-0.375,0.375
									c0.541,5.163,1.081,10.326,1.622,15.489c0.862,8.236,1.725,16.471,2.587,24.706c0.199,1.899,0.398,3.798,0.597,5.696
									c0.021,0.202,0.155,0.375,0.375,0.375c7.436,0,14.873,0,22.309,0c2.108,0,4.215,0,6.323,0c0.218,0,0.354-0.173,0.375-0.375
									c0.541-5.163,1.081-10.326,1.622-15.489c0.862-8.235,1.725-16.471,2.587-24.706c0.199-1.899,0.398-3.798,0.597-5.696
									c0.021-0.202-0.189-0.375-0.375-0.375C81.58,383.284,75.68,383.284,69.78,383.284c-0.482,0-0.483,0.75,0,0.75
									c5.9,0,11.8,0,17.7,0c-0.125-0.125-0.25-0.25-0.375-0.375c-0.541,5.163-1.081,10.326-1.622,15.489
									c-0.862,8.236-1.725,16.471-2.587,24.706c-0.199,1.899-0.398,3.798-0.597,5.696c0.125-0.125,0.25-0.25,0.375-0.375
									c-7.436,0-14.872,0-22.309,0c-2.108,0-4.216,0-6.323,0c0.125,0.125,0.25,0.25,0.375,0.375
									c-0.541-5.163-1.081-10.326-1.622-15.489c-0.862-8.235-1.725-16.471-2.587-24.706c-0.199-1.899-0.398-3.798-0.596-5.696
									c-0.125,0.125-0.25,0.25-0.375,0.375c6.848,0,13.695,0,20.543,0C70.263,384.034,70.264,383.284,69.78,383.284z"/>
							</g>
						</g>
						<g>
							<polygon style="fill:#EE8E01;" points="52.696,416.696 84.021,416.696 86.486,393.15 50.231,393.15 							"/>
							<g>
								<path style="fill:#231F20;" d="M52.696,417.071c9.14,0,18.279,0,27.419,0c1.302,0,2.604,0,3.906,0
									c0.218,0,0.354-0.173,0.375-0.375c0.72-6.874,1.439-13.748,2.159-20.622c0.102-0.975,0.204-1.95,0.306-2.925
									c0.021-0.202-0.189-0.375-0.375-0.375c-10.585,0-21.171,0-31.756,0c-1.5,0-2.999,0-4.499,0
									c-0.187,0-0.396,0.173-0.375,0.375c0.72,6.874,1.44,13.748,2.159,20.622c0.102,0.975,0.204,1.95,0.306,2.925
									c0.05,0.475,0.8,0.48,0.75,0c-0.72-6.874-1.439-13.748-2.159-20.622c-0.102-0.975-0.204-1.95-0.306-2.925
									c-0.125,0.125-0.25,0.25-0.375,0.375c10.585,0,21.171,0,31.756,0c1.5,0,2.999,0,4.499,0c-0.125-0.125-0.25-0.25-0.375-0.375
									c-0.72,6.874-1.439,13.748-2.159,20.622c-0.102,0.975-0.204,1.95-0.306,2.925c0.125-0.125,0.25-0.25,0.375-0.375
									c-9.14,0-18.279,0-27.419,0c-1.302,0-2.604,0-3.906,0C52.214,416.321,52.213,417.071,52.696,417.071z"/>
							</g>
						</g>
					</g>
					<g>
						<g>
							<path style="fill:#928C96;" d="M83.836,379.064H53.232c-1.178,0-2.132-0.955-2.132-2.132v-4.025
								c0-1.178,0.955-2.132,2.132-2.132h30.604c1.178,0,2.132,0.955,2.132,2.132v4.025
								C85.968,378.109,85.014,379.064,83.836,379.064z"/>
							<g>
								<path style="fill:#231F20;" d="M83.836,378.689c-10.021,0-20.042,0-30.064,0c-1.237,0-2.194-0.5-2.298-1.917
									c-0.09-1.226-0.119-2.623,0-3.846c0.229-2.347,3.307-1.776,4.972-1.776c6.436,0,12.871,0,19.307,0c2.502,0,5.004,0,7.506,0
									c1.364,0,2.287,0.674,2.334,2.176C85.646,374.996,86.193,378.499,83.836,378.689c-0.478,0.039-0.482,0.789,0,0.75
									c2.048-0.165,2.507-1.738,2.507-3.48c0-1.342,0.36-3.333-0.463-4.501c-1.071-1.519-3.655-1.059-5.259-1.059
									c-7.078,0-14.157,0-21.235,0c-2.014,0-4.046-0.078-6.059,0c-1.497,0.058-2.543,1.072-2.603,2.58
									c-0.051,1.297-0.087,2.657,0,3.952c0.188,2.786,2.818,2.507,4.821,2.507c3.174,0,6.349,0,9.523,0c6.256,0,12.512,0,18.768,0
									C84.319,379.439,84.319,378.689,83.836,378.689z"/>
							</g>
						</g>
						<g>
							<path style="fill:#928C96;" d="M88.777,387.263H48.291c-1.783,0-3.229-1.445-3.229-3.229v-4.896
								c0-1.783,1.445-3.228,3.229-3.228h40.486c1.783,0,3.228,1.445,3.228,3.228v4.896
								C92.005,385.818,90.56,387.263,88.777,387.263z"/>
							<g>
								<path style="fill:#231F20;" d="M88.777,386.888c-6.165,0-12.33,0-18.495,0c-7.198,0-14.405,0.105-21.602,0
									c-1.911-0.028-3.199-1.184-3.241-3.154c-0.021-0.995,0-1.993,0-2.988c0-0.957-0.139-2.09,0.339-2.957
									c1.19-2.162,4.891-1.504,6.952-1.504c8.701,0,17.402,0,26.103,0c3.017,0,6.034,0,9.05,0c1.349,0,2.658,0.135,3.41,1.504
									c0.478,0.87,0.338,1.999,0.338,2.957c0,1.016,0.026,2.035,0,3.05C91.586,385.488,90.541,386.799,88.777,386.888
									c-0.48,0.024-0.483,0.774,0,0.75c1.38-0.07,2.604-0.753,3.231-2.016c0.418-0.843,0.373-1.735,0.373-2.645
									c0-1.904,0.477-4.578-0.847-6.157c-1.58-1.884-5.012-1.285-7.193-1.285c-9.336,0-18.672,0-28.008,0
									c-2.639,0-5.289-0.071-7.927,0c-2.1,0.057-3.626,1.538-3.717,3.643c-0.074,1.709-0.179,3.586,0.03,5.286
									c0.441,3.592,4.161,3.174,6.784,3.174c4.23,0,8.459,0,12.689,0c8.036,0,16.077,0.089,24.112,0c0.158-0.002,0.316,0,0.474,0
									C89.259,387.638,89.26,386.888,88.777,386.888z"/>
							</g>
						</g>
					</g>
				</g>
				<g>
					<g>
						<g>
							<g>
								<path style="fill:#EE8E01;" d="M327.731,317.369c0,0-26.868,44.396-65.42,73.247c-32.978,24.679,15.699,41.601,25.888,42.53
									c10.189,0.928,34.643-38.995,44.769-72.264C343.093,327.612,330.507,313.887,327.731,317.369z"/>
								<g>
									<path style="fill:#231F20;" d="M327.407,317.18c-2.582,4.263-5.427,8.381-8.302,12.449
										c-7.081,10.02-14.712,19.662-22.882,28.817c-10.372,11.623-21.653,22.459-34.102,31.846
										c-6.897,5.201-14.457,13.388-10.217,22.584c1.645,3.568,4.578,6.427,7.665,8.773c3.493,2.655,7.385,4.771,11.382,6.561
										c3.644,1.632,7.411,3.016,11.26,4.079c2.253,0.622,5.107,1.626,7.469,1.116c3.336-0.72,6.192-3.628,8.447-5.998
										c3.858-4.055,7.152-8.655,10.221-13.323c8.058-12.259,14.699-25.543,20.086-39.177
										c5.282-13.367,10.061-28.028,8.519-42.593c-0.426-4.021-1.338-8.164-3.37-11.704c-0.913-1.591-2.451-3.894-4.478-4.122
										c-0.626-0.07-1.228,0.121-1.638,0.615c-0.306,0.369,0.222,0.902,0.53,0.53c1.065-1.283,2.923,0.609,3.602,1.411
										c2.19,2.583,3.298,6.071,3.985,9.326c2.818,13.344-1.016,27.434-5.477,39.961c-4.885,13.72-11.211,27.016-18.716,39.496
										c-3.154,5.245-6.535,10.391-10.392,15.149c-2.573,3.175-5.437,6.534-8.996,8.642c-1.096,0.649-2.339,1.213-3.64,1.162
										c-1.127-0.044-2.272-0.317-3.368-0.564c-3.435-0.772-6.802-1.879-10.079-3.156c-7.499-2.922-15.82-7.011-20.666-13.697
										c-2.121-2.926-3.333-6.46-2.684-10.085c0.866-4.841,4.378-8.81,7.964-11.943c2.725-2.38,5.719-4.452,8.534-6.726
										c2.953-2.386,5.836-4.857,8.656-7.398c5.518-4.973,10.792-10.215,15.854-15.65c8.483-9.109,16.388-18.76,23.751-28.795
										c3.925-5.349,7.734-10.801,11.249-16.43c0.162-0.259,0.324-0.519,0.482-0.78
										C328.305,317.144,327.657,316.767,327.407,317.18z"/>
								</g>
							</g>
							<g>
								<path style="fill:#EE8E01;" d="M349.772,299.818c0,0-9.779,1.206-20.202,14.903c-10.423,13.697-26.596,58.45-34.006,104.851
									l2.476,12.591l28.272,2.791l80.771-3.166l17.428-27.526C424.511,404.261,402.564,300.486,349.772,299.818z"/>
								<g>
									<path style="fill:#231F20;" d="M349.772,299.443c-1.744,0.222-3.466,0.946-5.04,1.689
										c-4.522,2.135-8.48,5.412-11.859,9.064c-5.9,6.376-9.758,14.138-13.213,22.033c-4.691,10.719-8.526,21.816-11.919,33.007
										c-4.142,13.662-7.578,27.544-10.296,41.559c-0.787,4.056-1.522,8.124-2.168,12.205c-0.185,1.166,0.271,2.435,0.496,3.578
										c0.635,3.228,1.27,6.456,1.904,9.684c0.034,0.172,0.205,0.26,0.362,0.275c9.133,0.901,18.266,1.803,27.398,2.704
										c1.355,0.134,2.703,0.015,4.063-0.039c4-0.157,8.001-0.314,12.001-0.47c12.062-0.473,24.125-0.946,36.187-1.418
										c9.131-0.358,18.263-0.716,27.394-1.074c0.584-0.023,1.383,0.089,1.949-0.076c0.608-0.177,0.951-1.098,1.275-1.611
										c2.826-4.464,5.653-8.928,8.479-13.392c2.559-4.042,5.118-8.083,7.677-12.125c0.262-0.414,0.419-0.617,0.362-1.089
										c-0.07-0.582-0.263-1.174-0.396-1.744c-1.604-6.856-3.539-13.639-5.681-20.345c-3.525-11.031-7.675-21.888-12.701-32.327
										c-5.372-11.158-11.779-22.03-20.093-31.267c-7.528-8.363-16.989-15.493-28.17-17.914
										C355.151,299.782,352.465,299.484,349.772,299.443c-0.483-0.007-0.483,0.743,0,0.75
										c11.489,0.178,21.862,5.52,30.231,13.134c9.084,8.264,16.021,18.717,21.79,29.481
										c5.631,10.505,10.205,21.565,14.095,32.823c2.717,7.861,5.113,15.84,7.126,23.911c0.376,1.509,0.564,3.209,1.103,4.669
										c0.102,0.275-0.01-0.008,0.049-0.104c-0.209,0.341-0.428,0.676-0.642,1.014c-1.117,1.764-2.233,3.527-3.35,5.291
										c-3.172,5.009-6.343,10.018-9.515,15.028c-1.097,1.732-2.193,3.464-3.29,5.197c-0.167,0.264-0.519,0.636-0.597,0.943
										c0.094-0.367,0.507-0.083,0.037-0.156c-0.777-0.12-1.725,0.068-2.507,0.098c-1.612,0.063-3.224,0.126-4.836,0.19
										c-4.839,0.19-9.679,0.379-14.518,0.569c-12.167,0.477-24.335,0.954-36.502,1.431c-7.274,0.285-14.58,0.799-21.86,0.857
										c-2.659,0.021-5.406-0.496-8.049-0.757c-5.7-0.563-11.4-1.125-17.1-1.688c-1.133-0.112-2.265-0.224-3.398-0.335
										c0.121,0.092,0.241,0.183,0.362,0.275c-0.532-2.704-1.063-5.408-1.595-8.112c-0.267-1.355-0.631-2.729-0.806-4.1
										c-0.089-0.699,0.115-1.358,0.232-2.067c0.311-1.884,0.636-3.765,0.974-5.644c2.511-13.927,5.752-27.728,9.669-41.326
										c3.293-11.431,7.039-22.759,11.554-33.769c3.053-7.445,6.346-15.188,11.145-21.708c3.684-5.005,8.299-9.594,13.757-12.64
										c1.503-0.839,3.078-1.565,4.724-2.076c0.431-0.134,0.867-0.251,1.308-0.348c0.103-0.023,0.563-0.099,0.41-0.08
										C350.244,300.133,350.251,299.382,349.772,299.443z"/>
								</g>
							</g>
						</g>
						<g>
							<g>
								<path style="fill:#FFFFFF;" d="M344.822,404.274l-0.128,23.647l-27.793-4.959c0,0-2.642-1.045-4.933,0.878
									c-2.291,1.923-2.338,3.048-2.561,3.749c-0.223,0.701-1.055,3.308-2.403,4.607c-1.349,1.299-2.378,1.168-3.2,0.193
									c-0.822-0.975-0.822-0.975-0.822-0.975s-0.337-0.208-0.85,0.222c-0.513,0.431-1.787,0.882-2.393-0.102
									c-0.607-0.984-0.642-0.878-0.642-0.878s-0.183-0.411-0.599-0.059s-2.166,0.873-2.965-0.244
									c-0.799-1.118-1.096-1.846-1.096-1.846s-0.253-0.108-0.794,0.058c-0.541,0.166-2.741,0.519-3.728-2.128
									s0.027-6.466,0.692-8.971c0.665-2.505,3.264-7.85,5.409-9.926c2.145-2.077,6.072-4.37,10.02-4.716
									c3.948-0.346,14.829,0.055,19.414,0.297C330.035,403.363,344.822,404.274,344.822,404.274z"/>
								<path style="fill:none;stroke:#231F20;stroke-miterlimit:10;" d="M308.309,415.342c0,0-4.665,6.925-5.717,10.845
									c-1.052,3.92,0.976,6.944,2.282,6.958c1.306,0.014,3.244-1.184,4.348-4.982c1.104-3.799,3.876-5.573,5.801-5.465
									c1.924,0.108,31.11,5.488,31.11,5.488"/>
								<path style="fill:none;stroke:#231F20;stroke-miterlimit:10;" d="M303.248,413.989c0,0-3.984,7.497-4.627,11.529
									c-0.642,4.032,1.036,6.413,1.915,6.611s2.313-0.999,2.313-0.999"/>
								<path style="fill:none;stroke:#231F20;stroke-miterlimit:10;" d="M298.974,410.779c0,0-4.256,7.036-4.819,11.251
									s0.037,7.278,1.572,8.492c1.535,1.215,3.281-0.261,3.281-0.261"/>
								<path style="fill:none;stroke:#231F20;stroke-miterlimit:10;" d="M345.581,404.326c0,0-27.991-1.945-37.122-1.685
									c-9.131,0.259-13.402,4.919-15.844,9.801c-2.442,4.882-3.642,11.462-2.618,13.84c1.757,4.08,4.279,1.908,4.279,1.908"/>
							</g>
							<g>
								<path style="fill:#EE8E01;" d="M344.33,420.749l1.803-22.099c0,0,13.454,0.054,22.027-0.585
									c8.574-0.639,21.419-2.248,25.485-2.915c4.066-0.666,4.614-1.005,4.614-1.005s1.443,0.04,1.04-1.012
									c-0.403-1.053-5.805-12.201-10.219-18.674c-4.414-6.473-5.584-8.89-5.584-8.89l-24.794-42.944l17.274-17.749
									c0,0,20.971,7.733,40.211,30.301c19.24,22.568,21.501,30.81,22.437,32.847c0.936,2.037,6.859,15.968,6.9,25.639
									c0.04,9.672-0.678,29.194-24.413,41.5c0,0-5.202,3.887-18.757,5.497c-13.555,1.61-31.135-0.42-42.567-2.524
									c-11.431-2.104-15.798-3.768-15.798-3.768L344.33,420.749z"/>
								<g>
									<g>
										<path style="fill:#EE8E01;" d="M351.958,398.834c-7.964-0.068-11.624-0.769-11.624-0.769l-3.631,34.224
											c0,0,4.457,1.503,11.549,3.284L351.958,398.834z"/>
										<g>
											<path style="fill:#231F20;" d="M351.958,398.459c-3.806-0.039-7.766-0.046-11.524-0.756
												c-0.258-0.049-0.448,0.107-0.475,0.362c-1.058,9.968-2.115,19.937-3.173,29.905c-0.153,1.44-0.306,2.879-0.458,4.319
												c-0.018,0.168,0.13,0.313,0.275,0.362c3.791,1.275,7.673,2.306,11.549,3.284c0.255,0.064,0.45-0.119,0.475-0.362
												c1.081-10.72,2.163-21.44,3.244-32.159c0.154-1.526,0.308-3.053,0.462-4.579c0.048-0.48-0.702-0.476-0.75,0
												c-1.081,10.72-2.163,21.44-3.244,32.159c-0.154,1.527-0.308,3.053-0.462,4.579c0.158-0.121,0.316-0.241,0.475-0.362
												c-3.876-0.978-7.758-2.009-11.549-3.284c0.092,0.121,0.184,0.241,0.275,0.362c1.058-9.968,2.115-19.937,3.173-29.905
												c0.153-1.44,0.306-2.879,0.458-4.319c-0.158,0.121-0.316,0.241-0.475,0.362c3.826,0.723,7.849,0.743,11.724,0.783
												C352.441,399.214,352.441,398.464,351.958,398.459z"/>
										</g>
									</g>
									<g>
										<g>
											<g>
												<path style="fill:#231F20;" d="M368.443,303.316c1.605,0.19,4.005,0.9,5.776,1.497c5.343,1.8,10.407,4.406,15.175,7.397
													c7.876,4.94,14.992,11.036,21.448,17.708c9.248,9.558,17.616,20.409,24.174,31.989
													c5.766,10.18,10.053,21.616,10.179,33.441c0.094,8.817-2.316,17.531-7.313,24.831
													c-4.615,6.742-11.181,11.994-18.558,15.441c-8.91,4.164-18.758,5.302-28.503,5.343
													c-11.419,0.048-22.827-1.472-33.989-3.802c-6.439-1.344-12.847-2.941-19.117-4.937c-0.305-0.097-0.61-0.194-0.913-0.297
													c0.092,0.121,0.184,0.241,0.275,0.362c1.058-9.968,2.115-19.937,3.173-29.905c0.153-1.44,0.306-2.879,0.458-4.319
													c-0.158,0.121-0.316,0.241-0.475,0.362c3.091,0.592,6.332,0.667,9.465,0.746c10.15,0.258,20.329-0.552,30.4-1.755
													c9.099-1.087,18.148-2.558,27.149-4.275c0.474-0.09,0.273-0.813-0.199-0.723c-14.242,2.717-28.639,4.87-43.125,5.713
													c-6.85,0.399-13.784,0.576-20.626-0.07c-0.955-0.09-1.92-0.18-2.863-0.36c-0.258-0.049-0.448,0.107-0.475,0.362
													c-1.058,9.968-2.115,19.937-3.173,29.905c-0.153,1.44-0.306,2.879-0.458,4.319c-0.018,0.168,0.13,0.313,0.275,0.362
													c4.695,1.581,9.523,2.824,14.34,3.965c10.618,2.517,21.458,4.309,32.362,4.902c10.517,0.572,21.561,0.247,31.591-3.285
													c7.709-2.715,14.826-7.237,20.268-13.367c5.629-6.341,9.225-14.242,10.361-22.642
													c1.424-10.533-0.912-21.207-5.012-30.903c-5.412-12.799-13.818-24.454-22.814-34.971
													c-6.816-7.969-14.418-15.329-22.953-21.446c-5.359-3.841-11.105-7.204-17.231-9.668
													c-2.736-1.101-5.669-2.195-8.611-2.603c-0.153-0.021-0.305-0.048-0.459-0.067
													C367.964,302.509,367.968,303.26,368.443,303.316L368.443,303.316z"/>
											</g>
										</g>
										<g>
											<g>
												<path style="fill:#231F20;" d="M400.006,393.956c-3.859-8.234-8.266-16.307-13.277-23.894
													c-0.265-0.401-0.915-0.026-0.648,0.379c5.012,7.587,9.419,15.659,13.277,23.894
													C399.563,394.771,400.21,394.39,400.006,393.956L400.006,393.956z"/>
											</g>
										</g>
									</g>
								</g>
							</g>
						</g>
						<g>
							<g>
								<g>
									<path style="fill:#231F20;" d="M339.165,355.528c-3.362-6.399-5.468-13.727-6.627-20.825
										c-1.059-6.488-1.187-13.197,0.15-19.655c1.545-7.462,5.115-14.326,10.404-19.821c0.631-0.655,0.751-0.952,1.555-1.079
										c0.788-0.125,1.575-0.249,2.363-0.374c2.495-0.394,4.99-0.789,7.485-1.183c2.291-0.362,4.582-0.724,6.872-1.086
										c0.587-0.093,1.184-0.163,1.768-0.279c0.283-0.056-0.069-0.01-0.125-0.047c0.112,0.075,0.231,0.154,0.331,0.243
										c3.884,3.451,7.17,7.217,8.802,12.28c1.753,5.433,1.077,11.477-0.56,16.868c-4.047,13.329-15.499,23.083-26.578,30.685
										c-2.085,1.43-4.208,2.803-6.355,4.137c-0.409,0.254-0.033,0.903,0.379,0.648c12.623-7.848,26.264-17.749,32.108-31.991
										c1.959-4.774,3.133-10.294,2.73-15.47c-0.487-6.266-3.741-12.013-8.299-16.244c-0.607-0.563-1.615-1.782-2.494-1.854
										c-0.387-0.032-0.89,0.141-1.27,0.201c-0.971,0.154-1.941,0.307-2.912,0.46c-4.799,0.758-9.597,1.517-14.396,2.275
										c-0.731,0.116-0.813,0.145-1.408,0.741c-1.401,1.405-2.702,2.907-3.892,4.494c-2.246,2.993-4.052,6.302-5.379,9.8
										c-2.482,6.545-3.2,13.649-2.698,20.602c0.648,8.988,3.058,18.364,7.18,26.423c0.073,0.143,0.142,0.287,0.217,0.429
										C338.742,356.334,339.389,355.956,339.165,355.528z"/>
								</g>
							</g>
							<g>
								<g>
									<path style="fill:#FFFFFF;" d="M345.355,388.675h-13.029c-2.144,0-3.882-1.738-3.882-3.882v-27.065
										c0-2.144,1.738-3.882,3.882-3.882h13.029c2.144,0,3.882,1.738,3.882,3.882v27.065
										C349.237,386.937,347.499,388.675,345.355,388.675z"/>
									<g>
										<path style="fill:#231F20;" d="M345.355,388.3c-3.205,0-6.409,0-9.614,0c-1.133,0-2.28,0.054-3.412,0
											c-2.254-0.107-3.501-1.844-3.51-3.961c-0.032-7.12,0-14.241,0-21.361c0-1.393,0-2.787,0-4.18
											c0-1.298,0.019-2.537,1.029-3.548c1.226-1.226,2.894-1.029,4.468-1.029c2.039,0,4.078,0,6.118,0
											c1.544,0,3.089-0.015,4.632,0c2.151,0.021,3.713,1.425,3.796,3.615c0.099,2.608,0,5.239,0,7.849c0,4.165,0,8.329,0,12.494
											c0,2.196,0.106,4.421,0,6.615C348.768,386.756,347.328,388.216,345.355,388.3c-0.481,0.02-0.483,0.771,0,0.75
											c2.401-0.102,4.179-1.89,4.257-4.295c0.029-0.892,0-1.79,0-2.682c0-4.225,0-8.45,0-12.675c0-3.616,0-7.232,0-10.848
											c0-1.311-0.126-2.548-1.036-3.599c-1.197-1.381-2.776-1.479-4.451-1.479c-3.836,0-7.674-0.038-11.51,0
											c-2.09,0.021-3.966,1.203-4.442,3.336c-0.188,0.842-0.104,1.779-0.104,2.635c0,7.921,0,15.842,0,23.762
											c0,0.927-0.086,1.925,0.185,2.821c0.61,2.019,2.442,3.011,4.446,3.024c3.857,0.023,7.715,0,11.573,0
											c0.361,0,0.722,0,1.082,0C345.838,389.05,345.839,388.3,345.355,388.3z"/>
									</g>
								</g>
								<g>
									<circle style="fill:#BCB9BD;" cx="338.841" cy="364.303" r="5.029"/>
									<rect x="332.967" y="371.802" style="fill:#BCB9BD;" width="11.748" height="2.443"/>
									<rect x="334.084" y="376.792" style="fill:#BCB9BD;" width="9.513" height="1.768"/>
								</g>
							</g>
						</g>
						<g>
							<g>
								<path style="fill:#EE8E01;" d="M346.567,329.733c0,0-10.878,3.341-16.503-12.911c-5.625-16.252,1.169-23.114,14.537-28.26
									c13.367-5.146,29.274-3.737,42.218-1.479c12.944,2.258,16.375,9.432,16.843,15.202c0.468,5.77-3.736,15.789-5.919,15.319
									c-2.183-0.47-12.127-9.752-21.529-2.531C366.812,322.294,353.88,328.329,346.567,329.733z"/>
								<g>
									<path style="fill:#231F20;" d="M346.467,329.371c-2.31,0.699-5.083,0.152-7.188-0.884
										c-6.175-3.038-9.03-10.661-10.303-16.975c-1.211-6.007-0.236-11.952,4.416-16.227c2.229-2.049,4.914-3.557,7.648-4.823
										c3.79-1.755,7.758-3.066,11.858-3.869c8.93-1.75,18.184-1.355,27.16-0.176c7.213,0.948,15.819,1.96,20.479,8.293
										c3.475,4.722,3.189,10.501,1.399,15.835c-0.521,1.551-1.147,3.082-1.971,4.499c-0.379,0.651-1.132,2.127-2.018,2.2
										c-0.654,0.053-1.595-0.743-2.117-1.057c-1.151-0.691-2.304-1.377-3.505-1.978c-2.807-1.404-5.912-2.418-9.087-2.226
										c-4.113,0.249-6.924,2.673-10.163,4.918c-6.822,4.726-14.411,8.772-22.322,11.334
										C349.344,328.69,347.918,329.085,346.467,329.371c-0.473,0.093-0.273,0.816,0.199,0.723
										c3.473-0.685,6.828-1.947,10.076-3.334c4.202-1.795,8.275-3.908,12.18-6.278c2.004-1.217,3.966-2.504,5.865-3.88
										c1.913-1.386,3.685-2.811,6.006-3.458c3.801-1.06,7.719-0.005,11.152,1.712c1.263,0.632,2.471,1.36,3.682,2.084
										c0.615,0.367,1.377,0.96,2.117,1.04c1.952,0.211,3.342-3.335,3.924-4.663c2.336-5.327,3.469-11.48,0.793-16.887
										c-3.22-6.505-10.412-8.866-17.093-9.973c-9.257-1.534-18.757-2.406-28.113-1.296c-7.758,0.92-15.98,3.312-22.383,7.962
										c-4.769,3.464-7.393,8.448-7.148,14.384c0.384,9.302,6.475,24.833,18.315,22.726c0.211-0.038,0.424-0.077,0.629-0.139
										C347.127,329.955,346.931,329.231,346.467,329.371z"/>
								</g>
							</g>
							<g>
								<g>
									<g>
										<path style="fill:#231F20;" d="M345.081,239.235c0,0-6.712,10.547-17.439,13.161
											c-10.726,2.614-20.093,0.384-23.289-11.314c-3.195-11.698,11.523-21.499,20.817-21.516c0,0-3.699-15.361,12.394-17.734
											c14.882-2.194,17.528,11.662,17.528,11.662s10.648-10.193,26.957-1.222c16.308,8.971,16.188,27.159,13.676,33.983
											c0,0,12.191,2.016,14.704,14.495c2.513,12.479-2.222,18.214-13.435,22.004c0,0-7.874,1.822-10.874,0.131
											c0,0,6.915,10.843-4.31,17.067c-12.843,7.122-22.086-6.025-27.182-10.833c-5.096-4.809,6.311-23.906,7.61-28.507
											C362.239,260.611,345.307,255.9,345.081,239.235z"/>
										<path style="fill:#FFFFFF;stroke:#231F20;stroke-miterlimit:10;" d="M369.7,256.651c-2.251,0.023-4.32,0.765-6.006,1.993
											l-0.064-6.207c-0.101-9.839-7.255-17.816-15.897-17.727l-12.998,0.134c-8.642,0.089-15.629,8.212-15.528,18.051
											l0.208,20.149c0.102,9.839,7.255,17.816,15.897,17.727l7.516-0.077l0.112,10.855c0.046,4.451,3.725,8.055,8.176,8.009
											l5.157-0.053c4.451-0.046,8.055-3.725,8.009-8.176l-0.126-12.266l-0.007-0.683l-0.126-12.266
											c-0.002-0.247-0.027-0.488-0.053-0.728c1.691,1.148,3.738,1.817,5.943,1.795c5.715-0.059,10.301-4.702,10.243-10.371
											C380.096,261.14,375.416,256.592,369.7,256.651z"/>
										<g>
											<g>
												<path style="fill:#231F20;" d="M364.748,268.329c-0.016-0.218-0.011-0.438-0.001-0.656
													c0.005-0.107,0.012-0.214,0.021-0.321c0.005-0.057,0.01-0.113,0.016-0.169c0.004-0.039,0.028-0.233,0.019-0.164
													c-0.01,0.072,0.019-0.123,0.025-0.158c0.011-0.066,0.022-0.132,0.035-0.198c0.029-0.153,0.063-0.305,0.101-0.455
													c0.179-0.703,0.371-1.18,0.782-1.784c0.172-0.252,0.392-0.508,0.674-0.76c0.272-0.243,0.589-0.449,0.964-0.63
													c1.038-0.501,2.315-0.553,3.479-0.444c0.283,0.026,0.525-0.26,0.525-0.525c0-0.306-0.241-0.499-0.525-0.525
													c-2.094-0.196-4.353,0.238-5.729,1.959c-0.895,1.12-1.316,2.522-1.422,3.936c-0.022,0.297-0.036,0.599-0.014,0.896
													C363.747,268.999,364.798,269.004,364.748,268.329L364.748,268.329z"/>
											</g>
										</g>
										<g>
											<g>
												<path style="fill:#231F20;" d="M345.287,259.21c0.017,1.618-1.282,2.944-2.9,2.96c-1.618,0.017-2.944-1.281-2.96-2.9
													c-0.017-1.618,1.282-2.944,2.9-2.96C343.945,256.294,345.27,257.592,345.287,259.21z"/>
												<path style="fill:#231F20;" d="M326.1,258.979c0.014,1.381-1.094,2.513-2.475,2.527
													c-1.381,0.014-2.513-1.094-2.527-2.475c-0.014-1.381,1.094-2.512,2.475-2.526
													C324.954,256.49,326.086,257.598,326.1,258.979z"/>
											</g>
											<polygon style="fill:#E5809D;" points="332.544,256.412 333.31,267.292 328.079,264.178 											"/>
										</g>
										<g>
											<g>
												<path style="fill:#231F20;" d="M336.465,274.519c-0.008,2.25-1.809,4.161-4.088,4.181
													c-2.276,0.02-4.127-1.831-4.181-4.088c-0.125,0.125-0.25,0.25-0.375,0.375c2.628-0.027,5.256-0.054,7.884-0.081
													c0.378-0.004,0.757-0.008,1.135-0.012c0.482-0.005,0.484-0.755,0-0.75c-2.628,0.027-5.256,0.054-7.884,0.081
													c-0.378,0.004-0.757,0.008-1.135,0.012c-0.199,0.002-0.38,0.17-0.375,0.375c0.049,2.026,1.303,3.834,3.212,4.543
													c1.908,0.708,4.145,0.097,5.434-1.474c0.736-0.897,1.12-2.003,1.124-3.161
													C337.217,274.036,336.467,274.036,336.465,274.519z"/>
											</g>
										</g>
										<path style="fill:#231F20;" d="M327.642,252.396c-10.726,2.614-20.093,0.384-23.289-11.314
											c-3.195-11.698,11.523-21.499,20.817-21.516c0,0-3.699-15.361,12.394-17.734c14.882-2.194,17.528,11.662,17.528,11.662
											s0.094-0.089,0.276-0.244l0.408,2.269l13.923,41.132l-2.926,0.536c-3.08,1.457-4.274,3.741-4.249,3.654
											c0,0-17.219-4.941-17.444-21.606C345.081,239.235,338.369,249.782,327.642,252.396z"/>
									</g>
								</g>
								<path style="fill:#FFFFFF;stroke:#231F20;stroke-miterlimit:10;" d="M336.465,311.253c0,0,3.832-7.074,8.823-9.14
									c4.99-2.066,23.69-2.629,27.315,4.836c3.625,7.465-24.624,16.297-24.624,16.297S336.909,317.906,336.465,311.253z"/>
								<path style="fill:#6040EC;stroke:#231F20;stroke-miterlimit:10;" d="M362.205,306.573h-17.171
									c-2.235,0-4.046-1.812-4.046-4.047v-0.827c0-2.235,1.812-4.046,4.046-4.046h17.171c2.235,0,4.046,1.812,4.046,4.046v0.827
									C366.251,304.761,364.44,306.573,362.205,306.573z"/>
								<g>
									<path style="fill:#EE8E01;" d="M330.882,306.053c0,0,2.367,19.479,14.194,19.791c11.827,0.312,24.031-9.201,29.054-12.815
										c6.754-4.859,5.247-5.498,5.247-5.498s-5.705-8.662-12.892-5.132c-11.371,5.585-13.096,6.532-14.942,7.574
										c-1.846,1.042-4.847,2.786-4.847,2.786s-1.162,1.652-2.841-0.882c-1.68-2.534-5.688-11.031-6.117-15.225
										C337.738,296.653,328.366,300.666,330.882,306.053z"/>
									<g>
										<g>
											<g>
												<path style="fill:#231F20;" d="M342.073,316.083c4.255-2.926,8.869-5.395,13.406-7.842
													c5.292-2.855,10.696-5.484,16.039-8.241c3.419-1.764,7.483-3.601,9.985-6.646c2.096-2.551,1.42-5.304-0.493-7.743
													c-0.298-0.379-0.825,0.155-0.53,0.53c0.899,1.146,1.74,2.534,1.641,4.048c-0.088,1.334-0.905,2.459-1.823,3.371
													c-2.87,2.85-6.886,4.641-10.444,6.449c-8.3,4.219-16.643,8.358-24.614,13.186c-1.194,0.723-2.393,1.449-3.543,2.24
													C341.299,315.707,341.674,316.358,342.073,316.083L342.073,316.083z"/>
											</g>
										</g>
										<g>
											<g>
												<path style="fill:#231F20;" d="M337.06,294.558c0.222,2.324,0.756,4.647,1.406,6.885
													c1.284,4.421,3.261,8.72,6.345,12.18c0.322,0.361,0.851-0.171,0.53-0.53c-3.047-3.418-4.97-7.693-6.214-12.063
													c-0.599-2.104-1.109-4.287-1.317-6.47C337.764,294.082,337.014,294.077,337.06,294.558L337.06,294.558z"/>
											</g>
										</g>
									</g>
								</g>
							</g>
						</g>
					</g>
					<g>
						<g>
							<g>
								<g>
									<path style="fill:#231F20;" d="M208.533,443.466l86.356,0.158c8.964,0.016,13.599-6.94,10.352-15.538l-22.636-59.935
										c-3.247-8.597-13.146-15.58-22.111-15.597l-86.356-0.158c-8.964-0.016-13.599,6.94-10.352,15.537l22.636,59.935
										C189.669,436.466,199.568,443.449,208.533,443.466z"/>
									<path style="fill:#FFFFFF;" d="M221.567,393.259c1.012,3.806,4.917,6.897,8.721,6.904c3.804,0.007,6.067-3.073,5.055-6.879
										c-1.012-3.806-4.917-6.897-8.721-6.904C222.818,386.373,220.555,389.452,221.567,393.259z"/>
									<path style="fill:#231F20;" d="M268.877,443.576l86.065,0.157c1.4,0.003,2.538-1.13,2.54-2.531l0.015-7.846
										c0.003-1.4-1.13-2.538-2.531-2.54l-86.067-0.157c-1.4-0.003-2.537,1.131-2.54,2.531l-0.014,7.846
										C266.344,442.436,267.477,443.573,268.877,443.576z"/>
								</g>
							</g>
						</g>
					</g>
				</g>
			</g>
		</g>
	</g>
</g>
</svg>
