<?xml version="1.0" encoding="utf-8"?>
<!-- Generator: Adobe Illustrator 27.5.0, SVG Export Plug-In . SVG Version: 6.00 Build 0)  -->
<svg version="1.1" xmlns="http://www.w3.org/2000/svg" xmlns:xlink="http://www.w3.org/1999/xlink" x="0px" y="0px"
	 viewBox="0 0 500 500" style="enable-background:new 0 0 500 500;" xml:space="preserve">
<g id="Background_Complete">
	<g>
		<g>
			<polygon style="fill:#E0E0E0;" points="239.456,46.406 239.456,132.955 115.149,132.955 110.67,47.011 			"/>
		</g>
		<g>
			
				<rect x="129.944" y="27.738" transform="matrix(6.123234e-17 -1 1 6.123234e-17 82.9321 262.7159)" style="fill:#FFFFFF;" width="85.761" height="124.307"/>
			<path style="fill:#E0E0E0;" d="M235.478,133.272H110.17V46.512h125.307V133.272z M111.17,132.272h123.307V47.512H111.17V132.272z
				"/>
		</g>
		<g>
			<g>
				<rect x="124.134" y="57.667" style="fill:#FFFFFF;" width="97.38" height="64.451"/>
			</g>
			<g>
				<g>
					<path style="fill:#E0E0E0;" d="M221.514,57.666c0,0-0.166,0.009-0.478,0.014c-0.324,0.003-0.783,0.008-1.382,0.014
						c-1.227,0.007-3.019,0.016-5.344,0.029c-4.671,0.015-11.472,0.037-20.063,0.064c-17.171,0.029-41.485,0.07-70.114,0.118
						l0.239-0.239c0.007,19.691,0.014,41.51,0.021,64.443v0.008l-0.26-0.26c36.735,0.02,70.605,0.038,97.38,0.053l-0.207,0.207
						c0.046-19.623,0.083-35.708,0.109-46.905c0.023-5.599,0.041-9.972,0.053-12.963c0.01-1.483,0.018-2.621,0.023-3.404
						C221.499,58.074,221.514,57.666,221.514,57.666s0.015,0.378,0.022,1.135c0.005,0.774,0.013,1.899,0.023,3.365
						c0.012,2.98,0.03,7.338,0.053,12.917c0.026,11.227,0.063,27.357,0.109,47.034l0,0.207l-0.208,0
						c-26.775,0.015-60.645,0.033-97.38,0.053l-0.26,0v-0.261v-0.008c0.008-22.933,0.015-44.752,0.021-64.443l0-0.239l0.239,0
						c28.693,0.048,53.061,0.089,70.271,0.118c8.568,0.028,15.351,0.049,20.009,0.064c2.304,0.013,4.08,0.022,5.296,0.029
						c0.587,0.006,1.037,0.011,1.355,0.014C221.367,57.657,221.514,57.666,221.514,57.666z"/>
				</g>
			</g>
		</g>
		<g>
			<g>
				<path style="fill:#E0E0E0;" d="M110.67,46.771c0.044-0.057,0.85,0.486,2.117,1.41c1.266,0.925,2.995,2.231,4.864,3.727
					c1.869,1.497,3.517,2.908,4.68,3.962c1.163,1.054,1.848,1.744,1.802,1.797c-0.048,0.055-0.818-0.536-2.041-1.516
					c-1.365-1.099-2.981-2.399-4.767-3.836c-1.785-1.439-3.4-2.742-4.765-3.843C111.353,47.473,110.626,46.827,110.67,46.771z"/>
			</g>
		</g>
		<g>
			<g>
				<path style="fill:#E0E0E0;" d="M234.977,47.011c0.089,0.113-2.852,2.59-6.57,5.532c-3.718,2.943-6.804,5.236-6.894,5.124
					c-0.089-0.113,2.852-2.589,6.57-5.532C231.802,49.193,234.888,46.899,234.977,47.011z"/>
			</g>
		</g>
		<g>
			<g>
				<path style="fill:#FFFFFF;" d="M234.879,132.785c-4.62-3.744-9.24-7.489-13.86-11.233"/>
			</g>
			<g>
				<g>
					<path style="fill:#E0E0E0;" d="M221.019,121.551c0.091-0.112,3.267,2.313,7.094,5.414c3.828,3.103,6.857,5.708,6.766,5.819
						c-0.09,0.112-3.266-2.312-7.094-5.415C223.958,124.269,220.929,121.663,221.019,121.551z"/>
				</g>
			</g>
		</g>
		<g>
			<g>
				<path style="fill:#E0E0E0;" d="M110.671,132.772c-0.089-0.113,2.822-2.564,6.501-5.474c3.681-2.911,6.736-5.178,6.825-5.066
					c0.089,0.113-2.821,2.563-6.502,5.474C113.815,130.617,110.76,132.885,110.671,132.772z"/>
			</g>
		</g>
		<g>
			
				<rect x="164.273" y="76.659" transform="matrix(6.123234e-17 -1 1 6.123234e-17 85.6841 264.4425)" style="fill:#E0E0E0;" width="21.581" height="25.441"/>
		</g>
	</g>
	<g>
		<g>
			<polygon style="fill:#E0E0E0;" points="127.108,150.95 127.108,208.551 42.24,207.742 42.758,151.568 			"/>
		</g>
		<g>
			
				<rect x="55.381" y="138.941" transform="matrix(6.123234e-17 -1 1 6.123234e-17 -96.1824 263.1152)" style="fill:#FFFFFF;" width="56.17" height="81.416"/>
			<path style="fill:#E0E0E0;" d="M124.675,208.234H42.258v-57.17h82.416V208.234z M43.258,207.234h80.416v-55.17H43.258V207.234z"
				/>
		</g>
		<g>
			<g>
				<rect x="51.576" y="158.542" style="fill:#FFFFFF;" width="63.781" height="42.213"/>
			</g>
			<g>
				<g>
					<path style="fill:#E0E0E0;" d="M115.357,158.542c-0.005,0.005-0.112,0.009-0.318,0.014c-0.224,0.004-0.523,0.008-0.91,0.014
						c-0.817,0.007-1.992,0.016-3.508,0.029c-3.073,0.015-7.529,0.037-13.15,0.064c-11.251,0.029-27.163,0.07-45.895,0.118
						l0.239-0.239c0.007,12.898,0.014,27.188,0.022,42.208v0.003v0.001v0.001v0v0l-0.26-0.26c24.057,0.02,46.239,0.038,63.78,0.053
						l-0.207,0.207c0.046-12.834,0.083-23.359,0.109-30.699c0.023-3.661,0.041-6.526,0.053-8.498c0.01-0.965,0.018-1.71,0.023-2.236
						C115.342,158.814,115.357,158.542,115.357,158.542s0.015,0.242,0.022,0.736c0.006,0.517,0.013,1.249,0.023,2.197
						c0.012,1.962,0.03,4.811,0.053,8.452c0.026,7.37,0.064,17.94,0.109,30.828l0.001,0.208l-0.208,0
						c-17.541,0.015-39.723,0.033-63.78,0.053l-0.261-0.261v0v-0.001v-0.001v-0.003c0.008-15.02,0.015-29.309,0.021-42.208l0-0.24
						l0.239,0.001c18.796,0.048,34.762,0.089,46.052,0.118c5.598,0.027,10.035,0.049,13.096,0.064
						c1.496,0.013,2.654,0.022,3.46,0.029c0.375,0.006,0.666,0.011,0.883,0.014C115.264,158.533,115.361,158.538,115.357,158.542z"
						/>
				</g>
			</g>
		</g>
		<g>
			<g>
				<path style="fill:#E0E0E0;" d="M42.758,151.406c0.088-0.114,2.136,1.393,4.574,3.367c2.439,1.974,4.339,3.661,4.244,3.769
					c-0.095,0.108-2.143-1.4-4.575-3.368C44.571,153.208,42.671,151.52,42.758,151.406z"/>
			</g>
		</g>
		<g>
			<g>
				<path style="fill:#E0E0E0;" d="M124.175,151.564c0.089,0.113-1.813,1.767-4.247,3.693c-2.435,1.927-4.481,3.398-4.571,3.285
					c-0.089-0.113,1.812-1.766,4.248-3.694C122.039,152.922,124.085,151.451,124.175,151.564z"/>
			</g>
		</g>
		<g>
			<g>
				<path style="fill:#FFFFFF;" d="M124.11,207.742c-3.026-2.452-6.052-4.905-9.078-7.357"/>
			</g>
			<g>
				<g>
					<path style="fill:#E0E0E0;" d="M115.033,200.385c0.09-0.112,2.196,1.445,4.702,3.476c2.507,2.032,4.466,3.769,4.375,3.881
						c-0.091,0.112-2.196-1.445-4.703-3.477C116.901,202.234,114.942,200.496,115.033,200.385z"/>
				</g>
			</g>
		</g>
		<g>
			<g>
				<path style="fill:#E0E0E0;" d="M42.758,207.734c-0.089-0.113,1.792-1.75,4.202-3.656c2.411-1.906,4.437-3.36,4.526-3.247
					c0.089,0.113-1.792,1.749-4.203,3.656C44.874,206.393,42.847,207.847,42.758,207.734z"/>
			</g>
		</g>
		<g>
			
				<rect x="76.399" y="159.685" transform="matrix(6.123234e-17 -1 1 6.123234e-17 -96.2841 263.217)" style="fill:#E0E0E0;" width="14.134" height="40.132"/>
		</g>
	</g>
	<g>
		<g>
			<polygon style="fill:#E0E0E0;" points="446.493,153.922 383.279,153.922 384.166,64.571 445.807,64.178 			"/>
		</g>
		<g>
			<rect x="378.987" y="64.571" style="fill:#FFFFFF;" width="61.644" height="89.351"/>
			<path style="fill:#E0E0E0;" d="M441.132,154.422h-62.645V64.071h62.645V154.422z M379.487,153.422h60.645V65.071h-60.645V153.422
				z"/>
		</g>
		<g>
			<g>
				<rect x="386.646" y="74.248" style="fill:#FFFFFF;" width="46.327" height="69.996"/>
			</g>
			<g>
				<g>
					<path style="fill:#E0E0E0;" d="M432.973,144.245c0,0-0.009-0.122-0.014-0.347c-0.003-0.242-0.008-0.571-0.014-0.997
						c-0.007-0.893-0.016-2.182-0.029-3.848c-0.015-3.368-0.037-8.258-0.064-14.429c-0.029-12.346-0.069-29.812-0.117-50.375
						l0.239,0.239c-14.155,0.007-29.838,0.014-46.321,0.022h-0.005l0.26-0.26c-0.02,26.404-0.038,50.746-0.053,69.996l-0.207-0.207
						c14.09,0.046,25.645,0.083,33.697,0.109c4.02,0.023,7.164,0.041,9.324,0.053c1.062,0.01,1.879,0.018,2.452,0.023
						C432.676,144.23,432.973,144.245,432.973,144.245s-0.267,0.015-0.81,0.022c-0.564,0.006-1.368,0.013-2.414,0.023
						c-2.149,0.012-5.278,0.03-9.278,0.053c-8.083,0.026-19.682,0.064-33.826,0.109l-0.208,0.001l0-0.208
						c-0.015-19.25-0.033-43.593-0.053-69.996l0-0.26h0.261h0.005c16.484,0.008,32.166,0.015,46.321,0.021l0.24,0l-0.001,0.239
						c-0.048,20.627-0.089,38.148-0.117,50.532c-0.027,6.147-0.049,11.019-0.064,14.375c-0.013,1.645-0.022,2.918-0.029,3.8
						c-0.006,0.415-0.011,0.735-0.014,0.971C432.982,144.142,432.977,144.25,432.973,144.245z"/>
				</g>
			</g>
		</g>
		<g>
			<g>
				<path style="fill:#E0E0E0;" d="M440.805,64.571c0.109,0.085-1.489,2.371-3.636,5.064c-2.151,2.693-4.091,4.707-4.196,4.614
					c-0.11-0.098,1.648-2.257,3.79-4.939C438.902,66.625,440.687,64.479,440.805,64.571z"/>
			</g>
		</g>
		<g>
			<g>
				<path style="fill:#E0E0E0;" d="M440.632,153.922c-0.113,0.089-1.919-2.005-4.034-4.677c-2.115-2.673-3.738-4.911-3.625-5.001
					c0.113-0.089,1.918,2.004,4.034,4.677C439.121,151.594,440.744,153.833,440.632,153.922z"/>
			</g>
		</g>
		<g>
			<g>
				<path style="fill:#FFFFFF;" d="M378.978,153.852c2.691-3.321,5.383-6.641,8.074-9.962"/>
			</g>
			<g>
				<g>
					<path style="fill:#E0E0E0;" d="M387.053,143.889c0.112,0.091-1.605,2.394-3.835,5.145c-2.23,2.752-4.128,4.908-4.24,4.817
						c-0.112-0.09,1.605-2.394,3.835-5.145C385.043,145.956,386.941,143.799,387.053,143.889z"/>
				</g>
			</g>
		</g>
		<g>
			<g>
				<path style="fill:#E0E0E0;" d="M378.987,64.571c0.113-0.089,1.9,1.983,3.992,4.627c2.092,2.646,3.697,4.862,3.584,4.951
					c-0.113,0.089-1.9-1.982-3.992-4.628C380.479,66.877,378.874,64.66,378.987,64.571z"/>
			</g>
		</g>
		<g>
			<rect x="403.027" y="88.461" style="fill:#E0E0E0;" width="15.512" height="44.043"/>
		</g>
	</g>
	<g>
		<path style="fill-rule:evenodd;clip-rule:evenodd;fill:#EBEBEB;" d="M276.837,94.253c-1.448,0.612-2.905,1.202-4.362,1.793
			c-0.416,0.168-0.852,0.32-1.249,0.506c-0.087,0.035-0.179,0.187-0.156,0.242c0.331,0.848,0.672,1.692,1.028,2.568
			c1.194-0.484,2.366-0.959,3.56-1.442c0.039,0.188,0.059,0.333,0.053,0.476c0.119,1.839-1.233,3.318-3.16,3.755
			c-2.386,0.533-4.6-0.968-5.1-3.367c-0.085-0.336-0.1-0.687-0.105-1.016c0.088-1.923,1.518-3.65,3.491-3.977
			c0.704-0.119,1.383-0.05,2.026,0.187c0.391-0.924,0.763-1.801,1.167-2.755c-0.057-0.015-0.156-0.039-0.222-0.076
			c-2.115-0.687-4.123-0.448-6.012,0.713c-2.735,1.656-3.906,4.809-3.268,7.675c0.254,1.224,0.834,2.405,1.762,3.406
			c2.267,2.385,5.831,2.969,8.762,1.387c1.434-0.772,2.554-1.851,3.136-3.375c0.878-2.269,0.485-4.405-0.65-6.483
			C277.345,94.123,277.177,94.115,276.837,94.253L276.837,94.253z M283.55,91.776c-0.131,0.053-0.284,0.115-0.438,0.177
			c-0.013-0.033-0.031-0.077-0.036-0.088c-0.049-0.12-0.089-0.219-0.124-0.307c-0.226-0.559-0.442-1.122-0.683-1.687
			c-0.035-0.087-0.212-0.207-0.256-0.19c-0.512,0.182-1.028,0.391-1.564,0.608c0.275,0.679,0.533,1.315,0.794,1.961
			c0.049,0.121,0.102,0.252,0.151,0.372c-0.8,0.324-1.545,0.626-2.356,0.954c0.076,0.186,0.124,0.307,0.173,0.428
			c0.191,0.407,0.375,0.83,0.576,1.233c0.414-0.142,0.828-0.285,1.255-0.458c0.345-0.127,0.69-0.28,1.063-0.431
			c0.328,0.811,0.63,1.556,0.932,2.301c0.577-0.247,1.118-0.453,1.699-0.688c-0.311-0.767-0.612-1.512-0.932-2.301
			c0.789-0.319,1.534-0.621,2.3-0.932c-0.182-0.449-0.351-0.865-0.528-1.304c-0.058-0.143-0.111-0.274-0.164-0.405
			C284.799,91.27,284.175,91.523,283.55,91.776L283.55,91.776z"/>
	</g>
	<g>
		<path style="fill-rule:evenodd;clip-rule:evenodd;fill:#E0E0E0;" d="M380.663,226.699v4.293h2.044v-4.642v-1.205h-2.044V226.699z
			 M389.383,226.942c-0.135-1.108-0.64-1.797-2.136-1.797c-0.877,0-1.469,0.323-1.716,0.791h-0.027v-0.791h-1.63v1.124v4.723h1.705
			v-2.899c0-0.764,0.151-1.501,1.087-1.501c0.941,0,1.011,0.871,1.011,1.554v2.846h1.754v-3.211
			C389.431,227.48,389.415,227.2,389.383,226.942L389.383,226.942z M381.685,222.224c-0.565,0-1.022,0.457-1.022,1.022
			s0.457,1.022,1.022,1.022c0.565,0,1.022-0.457,1.022-1.022S382.25,222.224,381.685,222.224L381.685,222.224z"/>
	</g>
	<g>
		<g>
			<g>
				<path style="fill:#E0E0E0;" d="M442.023,230.311c-0.1,1.568-1.452,2.758-3.019,2.659c-1.568-0.1-2.758-1.452-2.659-3.019
					c0.1-1.568,1.451-2.758,3.019-2.659C440.932,227.392,442.123,228.743,442.023,230.311z"/>
			</g>
		</g>
		<g>
			<g>
				<path style="fill:#E0E0E0;" d="M450.338,225.139c-0.1,1.568-1.451,2.758-3.019,2.659c-1.568-0.1-2.758-1.452-2.659-3.019
					c0.1-1.568,1.452-2.758,3.019-2.659C449.247,222.219,450.438,223.571,450.338,225.139z"/>
			</g>
		</g>
		<g>
			<g>
				<path style="fill:#E0E0E0;" d="M449.573,237.173c-0.108,1.706-1.467,3.008-3.035,2.909c-1.568-0.1-2.751-1.563-2.643-3.269
					c0.108-1.706,1.467-3.008,3.035-2.909C448.499,234.003,449.682,235.467,449.573,237.173z"/>
			</g>
		</g>
		<g>
			<g>
				<g>
					<path style="fill:#E0E0E0;" d="M445.92,236.574c-0.133,0.171-1.952-1.024-4.062-2.668c-2.111-1.645-3.713-3.116-3.58-3.287
						c0.133-0.171,1.951,1.024,4.062,2.669C444.45,234.932,446.053,236.403,445.92,236.574z"/>
				</g>
			</g>
		</g>
		<g>
			<g>
				<g>
					<path style="fill:#E0E0E0;" d="M446.917,224.721c0.121,0.179-1.424,1.436-3.452,2.806c-2.028,1.371-3.77,2.336-3.891,2.157
						c-0.121-0.179,1.424-1.435,3.452-2.806C445.054,225.508,446.796,224.542,446.917,224.721z"/>
				</g>
			</g>
		</g>
	</g>
	<g>
		<path style="fill-rule:evenodd;clip-rule:evenodd;fill:#E0E0E0;" d="M334.747,58.319l-2.421,6.2l2.952,1.153l2.618-6.705
			l0.68-1.74l-2.952-1.153L334.747,58.319z M347.205,63.587c0.431-1.677,0.089-2.956-2.071-3.799
			c-1.266-0.495-2.303-0.362-2.924,0.174l-0.039-0.015l0.446-1.142l-2.354-0.919l-0.634,1.624l-2.664,6.821l2.463,0.962l1.635-4.187
			c0.431-1.104,1.064-2.083,2.416-1.555c1.359,0.531,0.968,1.829,0.583,2.815l-1.605,4.11l2.533,0.989l1.811-4.638
			C346.971,64.391,347.106,63.978,347.205,63.587L347.205,63.587z M338.748,52.431c-0.816-0.319-1.734,0.084-2.053,0.9
			c-0.319,0.816,0.084,1.734,0.9,2.053c0.816,0.319,1.734-0.084,2.052-0.9C339.966,53.668,339.564,52.75,338.748,52.431
			L338.748,52.431z"/>
	</g>
	<g>
		<path style="fill-rule:evenodd;clip-rule:evenodd;fill:#E0E0E0;" d="M87.389,260.791v-0.022h-0.022c0,0,0,0,0-0.011v0.011
			c-0.26-0.17-0.509-0.193-0.668-0.238h-0.011c-1.086-0.351-2.013-1.086-2.703-1.991c-0.385-0.509-0.724-1.052-0.95-1.629l0,0
			c-0.09-0.26-0.09-0.543,0.034-0.701h0.022c0.192-0.271,0.543-0.463,0.927-0.611l0,0c0.43-0.136,0.882-0.316,1.267-0.644l0,0
			c0.079-0.045,0.147-0.124,0.192-0.238c0-0.023,0.022-0.056,0.034-0.091c0.023-0.09,0.023-0.215-0.034-0.339l0,0
			c-0.102-0.226-0.294-0.328-0.43-0.419l0,0c-0.249-0.136-0.531-0.136-0.769-0.068l0,0c-0.26,0.09-0.475,0.182-0.667,0.193
			c-0.011,0-0.011,0.023-0.011,0.023c-0.283,0.034-0.566,0.045-0.769-0.023c0-0.034,0-0.102-0.023-0.17l0,0
			c0-0.453,0.034-0.928,0.034-1.437l0,0c0.022-0.747,0.056-1.516-0.045-2.285v-0.023c-0.248-1.301-1.085-2.42-2.149-3.178
			c-0.769-0.532-1.696-0.848-2.635-0.916l0,0c-0.317-0.034-0.633-0.057-0.95-0.057c-1.256,0.023-2.568,0.351-3.574,1.154
			c-0.769,0.588-1.38,1.38-1.753,2.273c0,0,0,0,0,0.011c-0.362,0.905-0.328,1.889-0.271,2.783l0,0
			c0.011,0.622,0.079,1.233,0.034,1.833c0,0.011,0,0.011-0.023,0.034c-0.283,0.045-0.588,0.034-0.893-0.023c0,0,0,0-0.011,0
			c-0.215-0.034-0.418-0.124-0.679-0.193c0,0,0,0-0.022,0c-0.238-0.068-0.487,0-0.668,0.147h-0.011c0,0.012,0,0.012,0,0.012
			c-0.158,0.102-0.373,0.26-0.384,0.565c0,0.012,0,0.034,0.011,0.045h0.011c0.034,0.181,0.136,0.294,0.226,0.373
			c0.079,0.079,0.17,0.136,0.237,0.17c0,0.023,0,0.023,0,0.023c0.475,0.305,0.984,0.43,1.414,0.611l0,0
			c0.316,0.136,0.576,0.34,0.633,0.611c0.09,0.328-0.057,0.713-0.249,1.075l0,0c-0.486,0.984-1.232,1.833-2.149,2.466
			c-0.464,0.317-1.007,0.554-1.572,0.713h-0.012c-0.124,0.056-0.407,0.079-0.565,0.339c-0.011,0.012-0.034,0.034-0.034,0.068
			c-0.045,0.158,0,0.328,0.091,0.43c0.068,0.09,0.159,0.147,0.249,0.192l0,0c0.464,0.283,0.996,0.385,1.459,0.509l0,0
			c0.351,0.091,0.667,0.125,0.916,0.226c0.011,0.023,0.045,0.102,0.102,0.249c0.09,0.26,0.125,0.577,0.226,0.893
			c0.023,0.079,0.102,0.147,0.193,0.17c0.215,0.057,0.328-0.022,0.35-0.022c0,0,0.011,0,0.011-0.012
			c0.803-0.124,1.595-0.249,2.307-0.068l0,0c0.769,0.192,1.414,0.713,2.172,1.165l0,0c0.486,0.316,1.063,0.61,1.719,0.633l0,0
			c0.498,0.034,0.984,0,1.47-0.034l0,0c0.419-0.034,0.803-0.181,1.154-0.384l0.022-0.023c0.781-0.43,1.46-0.973,2.229-1.312l0,0
			c0.249-0.079,0.565-0.079,0.905-0.101l0,0c0.633-0.011,1.266,0.022,1.888,0.101c0.023,0,0.057,0,0.068,0
			c0.09-0.011,0.181-0.068,0.215-0.113c0.045-0.056,0.045-0.113,0.068-0.147c0.023-0.045,0.034-0.079,0-0.034
			c0.023-0.011,0.023-0.034,0.034-0.045c0.102-0.385,0.181-0.724,0.351-0.928c0.09-0.09,0.226-0.124,0.396-0.124
			c0.011,0,0.022,0,0.045,0c0.532-0.068,1.029-0.261,1.493-0.419c0-0.023,0-0.023,0.022-0.023c0.159-0.068,0.418-0.158,0.588-0.396
			c0,0,0,0,0.022,0h-0.022C87.66,261.188,87.592,260.916,87.389,260.791L87.389,260.791z"/>
	</g>
</g>
<g id="Background_Simple" style="display:none;">
	<path style="display:inline;fill:#F5F5F5;" d="M423.871,132.358l-2.118-3.447c-17.859-29.061-50.149-46.58-84.193-44.454
		c-4.376,0.273-8.734,0.858-13.033,1.767c-30.953,6.543-57.886,29.656-69.049,59.258c-6.566,17.409-8.4,37.454-20.859,51.273
		c-16.215,17.984-43.744,18.549-67.948,17.804s-51.751-0.11-67.887,17.946c-10.106,11.307-13.318,27.388-12.503,42.531
		c2.158,40.092,30.449,75.941,66.429,93.76s78.342,19.415,117.72,11.576c55.164-10.981,107.624-41.136,139.157-87.712
		C441.12,246.083,449.101,182.628,423.871,132.358z"/>
</g>
<g id="Floor">
	<g>
		<g>
			<path style="fill:#263238;" d="M463.965,452.359c0,0.144-95.803,0.26-213.955,0.26c-118.193,0-213.976-0.117-213.976-0.26
				s95.783-0.26,213.976-0.26C368.162,452.099,463.965,452.215,463.965,452.359z"/>
		</g>
	</g>
</g>
<g id="Character">
	<g>
		<g>
			<rect x="112.661" y="413.96" style="fill:#263238;" width="11.903" height="38.399"/>
		</g>
		<g>
			<rect x="236.47" y="413.96" style="fill:#263238;" width="11.903" height="38.399"/>
		</g>
		<g>
			<rect x="161.58" y="413.96" style="fill:#263238;" width="11.903" height="38.399"/>
		</g>
		<g>
			<rect x="278.551" y="413.96" style="fill:#263238;" width="11.903" height="38.399"/>
		</g>
		<g>
			<path style="fill:#455A64;" d="M290.729,417.891c8.34,0.069,15.554-5.799,17.167-13.982c2.851-14.47,6.521-34.707,6.636-57.432
				c0.071-13.937-3.045-31.588-7.357-44.841c-6.299-19.36-19.775-36.414-39.352-42.002c-25.426-7.257-34.628-4.472-52.658,4.983
				c-19.613,10.285-24.921,29.578-45.336,38.161c-19.821,8.333-43.723,5.488-61.793,17.141
				c-15.894,10.25-23.645,29.945-24.276,48.847c-0.4,11.989,0.684,20.574,2.903,29.877c2.46,10.317,11.605,17.652,22.211,17.74
				L290.729,417.891z"/>
		</g>
		<g>
			<g>
				<g>
					<polygon style="fill:#FFBE9D;" points="138.659,355.7 84.056,427.897 64.993,423.682 108.986,346.477 					"/>
				</g>
				<g>
					<g>
						<g>
							<path style="fill:#E8505B;" d="M84.674,426.971l-17.476,26.216L34.47,431.611c2.252-3,23.322,1.885,23.322,1.885L68.3,416.24
								L84.674,426.971z"/>
						</g>
					</g>
					<g style="opacity:0.6;">
						<g>
							<path style="fill:#FFFFFF;" d="M68.847,438.75c0.519,0.591,0.487,1.591-0.081,2.135c-0.569,0.543-1.587,0.52-2.116-0.062
								c-0.529-0.582-0.528-1.784,0.098-2.26c0.626-0.476,1.82-0.383,2.194,0.309"/>
						</g>
					</g>
					<g style="opacity:0.6;">
						<path style="fill:#FFFFFF;" d="M67.198,453.187l1.658-2.711l-31.999-19.673c0,0-1.875-0.327-2.387,0.808L67.198,453.187z"/>
					</g>
					<g>
						<g>
							<path style="fill:#263238;" d="M57.371,432.98c-0.1,0.163,0.651,0.763,1.099,1.795c0.475,1.021,0.424,1.98,0.612,2.014
								c0.168,0.066,0.559-1.046-0.005-2.287C58.525,433.257,57.433,432.811,57.371,432.98z"/>
						</g>
					</g>
					<g>
						<g>
							<path style="fill:#263238;" d="M53.002,432.137c-0.139,0.131,0.375,0.859,0.472,1.893c0.128,1.031-0.217,1.852-0.054,1.95
								c0.134,0.124,0.861-0.739,0.716-2.022C54.002,432.674,53.106,431.987,53.002,432.137z"/>
						</g>
					</g>
					<g>
						<g>
							<path style="fill:#263238;" d="M48.344,434.96c0.123,0.13,0.872-0.522,1.038-1.668c0.175-1.145-0.351-1.987-0.507-1.898
								c-0.177,0.072-0.001,0.861-0.153,1.8C48.595,434.136,48.196,434.84,48.344,434.96z"/>
						</g>
					</g>
					<g>
						<g>
							<path style="fill:#263238;" d="M60.202,429.313c-0.029,0.19,0.849,0.453,1.712,1.109c0.876,0.639,1.379,1.406,1.553,1.324
								c0.169-0.055-0.127-1.098-1.155-1.858C61.292,429.122,60.206,429.136,60.202,429.313z"/>
						</g>
					</g>
					<g>
						<g>
							<path style="fill:#263238;" d="M63.542,425.944c-0.045,0.065,0.521,0.58,1.645,1.072c0.56,0.244,1.26,0.47,2.062,0.604
								c0.401,0.066,0.827,0.11,1.271,0.121c0.215,0.002,0.458,0.023,0.749-0.059c0.287-0.05,0.667-0.408,0.634-0.802
								c-0.002-0.362-0.227-0.666-0.459-0.827c-0.236-0.167-0.464-0.247-0.671-0.32c-0.423-0.152-0.844-0.256-1.25-0.322
								c-0.813-0.128-1.558-0.103-2.165-0.004c-1.223,0.202-1.876,0.629-1.841,0.696c0.038,0.1,0.737-0.156,1.892-0.227
								c0.576-0.035,1.265-0.009,2.005,0.14c0.369,0.076,0.751,0.184,1.132,0.33c0.407,0.138,0.703,0.329,0.69,0.542
								c-0.007,0.08-0.018,0.106-0.157,0.16c-0.137,0.044-0.337,0.043-0.549,0.042c-0.414-0.002-0.813-0.03-1.192-0.076
								c-0.758-0.093-1.431-0.26-1.985-0.437C64.242,426.219,63.596,425.855,63.542,425.944z"/>
						</g>
					</g>
					<g>
						<g>
							<path style="fill:#263238;" d="M63.599,426.31c0.04,0.062,0.735-0.302,1.476-1.298c0.366-0.495,0.723-1.153,0.959-1.942
								c0.116-0.395,0.201-0.822,0.239-1.27c0.021-0.45,0.073-1.037-0.5-1.517c-0.316-0.226-0.752-0.15-0.986,0.006
								c-0.254,0.15-0.401,0.326-0.564,0.49c-0.312,0.343-0.552,0.722-0.729,1.103c-0.356,0.765-0.453,1.532-0.416,2.155
								c0.081,1.27,0.621,1.901,0.671,1.855c0.106-0.045-0.248-0.721-0.199-1.858c0.024-0.561,0.158-1.232,0.497-1.882
								c0.168-0.324,0.384-0.643,0.654-0.927c0.281-0.314,0.596-0.509,0.703-0.387c0.164,0.105,0.268,0.549,0.219,0.915
								c-0.025,0.404-0.09,0.793-0.18,1.156c-0.185,0.727-0.469,1.352-0.761,1.845C64.093,425.743,63.528,426.228,63.599,426.31z"/>
						</g>
					</g>
				</g>
			</g>
			<g>
				<path style="fill:#263238;" d="M182.499,324.333h-49.693c-10.879,0-20.983,5.628-26.709,14.878L82.987,376.54l28.74,17.385
					l23.748-31.132l27.038-2.216l58.058-36.244H182.499z"/>
			</g>
			<g>
				<g>
					<polygon style="fill:#FFBE9D;" points="156.452,355.7 101.849,427.897 82.786,423.682 126.779,346.477 					"/>
				</g>
				<g>
					<g>
						<path style="fill:#E8505B;" d="M102.467,426.971l-17.476,26.216l-32.728-21.576c2.252-3,23.322,1.885,23.322,1.885
							l10.508-17.257L102.467,426.971z"/>
					</g>
					<g style="opacity:0.6;">
						<g>
							<path style="fill:#FFFFFF;" d="M86.64,438.75c0.519,0.591,0.487,1.591-0.082,2.135c-0.569,0.543-1.587,0.52-2.116-0.062
								c-0.529-0.582-0.528-1.784,0.098-2.26c0.626-0.476,1.82-0.383,2.194,0.309"/>
						</g>
					</g>
					<g style="opacity:0.6;">
						<path style="fill:#FFFFFF;" d="M84.991,453.187l1.658-2.711L54.65,430.803c0,0-1.875-0.327-2.387,0.808L84.991,453.187z"/>
					</g>
					<g>
						<g>
							<path style="fill:#263238;" d="M75.164,432.98c-0.1,0.163,0.651,0.763,1.099,1.795c0.475,1.021,0.424,1.98,0.612,2.014
								c0.168,0.066,0.559-1.046-0.005-2.287C76.318,433.257,75.226,432.811,75.164,432.98z"/>
						</g>
					</g>
					<g>
						<g>
							<path style="fill:#263238;" d="M70.796,432.137c-0.139,0.131,0.374,0.859,0.471,1.893c0.128,1.031-0.217,1.852-0.054,1.95
								c0.134,0.124,0.861-0.739,0.716-2.022C71.796,432.674,70.899,431.987,70.796,432.137z"/>
						</g>
					</g>
					<g>
						<g>
							<path style="fill:#263238;" d="M66.137,434.96c0.123,0.13,0.872-0.522,1.038-1.668c0.175-1.145-0.351-1.987-0.507-1.898
								c-0.177,0.072-0.001,0.861-0.152,1.8C66.388,434.136,65.989,434.84,66.137,434.96z"/>
						</g>
					</g>
					<g>
						<g>
							<path style="fill:#263238;" d="M77.995,429.313c-0.029,0.19,0.849,0.453,1.712,1.109c0.876,0.639,1.379,1.406,1.553,1.324
								c0.169-0.055-0.127-1.098-1.155-1.858C79.085,429.122,78,429.136,77.995,429.313z"/>
						</g>
					</g>
					<g>
						<g>
							<path style="fill:#263238;" d="M81.335,425.944c-0.045,0.065,0.521,0.58,1.645,1.072c0.56,0.244,1.26,0.47,2.062,0.604
								c0.401,0.066,0.827,0.11,1.271,0.121c0.215,0.002,0.458,0.023,0.749-0.059c0.287-0.05,0.667-0.408,0.634-0.802
								c-0.002-0.362-0.227-0.666-0.459-0.827c-0.236-0.167-0.464-0.247-0.671-0.32c-0.423-0.152-0.844-0.256-1.25-0.322
								c-0.813-0.128-1.558-0.103-2.165-0.004c-1.223,0.202-1.876,0.629-1.841,0.696c0.038,0.1,0.737-0.156,1.892-0.227
								c0.576-0.035,1.265-0.009,2.005,0.14c0.369,0.076,0.751,0.184,1.132,0.33c0.407,0.138,0.703,0.329,0.69,0.542
								c-0.007,0.08-0.018,0.106-0.157,0.16c-0.137,0.044-0.337,0.043-0.549,0.042c-0.414-0.002-0.813-0.03-1.192-0.076
								c-0.758-0.093-1.431-0.26-1.985-0.437C82.035,426.219,81.389,425.855,81.335,425.944z"/>
						</g>
					</g>
					<g>
						<g>
							<path style="fill:#263238;" d="M81.392,426.31c0.04,0.062,0.735-0.302,1.476-1.298c0.366-0.495,0.723-1.153,0.96-1.942
								c0.116-0.395,0.201-0.822,0.238-1.27c0.021-0.45,0.073-1.037-0.5-1.517c-0.316-0.226-0.752-0.15-0.986,0.006
								c-0.254,0.15-0.401,0.326-0.564,0.49c-0.312,0.343-0.552,0.722-0.729,1.103c-0.356,0.765-0.453,1.532-0.416,2.155
								c0.08,1.27,0.621,1.901,0.671,1.855c0.106-0.045-0.248-0.721-0.199-1.858c0.024-0.561,0.159-1.232,0.497-1.882
								c0.168-0.324,0.384-0.643,0.654-0.927c0.281-0.314,0.596-0.509,0.703-0.387c0.164,0.105,0.268,0.549,0.219,0.915
								c-0.026,0.404-0.09,0.793-0.18,1.156c-0.185,0.727-0.469,1.352-0.761,1.845C81.886,425.743,81.321,426.228,81.392,426.31z"/>
						</g>
					</g>
				</g>
			</g>
			<g>
				<path style="fill:#263238;" d="M200.292,324.333h-51.414c-9.808,0-18.919,5.075-24.081,13.414l-24.015,38.792l28.74,17.385
					l25.666-33.646l25.121,0.298l55.886-34.888L200.292,324.333z"/>
			</g>
			<g>
				<g>
					<path style="fill:#455A64;" d="M129.521,393.925c-0.007,0.011-0.194-0.088-0.55-0.29c-0.382-0.221-0.902-0.522-1.565-0.906
						c-1.392-0.824-3.38-2.002-5.892-3.489c-5.081-3.047-12.274-7.36-20.852-12.503l-0.199-0.12l0.123-0.198
						c4.564-7.383,9.703-16.068,15.433-25.128c4.662-7.363,9.338-14.24,13.985-20.203c1.157-1.561,2.784-2.629,4.404-3.402
						c1.631-0.789,3.31-1.31,4.943-1.729c3.275-0.82,6.397-1.209,9.244-1.457c5.702-0.474,10.333-0.401,13.523-0.329
						c1.596,0.043,2.835,0.099,3.674,0.146c0.396,0.026,0.711,0.046,0.954,0.062c0.215,0.017,0.325,0.03,0.324,0.039
						c0,0.009-0.111,0.014-0.327,0.014c-0.243-0.003-0.559-0.006-0.956-0.01c-0.874-0.011-2.105-0.027-3.674-0.048
						c-3.188-0.01-7.812-0.026-13.487,0.493c-2.832,0.27-5.935,0.68-9.17,1.509c-1.611,0.423-3.264,0.946-4.851,1.723
						c-1.585,0.767-3.125,1.789-4.225,3.284c-4.613,5.962-9.267,12.833-13.924,20.188c-5.723,9.05-10.882,17.725-15.481,25.091
						l-0.076-0.318c8.537,5.21,15.697,9.578,20.754,12.665c2.484,1.534,4.449,2.749,5.826,3.599c0.648,0.409,1.156,0.73,1.529,0.966
						C129.353,393.794,129.527,393.914,129.521,393.925z"/>
				</g>
			</g>
			<g>
				<g>
					<path style="fill:#EB996E;" d="M107.47,380.404c0.125,0.072-4.436,8.212-10.185,18.178c-5.751,9.97-10.512,17.992-10.637,17.92
						c-0.124-0.072,4.435-8.21,10.186-18.18C102.583,388.355,107.346,380.332,107.47,380.404z"/>
				</g>
			</g>
		</g>
		<g>
			<g>
				<path style="fill:#263238;" d="M276.809,263.192c0.008-0.004,0.073,0.118,0.192,0.361c0.127,0.266,0.298,0.625,0.516,1.082
					c0.455,0.982,1.106,2.388,1.939,4.185c0.419,0.913,0.883,1.925,1.391,3.031c0.496,1.113,0.933,2.365,1.458,3.688
					c0.512,1.329,1.06,2.749,1.64,4.254c0.617,1.494,1.125,3.122,1.663,4.832c0.544,1.708,1.115,3.496,1.708,5.359
					c0.318,0.926,0.56,1.894,0.81,2.879c0.254,0.985,0.512,1.987,0.775,3.008c0.263,1.021,0.53,2.058,0.801,3.113
					c0.136,0.527,0.272,1.059,0.41,1.594c0.111,0.542,0.223,1.087,0.335,1.637c0.441,2.201,0.895,4.467,1.36,6.79
					c1.624,9.334,2.817,19.707,3.14,30.643c0.256,10.941-0.3,21.361-1.212,30.791c-0.568,4.703-1.025,9.184-1.746,13.337
					c-0.336,2.079-0.617,4.095-0.966,6.018c-0.371,1.919-0.727,3.762-1.066,5.521c-0.633,3.526-1.414,6.673-2.042,9.447
					c-0.322,1.384-0.622,2.673-0.898,3.862c-0.313,1.175-0.599,2.251-0.858,3.221c-0.517,1.912-0.921,3.407-1.203,4.452
					c-0.138,0.488-0.246,0.87-0.326,1.154c-0.076,0.259-0.119,0.391-0.128,0.388c-0.009-0.002,0.018-0.139,0.077-0.402
					c0.068-0.287,0.159-0.674,0.276-1.167c0.26-1.05,0.632-2.552,1.108-4.474c0.245-0.973,0.516-2.051,0.813-3.23
					c0.263-1.19,0.549-2.482,0.856-3.868c0.6-2.778,1.355-5.926,1.964-9.453c0.329-1.759,0.673-3.601,1.032-5.519
					c0.338-1.923,0.609-3.937,0.935-6.014c0.701-4.149,1.142-8.624,1.696-13.32c0.884-9.415,1.424-19.813,1.169-30.728
					c-0.322-10.91-1.498-21.257-3.092-30.573c-0.457-2.319-0.902-4.58-1.335-6.777c-0.11-0.549-0.22-1.094-0.328-1.634
					c-0.135-0.535-0.27-1.065-0.403-1.592c-0.266-1.053-0.528-2.089-0.786-3.108c-0.257-1.019-0.51-2.021-0.759-3.004
					c-0.245-0.984-0.481-1.952-0.793-2.877c-0.581-1.862-1.14-3.65-1.673-5.358c-0.526-1.709-1.021-3.339-1.625-4.834
					c-0.566-1.507-1.1-2.929-1.599-4.26c-0.511-1.325-0.934-2.581-1.416-3.698c-0.491-1.111-0.941-2.128-1.347-3.045
					c-0.794-1.814-1.415-3.231-1.849-4.222c-0.198-0.467-0.354-0.833-0.469-1.104C276.849,263.326,276.801,263.196,276.809,263.192z
					"/>
			</g>
		</g>
		<g>
			<g>
				<path style="fill:#263238;" d="M146.179,394.318c0.076,0.006,0.033,1.207-0.016,3.145c-0.049,1.938-0.084,4.613-0.001,7.567
					c0.085,2.954,0.271,5.624,0.431,7.556c0.158,1.932,0.27,3.128,0.194,3.138c-0.066,0.009-0.307-1.17-0.56-3.1
					c-0.254-1.929-0.499-4.609-0.585-7.58c-0.083-2.969,0.01-5.659,0.154-7.599C145.938,395.505,146.112,394.313,146.179,394.318z"
					/>
			</g>
		</g>
		<g>
			<g>
				<polygon style="fill:#FFBE9D;" points="191.322,276.663 181.143,311.492 143.465,315.533 143.465,322.221 198.827,322.985 
					206.365,277.631 				"/>
			</g>
			<g>
				<path style="fill:#E8505B;" d="M263.715,253.82c-4.448-10.208-17.034-13.714-23.72-13.728c-9.329-0.02-8.485-0.591-17.652,1.059
					l-1.209-0.039c-27.879-1.132-31.084,37.158-31.084,37.158l12.706,1.037v0l-3.355,26.378l-9.732,18.67l53.534-0.088l2.998-43.586
					l23.83-0.64C270.032,280.043,267.829,263.262,263.715,253.82z"/>
			</g>
			<g>
				<g>
					<path style="fill:#263238;" d="M204.299,262.099c0.143,0.016-0.798,9.313-2.102,20.761c-1.304,11.453-2.477,20.721-2.62,20.705
						c-0.143-0.016,0.798-9.311,2.102-20.763C202.983,271.353,204.156,262.083,204.299,262.099z"/>
				</g>
			</g>
			<g>
				<g>
					<path style="fill:#263238;" d="M242.77,239.981c0.018-0.001,0.042,0.162,0.07,0.474c0.027,0.312,0.056,0.772,0.066,1.367
						c0.022,1.183-0.066,2.942-0.701,4.992c-0.595,2.024-1.621,4.484-3.676,6.5c-1.01,1.007-2.278,1.883-3.749,2.426
						c-1.47,0.542-3.087,0.751-4.717,0.781c-1.632,0.015-3.223-0.051-4.753-0.336c-1.522-0.282-2.971-0.854-4.114-1.741
						c-2.303-1.782-3.399-4.286-3.905-6.337c-0.538-2.075-0.586-3.828-0.538-5.012c0.021-0.595,0.065-1.054,0.098-1.365
						c0.037-0.311,0.065-0.473,0.083-0.472c0.041,0.002,0.008,0.659,0.021,1.839c0.015,1.178,0.118,2.891,0.691,4.915
						c0.538,1.996,1.643,4.386,3.838,6.049c1.086,0.825,2.448,1.355,3.92,1.622c1.471,0.268,3.051,0.333,4.649,0.317
						c1.596-0.029,3.152-0.23,4.552-0.739c1.397-0.508,2.609-1.332,3.589-2.29c1.996-1.923,3.025-4.272,3.661-6.267
						c0.667-1.996,0.81-3.707,0.85-4.884C242.743,240.639,242.728,239.982,242.77,239.981z"/>
				</g>
			</g>
			<g style="opacity:0.2;">
				<g>
					<path d="M245.216,262.101c-2.283,10.912-5.259,22.129-7.542,33.041c-0.485,2.319-1.006,4.72-2.423,6.619
						c-0.885,1.186-2.072,2.108-3.256,2.996c-4.5,3.377-9.244,6.538-14.529,8.465c7.635-0.645,15.214-1.964,22.618-3.937
						c1.254-0.334,2.588-0.741,3.397-1.756c0.715-0.897,0.882-2.101,1.016-3.24C246.14,290.297,245.665,276.182,245.216,262.101"/>
				</g>
			</g>
			<g>
				<g>
					<path style="fill:#FFBE9D;" d="M171.249,310.659l16.598-1.995l11.695,7.669l44.723-10.719l1.309-24.958l20.074-0.494
						l-0.468,29.288c-0.199,9.43-8.037,16.895-17.465,16.634l-65.504-1.814l-2.781-5.574l-14.054-0.418L171.249,310.659z"/>
				</g>
				<g>
					<g>
						<path style="fill:#EB996E;" d="M244.265,305.614c0.004,0.018-0.285,0.105-0.84,0.255c-0.601,0.156-1.412,0.368-2.434,0.634
							c-2.167,0.54-5.221,1.301-8.975,2.236c-7.631,1.849-18.095,4.385-29.655,7.186c-0.928,0.222-1.849,0.443-2.759,0.661
							l-0.109,0.026l-0.094-0.062c-4.135-2.72-8.074-5.311-11.684-7.685l0.16,0.038c-6.567,0.759-12.253,1.416-16.607,1.919
							l0.109-0.062c-1.856,2.356-3.336,4.236-4.385,5.567c-0.495,0.613-0.887,1.099-1.183,1.465
							c-0.272,0.329-0.42,0.496-0.432,0.486c-0.012-0.009,0.111-0.194,0.36-0.541c0.279-0.379,0.649-0.882,1.116-1.517
							c1.02-1.353,2.46-3.263,4.266-5.658l0.041-0.054l0.069-0.009c4.349-0.543,10.029-1.252,16.589-2.072l0.086-0.011l0.074,0.048
							c3.617,2.364,7.563,4.943,11.706,7.652l-0.203-0.035c0.91-0.218,1.831-0.439,2.759-0.662
							c11.573-2.743,22.05-5.227,29.69-7.038c3.77-0.868,6.837-1.574,9.013-2.075c1.032-0.226,1.851-0.406,2.457-0.539
							C243.964,305.65,244.261,305.596,244.265,305.614z"/>
					</g>
				</g>
				<g>
					<g>
						<path style="fill:#EB996E;" d="M180.884,315.417c0,0.144-2.887,0.26-6.447,0.26c-0.403-0.001-0.796-0.003-1.18-0.004
							l0.166-0.061c-2.3,1.926-4.097,3.314-4.18,3.217c-0.083-0.097,1.577-1.647,3.848-3.607l0.07-0.061l0.096,0
							c0.383-0.001,0.777-0.003,1.18-0.004C177.997,315.157,180.884,315.273,180.884,315.417z"/>
					</g>
				</g>
				<g>
					<g>
						<path style="fill:#EB996E;" d="M252.082,309.786c-0.137,0.085-0.998-2.012-3.258-3.401c-2.23-1.437-4.493-1.306-4.476-1.467
							c-0.006-0.058,0.543-0.187,1.443-0.113c0.896,0.069,2.134,0.402,3.31,1.139c1.173,0.741,2.009,1.714,2.459,2.491
							C252.015,309.216,252.137,309.766,252.082,309.786z"/>
					</g>
				</g>
			</g>
			<g>
				<g>
					<path style="fill:#263238;" d="M270.413,280.161c0.001,0.036-0.637,0.083-1.791,0.137c-1.239,0.046-2.888,0.106-4.888,0.18
						c-4.128,0.129-9.83,0.272-16.129,0.397c-0.694,0.013-1.38,0.027-2.025,0.039l-0.255,0.005l-0.01-0.251
						c-0.227-5.849-0.123-11.048-0.013-14.789c0.058-1.87,0.129-3.374,0.193-4.41c0.063-1.036,0.115-1.605,0.148-1.604
						c0.034,0.001,0.048,0.572,0.044,1.61c-0.008,1.121-0.019,2.606-0.033,4.411c-0.018,3.736-0.059,8.939,0.178,14.756
						l-0.264-0.246c0.645-0.013,1.331-0.027,2.025-0.041c6.299-0.125,12.003-0.21,16.133-0.245c2.001-0.006,3.651-0.011,4.891-0.014
						C269.773,280.103,270.412,280.125,270.413,280.161z"/>
				</g>
			</g>
		</g>
		<g>
			<g>
				<path style="fill:#FAFAFA;" d="M289.254,346.895c-0.099,0.105-2.535-2.038-5.441-4.784c-2.907-2.747-5.182-5.059-5.083-5.163
					c0.099-0.105,2.534,2.037,5.441,4.785C287.077,344.478,289.353,346.79,289.254,346.895z"/>
			</g>
		</g>
		<g>
			<g>
				<path style="fill:#FAFAFA;" d="M276.433,397.984c0.034,0.066-0.772,0.542-2.078,1.298c-1.307,0.755-3.108,1.799-5.071,2.997
					c-1.963,1.2-3.714,2.326-4.983,3.144c-1.268,0.817-2.059,1.317-2.103,1.257c-0.041-0.056,0.675-0.662,1.894-1.56
					c1.219-0.898,2.947-2.08,4.92-3.286c1.972-1.204,3.813-2.203,5.168-2.877C275.536,398.283,276.402,397.922,276.433,397.984z"/>
			</g>
		</g>
		<g>
			<g>
				<path style="fill:#FAFAFA;" d="M299.659,292.044c-0.117,0.084-1.86-2.138-3.893-4.962c-2.034-2.825-3.587-5.183-3.471-5.267
					c0.117-0.084,1.86,2.138,3.893,4.963C298.221,289.602,299.775,291.96,299.659,292.044z"/>
			</g>
		</g>
		<g>
			<g>
				<path style="fill:#FAFAFA;" d="M304.151,305.089c0.129,0.063-0.912,2.476-2.327,5.39c-1.415,2.914-2.666,5.226-2.796,5.163
					c-0.129-0.063,0.912-2.476,2.327-5.39C302.77,307.337,304.021,305.026,304.151,305.089z"/>
			</g>
		</g>
		<g>
			<g>
				<path style="fill:#FAFAFA;" d="M307.807,346.966c-0.128,0.064-2.031-3.459-4.248-7.87c-2.218-4.412-3.912-8.04-3.783-8.104
					c0.128-0.064,2.03,3.459,4.249,7.87C306.241,343.273,307.935,346.902,307.807,346.966z"/>
			</g>
		</g>
		<g>
			<g>
				<path style="fill:#FAFAFA;" d="M307.324,365.511c0.118,0.082-1.694,2.888-4.046,6.266c-2.353,3.379-4.356,6.051-4.474,5.969
					c-0.118-0.082,1.693-2.887,4.047-6.266C305.203,368.101,307.206,365.429,307.324,365.511z"/>
			</g>
		</g>
		<g>
			<g>
				<path style="fill:#FAFAFA;" d="M301.288,404.552c0.105,0.098-1.024,1.47-2.521,3.064c-1.498,1.594-2.796,2.806-2.901,2.707
					c-0.105-0.098,1.024-1.47,2.522-3.064C299.884,405.665,301.183,404.453,301.288,404.552z"/>
			</g>
		</g>
		<g>
			<g>
				<path style="fill:#FAFAFA;" d="M92.879,357.866c-0.137-0.043,0.859-3.647,2.225-8.05c1.366-4.404,2.585-7.939,2.723-7.896
					c0.137,0.043-0.859,3.646-2.225,8.05C94.236,354.374,93.017,357.909,92.879,357.866z"/>
			</g>
		</g>
		<g>
			<g>
				<path style="fill:#FAFAFA;" d="M111.218,331.597c-0.026,0.155-2.352-0.196-5.227-0.093c-2.877,0.085-5.174,0.587-5.211,0.435
					c-0.041-0.125,2.249-0.867,5.193-0.955C108.917,330.879,111.251,331.47,111.218,331.597z"/>
			</g>
		</g>
		<g>
			<g>
				<g>
					<g>
						<g>
							<g>
								<g>
									<g>
										<g>
											<g>
												<g>
													<g>
														<g>
															<g>
																<path style="fill:#FFBE9D;" d="M243.255,207.123l-2.521,35.713c-0.412,5.831-5.262,10.35-11.107,10.35l0,0
																	c-6.435,0-11.533-5.441-11.111-11.863c0.224-3.399,0.426-6.183,0.426-6.183s-8.646-1.344-8.753-9.988
																	c-0.095-7.712,2.011-30.542,2.466-35.374l15.594,0C237.242,190.303,244.029,198.148,243.255,207.123z"/>
															</g>
														</g>
													</g>
												</g>
											</g>
										</g>
									</g>
									<g>
										<g>
											<g>
												<g>
													<g>
														<g>
															<g>
																<path style="fill:#EB996E;" d="M218.928,235.016c0,0,5.463,0.444,11.269-3.203c0,0-2.664,6.221-11.29,5.442
																	L218.928,235.016z"/>
															</g>
														</g>
													</g>
												</g>
											</g>
										</g>
									</g>
								</g>
							</g>
						</g>
						<g>
							<g>
								<g>
									<g>
										<g>
											<g>
												<g>
													<g>
														<g>
															<g>
																<g>
																	<g>
																		<g>
																			<path style="fill:#263238;" d="M213.984,210.518c-0.023,0.652,0.51,1.209,1.19,1.246
																				c0.679,0.036,1.249-0.461,1.272-1.113c0.023-0.652-0.51-1.21-1.189-1.246
																				C214.577,209.368,214.007,209.867,213.984,210.518z"/>
																		</g>
																	</g>
																</g>
															</g>
														</g>
													</g>
												</g>
												<g>
													<g>
														<g>
															<g>
																<g>
																	<g>
																		<g>
																			<g>
																				<path style="fill:#263238;" d="M213.217,208.819c0.153,0.161,1.088-0.531,2.417-0.528
																					c1.327-0.015,2.302,0.668,2.446,0.505c0.071-0.072-0.085-0.363-0.51-0.672c-0.418-0.308-1.13-0.607-1.958-0.604
																					c-0.827,0.005-1.524,0.309-1.924,0.621C213.28,208.455,213.142,208.747,213.217,208.819z"/>
																			</g>
																		</g>
																	</g>
																</g>
															</g>
														</g>
													</g>
												</g>
											</g>
											<g>
												<g>
													<g>
														<g>
															<g>
																<g>
																	<g>
																		<g>
																			<path style="fill:#263238;" d="M226.496,210.876c-0.023,0.652,0.51,1.209,1.19,1.245
																				c0.679,0.036,1.249-0.461,1.272-1.113c0.023-0.652-0.51-1.21-1.189-1.246
																				C227.089,209.726,226.519,210.225,226.496,210.876z"/>
																		</g>
																	</g>
																</g>
															</g>
														</g>
													</g>
												</g>
												<g>
													<g>
														<g>
															<g>
																<g>
																	<g>
																		<g>
																			<g>
																				<path style="fill:#263238;" d="M226.274,209.066c0.153,0.161,1.09-0.531,2.417-0.527
																					c1.327-0.016,2.302,0.668,2.446,0.505c0.07-0.072-0.084-0.362-0.51-0.672c-0.418-0.308-1.13-0.607-1.958-0.604
																					c-0.828,0.005-1.523,0.309-1.924,0.621C226.339,208.703,226.2,208.994,226.274,209.066z"/>
																			</g>
																		</g>
																	</g>
																</g>
															</g>
														</g>
													</g>
												</g>
											</g>
											<g>
												<g>
													<g>
														<g>
															<g>
																<g>
																	<g>
																		<g>
																			<path style="fill:#263238;" d="M221.454,218.918c0.006-0.076-0.82-0.218-2.158-0.389
																				c-0.339-0.035-0.66-0.102-0.717-0.334c-0.08-0.245,0.062-0.611,0.226-1.005c0.319-0.821,0.653-1.681,1.003-2.583
																				c1.393-3.678,2.401-6.701,2.253-6.756c-0.149-0.055-1.398,2.882-2.791,6.559
																				c-0.335,0.907-0.656,1.771-0.961,2.598c-0.128,0.385-0.349,0.823-0.176,1.331
																				c0.091,0.253,0.34,0.438,0.558,0.496c0.217,0.066,0.408,0.07,0.576,0.08
																				C220.613,218.987,221.448,218.993,221.454,218.918z"/>
																		</g>
																	</g>
																</g>
															</g>
														</g>
													</g>
												</g>
											</g>
											<g>
												<g>
													<g>
														<g>
															<g>
																<g>
																	<g>
																		<g>
																			<path style="fill:#263238;" d="M225.363,219.837c-0.216-0.013-0.219,1.429-1.453,2.453
																				c-1.232,1.027-2.769,0.865-2.78,1.066c-0.02,0.09,0.342,0.28,0.991,0.298c0.636,0.022,1.566-0.183,2.321-0.809
																				c0.753-0.628,1.077-1.465,1.126-2.057C225.622,220.186,225.462,219.828,225.363,219.837z"/>
																		</g>
																	</g>
																</g>
															</g>
														</g>
													</g>
												</g>
											</g>
										</g>
									</g>
								</g>
								<g>
									<g>
										<g>
											<g>
												<g>
													<g>
														<g>
															<path style="fill:#263238;" d="M225.932,203.861c0.131,0.361,1.457,0.19,3.016,0.378
																c1.563,0.156,2.819,0.613,3.026,0.289c0.092-0.155-0.127-0.495-0.635-0.844c-0.504-0.349-1.307-0.681-2.243-0.785
																c-0.936-0.102-1.792,0.046-2.36,0.277C226.163,203.405,225.875,203.689,225.932,203.861z"/>
														</g>
													</g>
												</g>
											</g>
										</g>
									</g>
								</g>
								<g>
									<g>
										<g>
											<g>
												<g>
													<g>
														<g>
															<path style="fill:#263238;" d="M213.705,204.974c0.234,0.302,1.149-0.012,2.249-0.026
																c1.1-0.053,2.032,0.203,2.247-0.113c0.094-0.153-0.053-0.455-0.46-0.741c-0.401-0.285-1.072-0.517-1.828-0.494
																c-0.756,0.024-1.411,0.297-1.794,0.606C213.73,204.516,213.602,204.827,213.705,204.974z"/>
														</g>
													</g>
												</g>
											</g>
										</g>
									</g>
								</g>
							</g>
						</g>
						<g>
							<g>
								<g>
									<g>
										<g>
											<g>
												<g>
													<g>
														<path style="fill:#FFBE9D;" d="M240.341,213.611c0.147-0.064,5.939-1.757,5.751,4.153
															c-0.189,5.91-6.083,4.501-6.088,4.331C239.998,221.926,240.341,213.611,240.341,213.611z"/>
													</g>
												</g>
											</g>
										</g>
									</g>
								</g>
							</g>
							<g>
								<g>
									<g>
										<g>
											<g>
												<g>
													<g>
														<g>
															<path style="fill:#EB996E;" d="M241.88,219.914c0.027-0.018,0.101,0.075,0.272,0.161
																c0.167,0.083,0.457,0.146,0.769,0.04c0.632-0.209,1.189-1.184,1.252-2.248c0.032-0.537-0.064-1.053-0.241-1.483
																c-0.167-0.438-0.437-0.749-0.749-0.815c-0.31-0.082-0.539,0.099-0.617,0.263c-0.084,0.163-0.051,0.282-0.082,0.291
																c-0.017,0.014-0.124-0.103-0.068-0.346c0.028-0.117,0.102-0.254,0.244-0.363c0.146-0.111,0.356-0.163,0.574-0.132
																c0.455,0.046,0.852,0.478,1.046,0.951c0.22,0.475,0.34,1.055,0.304,1.658c-0.076,1.19-0.721,2.285-1.583,2.504
																c-0.419,0.095-0.762-0.041-0.937-0.186C241.886,220.057,241.859,219.924,241.88,219.914z"/>
														</g>
													</g>
												</g>
											</g>
										</g>
									</g>
								</g>
							</g>
						</g>
					</g>
				</g>
				<g>
					<g>
						<g>
							<path style="fill:#263238;" d="M243.628,213.411c-0.901-0.218-2.46,0.614-2.845,1.458c-0.385,0.844-0.469,1.8-0.852,2.645
								c-0.383,0.844-1.249,1.608-2.152,1.395c-0.622-0.147-1.067-0.73-1.232-1.349c-0.164-0.618-0.098-1.272-0.018-1.906
								c0.348-2.76,0.928-5.497,1.039-8.276c0.111-2.78-0.285-5.667-1.744-8.036c-1.46-2.368-4.14-4.109-6.913-3.886
								c-1.837,0.148-3.521,1.106-5.346,1.361c-2.163,0.303-4.451-0.461-5.998-2.002c-0.198-0.197-1.121-0.806-1.121-0.806
								c0-0.143,0.135-1.378,0.622-1.827c3.62-3.348,10.143-4.282,14.925-3.079c4.782,1.203,9.264,4.579,11.321,9.06
								C245.372,202.644,244.762,208.876,243.628,213.411"/>
						</g>
					</g>
				</g>
			</g>
			<g>
				<path style="fill:#263238;" d="M243.458,212.903c0.322-2.896,1.767-5.538,2.51-8.355c0.743-2.818,0.586-6.248-1.668-8.095
					c-0.77-0.631-1.725-1.021-2.442-1.712c-0.721-0.695-1.142-1.634-1.677-2.479c-1.656-2.614-4.57-4.388-7.652-4.659
					c-2.131-0.188-4.274,0.303-6.408,0.168c-3.382-0.214-6.577-1.985-9.962-1.835c-1.124,0.05-2.322,0.366-3.024,1.245
					c-0.702,0.879-0.599,2.421,0.415,2.906c-0.529-0.865-1.944-0.837-2.617-0.078c-0.672,0.759-0.655,1.956-0.185,2.854
					c0.471,0.898,1.309,1.545,2.179,2.066c2.865,1.72,6.36,2.364,9.65,1.779l6.382-3.475l7.219,1.592l6.871,4.59l-3.046,12.709
					L243.458,212.903z"/>
			</g>
		</g>
		<g>
			<g>
				<path style="fill:#E0E0E0;" d="M96.111,283.179l20.933,41.154h66.021l-2.672-5.378l-19.126-0.568l-15.581-34.693
					c-0.974-2.169-3.131-3.565-5.509-3.565H97.982C96.416,280.129,95.401,281.783,96.111,283.179z"/>
			</g>
			<g>
				<circle style="fill:#263238;" cx="127.188" cy="301.386" r="2.699"/>
			</g>
		</g>
		<g>
			<g>
				<g>
					<path style="fill:#455A64;" d="M272.516,282.331c-0.153,11.531-7.179,22.151-16.344,29.15
						c-9.165,6.999-20.295,10.886-31.377,14.077c-11.082,3.191-22.409,5.827-32.834,10.758
						c-14.436,6.829-27.805,16.201-35.959,29.932c-8.154,13.731-11.061,31.767-10.148,47.711l122.595-12.258l6.714-69.681
						L272.516,282.331z"/>
				</g>
				<g>
					<g>
						<path style="fill:#263238;" d="M224.795,325.558c0.002,0.009-0.088,0.036-0.264,0.081c-0.206,0.049-0.463,0.11-0.783,0.186
							c-0.688,0.166-1.712,0.364-3.017,0.685c-2.616,0.608-6.385,1.565-10.972,2.977c-4.583,1.42-9.985,3.315-15.791,5.869
							c-5.78,2.591-12.004,5.822-17.879,10.176c-2.902,2.212-5.568,4.608-8.043,7.005c-2.47,2.405-4.729,4.855-6.709,7.328
							c-4.002,4.914-6.951,9.848-8.972,14.188c-1.997,4.356-3.173,8.075-3.793,10.682c-0.373,1.29-0.514,2.326-0.689,3.012
							c-0.073,0.321-0.132,0.579-0.179,0.785c-0.043,0.176-0.07,0.266-0.079,0.265c-0.009-0.001,0-0.094,0.026-0.274
							c0.034-0.209,0.076-0.47,0.128-0.795c0.141-0.693,0.251-1.738,0.595-3.04c0.561-2.632,1.689-6.386,3.656-10.789
							c1.99-4.386,4.927-9.374,8.933-14.335c1.982-2.496,4.247-4.967,6.726-7.391c2.486-2.417,5.153-4.82,8.087-7.056
							c5.923-4.389,12.184-7.621,17.998-10.198c5.839-2.539,11.269-4.403,15.878-5.782c4.613-1.37,8.402-2.275,11.035-2.823
							c1.313-0.291,2.345-0.457,3.04-0.59c0.324-0.055,0.585-0.1,0.794-0.135C224.701,325.559,224.794,325.549,224.795,325.558z"/>
					</g>
				</g>
				<g>
					<g>
						<path style="fill:#FAFAFA;" d="M251.098,384.1c0.072,0.125-3.733,2.452-8.496,5.198c-4.766,2.747-8.686,4.872-8.757,4.747
							c-0.072-0.125,3.732-2.452,8.497-5.198C247.106,386.101,251.027,383.976,251.098,384.1z"/>
					</g>
				</g>
				<g>
					<g>
						<path style="fill:#FAFAFA;" d="M195.785,387.62c-0.054,0.051-0.806-0.668-2.006-1.841c-1.2-1.173-2.854-2.794-4.711-4.554
							c-1.858-1.76-3.566-3.325-4.802-4.459c-1.236-1.135-1.994-1.847-1.946-1.904c0.045-0.053,0.887,0.56,2.188,1.626
							c1.301,1.066,3.054,2.594,4.919,4.359c1.863,1.766,3.482,3.434,4.617,4.676C195.178,386.765,195.835,387.573,195.785,387.62z"
							/>
					</g>
				</g>
				<g>
					<g>
						<path style="fill:#FAFAFA;" d="M221.365,353.409c0.139,0.037-0.621,3.357-1.697,7.415c-1.077,4.059-2.062,7.319-2.201,7.282
							c-0.139-0.037,0.621-3.356,1.698-7.415C220.241,356.633,221.226,353.372,221.365,353.409z"/>
					</g>
				</g>
				<g>
					<g>
						<path style="fill:#FAFAFA;" d="M270.343,361.938c-0.058,0.132-3.62-1.323-7.955-3.249c-4.336-1.926-7.803-3.594-7.745-3.725
							c0.058-0.131,3.62,1.323,7.956,3.249C266.934,360.139,270.401,361.807,270.343,361.938z"/>
					</g>
				</g>
				<g>
					<g>
						<path style="fill:#FAFAFA;" d="M214.036,407.187c-0.142,0.023-0.716-2.83-1.283-6.37c-0.567-3.542-0.911-6.431-0.769-6.453
							c0.142-0.023,0.716,2.829,1.283,6.371C213.834,404.275,214.178,407.164,214.036,407.187z"/>
					</g>
				</g>
				<g>
					<g>
						<path style="fill:#FAFAFA;" d="M171.357,404.357c-0.108,0.095-2.707-2.688-5.804-6.214c-3.098-3.528-5.522-6.464-5.413-6.559
							c0.108-0.095,2.706,2.687,5.805,6.215C169.041,401.326,171.465,404.263,171.357,404.357z"/>
					</g>
				</g>
				<g>
					<g>
						<path style="fill:#FAFAFA;" d="M205.382,341.921c0.064,0.129-2.748,1.665-6.28,3.431c-3.534,1.767-6.449,3.094-6.514,2.966
							c-0.064-0.129,2.747-1.665,6.281-3.432C202.401,343.12,205.318,341.792,205.382,341.921z"/>
					</g>
				</g>
				<g>
					<g>
						<path style="fill:#FAFAFA;" d="M253.984,333.746c0,0.144-3.437,0.259-7.676,0.256c-4.24-0.002-7.676-0.121-7.676-0.265
							c0-0.144,3.436-0.259,7.677-0.256C250.547,333.483,253.984,333.602,253.984,333.746z"/>
					</g>
				</g>
			</g>
			<g>
				<g>
					<path style="fill:#FAFAFA;" d="M273.477,300.041c0.13,0.042-0.649,2.711-2.103,5.808c-1.445,3.102-2.994,5.411-3.109,5.338
						c-0.13-0.078,1.206-2.486,2.637-5.559C272.343,302.561,273.335,299.991,273.477,300.041z"/>
				</g>
			</g>
		</g>
	</g>
</g>
<g id="Social_Media">
	<g>
		<g>
			<g>
				<path style="fill:#263238;" d="M306.254,221.687c1.787-1.126,2.824-3.335,2.447-5.672c-0.497-3.061-3.226-5.166-6.096-4.701
					c-2.869,0.464-4.794,3.322-4.297,6.382c0.383,2.358,2.093,4.134,4.17,4.62c-7.791,2.534-5.982,11.159-5.982,11.159l18.911-3.059
					C315.406,230.416,314.375,221.564,306.254,221.687z"/>
			</g>
		</g>
	</g>
	<g>
		<g>
			<g>
				<path style="fill:#263238;" d="M188.605,165.221c1.24,0.965,1.462,2.753,0.497,3.992c-0.965,1.24-2.753,1.462-3.992,0.497
					c-1.24-0.965-1.462-2.753-0.497-3.992C185.578,164.478,187.365,164.256,188.605,165.221z"/>
			</g>
		</g>
		<g>
			<g>
				<path style="fill:#263238;" d="M189.012,155.437c1.24,0.965,1.462,2.753,0.497,3.992c-0.965,1.24-2.753,1.462-3.992,0.497
					c-1.24-0.965-1.462-2.753-0.497-3.992C185.985,154.694,187.773,154.472,189.012,155.437z"/>
			</g>
		</g>
		<g>
			<g>
				<path style="fill:#263238;" d="M198.526,162.845c1.349,1.05,1.66,2.906,0.694,4.146c-0.965,1.24-2.841,1.393-4.19,0.343
					c-1.349-1.05-1.66-2.907-0.694-4.146C195.302,161.948,197.178,161.795,198.526,162.845z"/>
			</g>
		</g>
		<g>
			<g>
				<g>
					<path style="fill:#263238;" d="M195.974,165.527c0.066,0.206-1.945,1.036-4.492,1.854c-2.548,0.818-4.666,1.314-4.732,1.108
						c-0.066-0.206,1.945-1.036,4.493-1.854C193.789,165.817,195.908,165.321,195.974,165.527z"/>
				</g>
			</g>
		</g>
		<g>
			<g>
				<g>
					<path style="fill:#263238;" d="M186.741,158.029c0.216,0.001,0.384,1.986,0.375,4.432c-0.009,2.448-0.192,4.431-0.408,4.43
						c-0.216-0.001-0.384-1.985-0.375-4.433C186.342,160.011,186.525,158.028,186.741,158.029z"/>
				</g>
			</g>
		</g>
	</g>
	<g>
		<g id="XMLID_30_">
			<path style="fill:#E8505B;" d="M167.398,215.598l1.195-1.793c0.582-0.873,1.301-0.689,1.709-0.417
				c0.409,0.273,2.517,1.678,2.517,1.678l2.56-3.84l-3.455-2.325c-3.846-2.564-6.63-0.281-7.853,1.554l-1.35,2.026l-2.223-1.482
				l-2.99,4.485l2.243,1.495c-3.388,5.082-7.474,11.211-7.474,11.211l4.484,2.99c0,0,4.127-6.191,7.474-11.211l3.328,2.219
				l3.4-4.213L167.398,215.598z"/>
		</g>
	</g>
	<g>
		<path style="fill-rule:evenodd;clip-rule:evenodd;fill:#E8505B;" d="M277.346,157.165c-4.15,4.187-3.355,9.189-0.922,11.601
			c0.452,0.449,0.937,0.833,1.445,1.112c1.162,0.655,2.434,0.842,3.623,0.322c0.289-0.114,0.384-0.388,0.222-0.645
			c-0.105-0.201-0.39-0.658-0.503-0.867c-0.154-0.281-0.251-0.329-0.597-0.351c-0.459-0.038-0.918-0.141-1.37-0.397
			c-0.299-0.167-0.597-0.383-0.896-0.68c-2.158-2.139-2.44-5.735,0.22-8.419c2.347-2.368,5.044-2.292,6.919-0.433
			c0.558,0.553,1.027,1.13,1.424,1.732c1.354,2.078,1.637,4.282,0.347,5.583c-0.913,0.921-2.346,0.896-3.035-0.236
			c-0.381-0.634-0.73-1.349-1.087-2.023c-0.374-0.707-0.755-1.373-1.159-1.773c-0.711-0.705-1.67-0.886-2.479-0.07
			c-0.938,0.946-0.737,2.651,0.524,3.901c0.235,0.233,0.485,0.433,0.687,0.568c0.541,0.36,0.952,0.495,0.952,0.495
			s3.008,4.904,3.543,5.755c1.054,1.717,3.032,3.101,3.226,3.245c0.105,0.088,0.265-0.025,0.257-0.162
			c-0.025-0.201-0.246-2.646-1.211-4.372c-0.292-0.482-1.743-2.962-1.743-2.962c0.871,0.27,2.261-0.131,3.214-1.093
			c2.283-2.304,2.308-5.676,0.428-8.645c-0.422-0.674-0.956-1.332-1.57-1.94C285.258,153.886,280.702,153.778,277.346,157.165
			L277.346,157.165z"/>
	</g>
	<g>
		<path style="fill-rule:evenodd;clip-rule:evenodd;fill:#E8505B;" d="M349.576,111.215c-0.829,0.359-1.731,0.606-2.684,0.73
			c0.977-0.581,1.719-1.472,2.066-2.56c-0.903,0.532-1.917,0.915-2.981,1.125c-0.842-0.902-2.066-1.459-3.427-1.459
			c-2.573,0-4.676,2.066-4.676,4.601c0,0.371,0.063,0.718,0.137,1.052c-3.896-0.186-7.348-2.017-9.649-4.812
			c-0.396,0.693-0.643,1.472-0.643,2.313c0,1.608,0.841,3.018,2.078,3.835c-0.767-0.012-1.484-0.223-2.115-0.569
			c0,0.025,0,0.037,0,0.062c0,0.594,0.112,1.138,0.321,1.657c0.57,1.448,1.868,2.536,3.44,2.845
			c-0.409,0.111-0.805,0.173-1.237,0.173c-0.297,0-0.594-0.037-0.879-0.099c0.607,1.831,2.326,3.166,4.367,3.216
			c-1.608,1.237-3.612,1.967-5.802,1.967c-0.384,0-0.742-0.025-1.125-0.062c2.078,1.299,4.539,2.066,7.174,2.066
			c7.31,0,11.825-5.06,13-10.317c0.211-0.94,0.309-1.868,0.309-2.783c0-0.198,0-0.408,0-0.594
			C348.153,112.947,348.958,112.13,349.576,111.215L349.576,111.215z"/>
	</g>
	<g>
		<path style="fill-rule:evenodd;clip-rule:evenodd;fill:#E8505B;" d="M371.48,187.482h3.32c0.742,0,2.014,0.326,2.014,1.733
			c0,0.743-0.585,1.609-1.316,1.609h-4.018V187.482z M382.172,180.808h5.986v1.992h-5.986V180.808z M387.36,187.482h-4.389
			c0.135-1.182,1.035-1.98,2.206-1.98C386.335,185.501,387.19,186.312,387.36,187.482L387.36,187.482z M382.824,188.81h7.349
			c0-0.102,0-0.226,0-0.326c0-2.758-1.992-5.008-4.996-5.008c-3.027,0-5.008,2.251-5.008,5.008c0,2.779,1.981,5.007,5.008,5.007
			c3.004,0,4.445-1.722,4.896-4.018h-2.712c-0.237,1.182-0.935,2.015-2.184,2.015C383.905,191.488,382.937,190.306,382.824,188.81
			L382.824,188.81z M379.504,189.473c0-1.44-0.968-2.689-2.273-3.14c0.944-0.597,1.587-1.654,1.587-2.859
			c0-1.834-1.497-3.331-3.32-3.331h-6.696v13.347h6.696C377.681,193.491,379.504,191.701,379.504,189.473L379.504,189.473z
			 M374.8,185.501h-3.32V182.8h3.32c0.742,0,1.351,0.609,1.351,1.361C376.151,184.894,375.543,185.501,374.8,185.501L374.8,185.501z
			"/>
	</g>
</g>
<g id="Plant">
	<g>
		<g>
			<rect x="360.038" y="390.945" style="fill:#263238;" width="73.097" height="10.044"/>
			<path style="fill:#263238;" d="M433.259,401.114h-73.347V390.82h73.347V401.114z M360.163,400.864h72.847v-9.794h-72.847V400.864
				z"/>
		</g>
		<g>
			<polygon style="fill:#263238;" points="366.815,397.646 377.337,449.553 416.267,449.553 426.438,400.989 			"/>
		</g>
		<g>
			<polygon style="fill:#455A64;" points="366.815,444.643 372.427,452.359 419.746,452.359 426.438,444.643 			"/>
		</g>
		<g>
			<g>
				<path style="fill:#263238;" d="M393.841,399.162c-0.144,0-0.328-24.047-0.412-53.704c-0.083-29.668-0.035-53.71,0.109-53.711
					c0.144,0,0.328,24.042,0.411,53.709C394.034,375.113,393.985,399.161,393.841,399.162z"/>
			</g>
		</g>
		<g>
			<g>
				<path style="fill:#263238;" d="M410.124,338.984c0.016,0.008-0.052,0.201-0.196,0.559c-0.171,0.408-0.387,0.923-0.653,1.556
					c-0.146,0.343-0.305,0.716-0.477,1.121c-0.151,0.424-0.313,0.879-0.487,1.365c-0.177,0.492-0.365,1.014-0.563,1.566
					c-0.195,0.555-0.349,1.161-0.541,1.786c-0.798,2.492-1.433,5.549-2.044,8.95c-0.532,3.418-0.931,7.203-1.132,11.192
					c-0.356,7.987,0.096,15.228,0.578,20.444c0.235,2.61,0.472,4.719,0.646,6.175c0.075,0.683,0.136,1.239,0.184,1.679
					c0.036,0.385,0.047,0.588,0.029,0.591c-0.018,0.003-0.063-0.196-0.133-0.576c-0.074-0.437-0.167-0.989-0.281-1.667
					c-0.236-1.449-0.529-3.554-0.811-6.165c-0.577-5.217-1.089-12.481-0.732-20.505c0.202-4.008,0.618-7.813,1.179-11.246
					c0.641-3.418,1.317-6.485,2.166-8.979c0.204-0.625,0.371-1.23,0.579-1.785c0.213-0.55,0.415-1.071,0.604-1.561
					c0.189-0.483,0.365-0.935,0.529-1.356c0.18-0.409,0.364-0.775,0.521-1.108c0.303-0.618,0.549-1.122,0.744-1.521
					C410.008,339.152,410.108,338.976,410.124,338.984z"/>
			</g>
		</g>
		<g>
			<g>
				<path style="fill:#263238;" d="M408.255,319.534c0.017,0.007-0.064,0.28-0.232,0.793c-0.189,0.556-0.443,1.301-0.761,2.236
					c-0.17,0.489-0.356,1.026-0.559,1.611c-0.182,0.6-0.378,1.248-0.588,1.942c-0.427,1.392-0.923,2.973-1.363,4.752
					c-0.234,0.887-0.479,1.814-0.734,2.78c-0.22,0.976-0.448,1.991-0.685,3.041c-0.511,2.093-0.879,4.367-1.35,6.742
					c-0.805,4.776-1.515,10.056-2.005,15.625c-0.462,5.574-0.663,10.9-0.734,15.745c-0.014,4.845,0.047,9.211,0.246,12.872
					c0.065,1.832,0.182,3.486,0.276,4.939c0.084,1.454,0.175,2.705,0.268,3.727c0.075,0.985,0.134,1.769,0.179,2.355
					c0.035,0.539,0.045,0.823,0.027,0.825c-0.018,0.002-0.063-0.278-0.132-0.814c-0.069-0.584-0.161-1.366-0.276-2.348
					c-0.124-1.019-0.245-2.269-0.357-3.723c-0.122-1.453-0.266-3.108-0.354-4.942c-0.246-3.664-0.346-8.038-0.358-12.895
					c0.044-4.856,0.232-10.197,0.695-15.786c0.491-5.585,1.217-10.879,2.051-15.665c0.486-2.38,0.871-4.658,1.402-6.753
					c0.247-1.051,0.486-2.066,0.716-3.043c0.267-0.965,0.523-1.893,0.768-2.78c0.464-1.778,0.986-3.356,1.441-4.743
					c0.225-0.691,0.436-1.336,0.63-1.933c0.219-0.581,0.42-1.115,0.603-1.6c0.357-0.922,0.642-1.657,0.854-2.205
					C408.125,319.788,408.239,319.528,408.255,319.534z"/>
			</g>
		</g>
		<g>
			<g>
				<path style="fill:#263238;" d="M389.218,403.416c-0.009,0-0.023-0.095-0.041-0.281c-0.018-0.216-0.041-0.488-0.069-0.827
					c-0.052-0.766-0.124-1.832-0.215-3.184c-0.175-2.805-0.425-6.797-0.733-11.714c-0.635-9.888-1.552-23.549-3.216-38.572
					c-0.85-7.512-1.836-14.645-2.861-21.113c-0.545-3.228-1.039-6.301-1.6-9.158c-0.514-2.867-1.068-5.522-1.578-7.945
					c-0.48-2.43-1.016-4.605-1.447-6.525c-0.424-1.922-0.833-3.566-1.176-4.908c-0.323-1.316-0.576-2.353-0.759-3.099
					c-0.076-0.332-0.137-0.598-0.185-0.809c-0.039-0.183-0.054-0.278-0.046-0.281c0.009-0.002,0.042,0.088,0.097,0.267
					c0.061,0.208,0.138,0.47,0.235,0.796c0.206,0.74,0.491,1.769,0.854,3.076c0.373,1.335,0.812,2.974,1.262,4.891
					c0.458,1.915,1.02,4.087,1.524,6.515c0.533,2.421,1.109,5.075,1.642,7.942c0.58,2.858,1.091,5.931,1.649,9.162
					c1.052,6.472,2.054,13.613,2.905,21.132c1.665,15.039,2.525,28.713,3.066,38.609c0.269,4.949,0.455,8.955,0.568,11.725
					c0.05,1.355,0.089,2.422,0.117,3.19c0.007,0.34,0.013,0.614,0.017,0.83C389.231,403.319,389.227,403.415,389.218,403.416z"/>
			</g>
		</g>
		<g>
			<path style="fill:#E8505B;" d="M393.245,303.307c-0.318-3.407-3.76-5.977-7.182-6.012c-3.421-0.035-6.61,2.017-8.703,4.724
				c-2.092,2.707-3.246,6.012-4.19,9.301c-2.304,8.026-3.564,16.459-2.578,24.751c0.985,8.292,4.349,16.456,10.3,22.314
				c0.967,0.953,2.221,1.905,3.548,1.622c0.726-0.155,1.321-0.659,1.872-1.157c11.689-10.559,18.438-26.374,17.976-42.119
				c-0.093-3.153-0.507-6.435-2.253-9.062C400.288,305.042,396.218,302.252,393.245,303.307"/>
		</g>
		<g>
			<g>
				<path style="fill:#E8505B;" d="M367.697,276.02c-1.606,2.909-3.213,5.818-4.819,8.727c-0.112,0.203-0.261,0.432-0.492,0.451
					c-0.253,0.021-0.443-0.218-0.581-0.431c-4.247-6.517-8.493-13.035-12.74-19.552l2.936-1.663L367.697,276.02z"/>
			</g>
			<g style="opacity:0.2;">
				<g>
					<path d="M367.697,276.02c-1.606,2.909-3.213,5.818-4.819,8.727c-0.112,0.203-0.261,0.432-0.492,0.451
						c-0.253,0.021-0.443-0.218-0.581-0.431c-4.247-6.517-8.493-13.035-12.74-19.552l2.936-1.663L367.697,276.02z"/>
				</g>
			</g>
			<g>
				<path style="fill:#E8505B;" d="M393.539,291.746c-14.486-8.548-28.973-17.096-43.459-25.644
					c-0.443-0.262-0.924-0.571-1.058-1.067c-0.174-0.643,0.309-1.263,0.773-1.741c5.977-6.166,14.659-9.741,23.225-9.124
					c8.565,0.616,16.803,5.564,20.996,13.059C398.21,274.721,398.349,284.632,393.539,291.746"/>
			</g>
			<g>
				<g>
					<path style="fill:#263238;" d="M356.344,257.916c-0.001-0.018,0.195-0.042,0.569-0.071c0.375-0.019,0.928-0.086,1.642-0.079
						c1.428-0.035,3.504,0.059,6.03,0.479c2.525,0.415,5.49,1.227,8.587,2.609c3.096,1.375,6.3,3.366,9.218,5.981
						c2.894,2.644,5.195,5.634,6.872,8.578c1.684,2.945,2.787,5.815,3.452,8.285c0.67,2.471,0.97,4.528,1.077,5.952
						c0.079,0.71,0.066,1.267,0.085,1.642c0.008,0.376,0.004,0.573-0.014,0.573c-0.046,0.002-0.1-0.785-0.273-2.194
						c-0.168-1.409-0.522-3.439-1.23-5.872c-1.374-4.84-4.564-11.365-10.319-16.578c-5.759-5.204-12.569-7.728-17.521-8.613
						c-2.492-0.462-4.547-0.611-5.966-0.638C357.135,257.937,356.346,257.962,356.344,257.916z"/>
				</g>
			</g>
			<g>
				<g>
					<path style="fill:#263238;" d="M387.657,274.046c0.025,0.066-0.812,0.453-2.197,0.999c-1.385,0.546-3.319,1.243-5.484,1.931
						c-2.165,0.687-4.148,1.234-5.594,1.587c-1.446,0.353-2.353,0.52-2.37,0.452c-0.019-0.071,0.854-0.363,2.271-0.807
						c1.602-0.5,3.47-1.084,5.535-1.729c2.057-0.664,3.92-1.266,5.517-1.781C386.749,274.242,387.631,273.977,387.657,274.046z"/>
				</g>
			</g>
			<g>
				<g>
					<path style="fill:#263238;" d="M380.813,255.663c0.14-0.013,0.448,2.154,0.514,4.848c0.07,2.694-0.128,4.874-0.268,4.868
						c-0.147-0.005-0.183-2.179-0.252-4.855C380.741,257.849,380.667,255.676,380.813,255.663z"/>
				</g>
			</g>
			<g>
				<g>
					<path style="fill:#263238;" d="M349.701,265.615c-0.02-0.066,1.182-0.503,3.157-1.111c1.974-0.609,4.724-1.379,7.789-2.118
						c3.066-0.738,5.866-1.304,7.901-1.661c2.035-0.358,3.304-0.517,3.316-0.449c0.013,0.073-1.231,0.36-3.244,0.81
						c-2.013,0.449-4.792,1.07-7.851,1.807c-3.057,0.737-5.814,1.449-7.811,1.967C350.961,265.375,349.722,265.687,349.701,265.615z
						"/>
				</g>
			</g>
		</g>
		<g>
			<g>
				<path style="fill:#E8505B;" d="M373.5,295.243c-3.737-2.834-7.69-3.393-12.377-3.207c-4.687,0.186-9.249,1.614-13.546,3.496
					c-7.328,3.209-14.216,7.94-18.595,14.636c-4.379,6.695-5.902,15.56-2.624,22.857c0.326,0.727,0.752,1.487,1.484,1.801
					c0.771,0.33,1.655,0.072,2.453-0.188c8.335-2.719,16.728-5.463,24.392-9.721c7.663-4.258,14.639-10.177,18.751-17.919
					c0.987-1.858,1.813-3.849,1.974-5.947C375.574,298.954,374.994,296.724,373.5,295.243"/>
			</g>
			<g>
				<g>
					<path style="fill:#263238;" d="M373.575,294.364c0.005,0.017-0.202,0.101-0.6,0.244c-0.451,0.155-1.03,0.354-1.746,0.601
						c-0.386,0.129-0.807,0.269-1.265,0.422c-0.458,0.165-0.947,0.37-1.477,0.576c-1.054,0.427-2.279,0.853-3.568,1.478
						c-0.652,0.297-1.334,0.608-2.044,0.931c-0.709,0.327-1.416,0.73-2.165,1.111c-1.511,0.742-3.039,1.69-4.667,2.651
						c-3.195,2.02-6.577,4.452-9.868,7.319c-3.264,2.9-6.107,5.945-8.518,8.858c-1.161,1.492-2.296,2.888-3.224,4.292
						c-0.474,0.694-0.963,1.345-1.378,2.006c-0.411,0.662-0.806,1.299-1.183,1.909c-0.785,1.199-1.363,2.359-1.921,3.35
						c-0.271,0.5-0.537,0.958-0.759,1.392c-0.209,0.434-0.402,0.834-0.579,1.2c-0.336,0.679-0.607,1.228-0.818,1.655
						c-0.192,0.376-0.301,0.571-0.318,0.564c-0.017-0.007,0.06-0.215,0.222-0.606c0.189-0.439,0.431-1.002,0.731-1.7
						c0.165-0.373,0.345-0.782,0.54-1.224c0.209-0.442,0.464-0.909,0.723-1.417c0.535-1.008,1.094-2.187,1.862-3.404
						c0.371-0.618,0.758-1.265,1.161-1.937c0.408-0.671,0.892-1.331,1.361-2.035c0.919-1.423,2.048-2.837,3.207-4.348
						c2.406-2.949,5.26-6.026,8.547-8.947c3.315-2.887,6.73-5.325,9.961-7.336c1.646-0.956,3.192-1.896,4.72-2.626
						c0.758-0.376,1.474-0.771,2.191-1.091c0.718-0.314,1.408-0.616,2.069-0.905c1.305-0.607,2.545-1.012,3.614-1.414
						c0.537-0.193,1.033-0.385,1.498-0.537c0.464-0.137,0.892-0.264,1.283-0.38c0.73-0.209,1.32-0.377,1.779-0.508
						C373.353,294.396,373.57,294.347,373.575,294.364z"/>
				</g>
			</g>
			<g>
				<g>
					<path style="fill:#263238;" d="M344.374,310.175c0.04,0.138-4.031,1.45-9.092,2.929c-5.063,1.48-9.198,2.568-9.239,2.43
						c-0.04-0.138,4.03-1.449,9.092-2.93C340.197,311.125,344.333,310.037,344.374,310.175z"/>
				</g>
			</g>
			<g>
				<g>
					<path style="fill:#263238;" d="M344,330.239c-0.07,0.001-0.152-1.081-0.2-2.833c-0.048-1.751-0.055-4.172,0.019-6.845
						c0.075-2.673,0.218-5.09,0.364-6.836c0.146-1.746,0.288-2.822,0.358-2.817c0.073,0.005,0.061,1.089,0.01,2.838
						c-0.059,1.919-0.131,4.251-0.211,6.83c-0.065,2.579-0.123,4.911-0.171,6.83C344.122,329.155,344.073,330.238,344,330.239z"/>
				</g>
			</g>
			<g>
				<g>
					<path style="fill:#263238;" d="M361.187,321.483c-0.143,0.01-0.6-4.91-1.021-10.987c-0.42-6.079-0.645-11.014-0.501-11.024
						c0.143-0.01,0.6,4.909,1.021,10.988C361.106,316.537,361.33,321.473,361.187,321.483z"/>
				</g>
			</g>
			<g>
				<g>
					<path style="fill:#263238;" d="M339.793,298.995c0.004-0.072,1.117-0.1,2.914-0.088s4.277,0.065,7.016,0.156
						c2.739,0.091,5.218,0.202,7.012,0.308c1.794,0.107,2.903,0.208,2.902,0.28c-0.001,0.072-1.113,0.1-2.91,0.088
						c-1.797-0.012-4.28-0.065-7.021-0.156c-2.741-0.091-5.221-0.202-7.015-0.308C340.897,299.168,339.79,299.066,339.793,298.995z"
						/>
				</g>
			</g>
		</g>
		<g>
			<g>
				<path style="fill:#263238;" d="M382.755,360.725c-0.018,0.001-0.039-0.204-0.062-0.594c-0.02-0.447-0.045-1.012-0.077-1.707
					c-0.065-1.483-0.08-3.632-0.025-6.286c0.047-2.655,0.224-5.813,0.536-9.311c0.339-3.495,0.828-7.327,1.53-11.319
					c0.72-3.99,1.584-7.757,2.473-11.154c0.914-3.391,1.84-6.416,2.712-8.924c0.864-2.51,1.62-4.522,2.194-5.891
					c0.269-0.642,0.488-1.163,0.661-1.576c0.156-0.358,0.247-0.543,0.263-0.536c0.017,0.007-0.041,0.204-0.166,0.575
					c-0.149,0.421-0.338,0.954-0.57,1.609c-0.515,1.389-1.216,3.416-2.033,5.934c-0.825,2.516-1.711,5.543-2.597,8.929
					c-0.861,3.392-1.707,7.148-2.425,11.124c-0.699,3.978-1.201,7.793-1.565,11.274c-0.338,3.483-0.552,6.63-0.646,9.276
					c-0.103,2.646-0.144,4.79-0.141,6.272c-0.009,0.695-0.016,1.26-0.021,1.707C382.787,360.519,382.773,360.724,382.755,360.725z"
					/>
			</g>
		</g>
		<g>
			<g>
				<path style="fill:#263238;" d="M385.047,331.073c0.049,0.05-0.609,0.782-1.733,1.903c-1.124,1.121-2.721,2.626-4.542,4.224
					c-1.823,1.597-3.524,2.983-4.783,3.951c-1.258,0.968-2.069,1.525-2.113,1.47c-0.046-0.058,0.684-0.715,1.88-1.754
					c1.335-1.16,2.92-2.536,4.672-4.057c1.737-1.537,3.309-2.928,4.633-4.101C384.248,331.657,384.996,331.02,385.047,331.073z"/>
			</g>
		</g>
		<g>
			<g>
				<path style="fill:#263238;" d="M398.803,342.154c-0.063,0.039-0.752-0.949-1.847-2.557c-1.188-1.734-2.663-3.886-4.294-6.267
					c-1.666-2.358-3.172-4.49-4.384-6.206c-1.127-1.585-1.815-2.575-1.756-2.62c0.055-0.043,0.846,0.868,2.051,2.4
					c1.205,1.531,2.818,3.688,4.517,6.129c1.698,2.441,3.159,4.703,4.176,6.365C398.283,341.059,398.862,342.117,398.803,342.154z"
					/>
			</g>
		</g>
		<g>
			<g>
				<path style="fill:#263238;" d="M391.597,307.306c0.078,0.121-4.492,3.197-10.205,6.87c-5.715,3.674-10.41,6.554-10.487,6.433
					c-0.078-0.121,4.491-3.197,10.206-6.871C386.824,310.065,391.519,307.185,391.597,307.306z"/>
			</g>
		</g>
		<g>
			<g>
				<path style="fill:#263238;" d="M404.482,321.212c-0.1,0.103-3.195-2.757-6.911-6.386c-3.717-3.631-6.649-6.657-6.548-6.76
					c0.1-0.103,3.194,2.756,6.912,6.387C401.65,318.083,404.582,321.109,404.482,321.212z"/>
			</g>
		</g>
		<g>
			<g>
				<path style="fill:#E8505B;" d="M407.722,320.933l3.923-0.325c2.784-0.23,5.487-1.055,7.921-2.425
					c1.203-0.677,2.413-1.341,3.692-1.854c4.85-1.947,10.261-1.599,15.48-1.861c8.519-0.428,16.948-2.582,24.626-6.297
					c0.444-0.215,0.836-0.542,1.073-0.974c0.806-1.468-0.691-2.775-1.979-3.568c-6.608-4.072-13.335-8.196-20.83-10.217
					c-7.494-2.022-16.001-1.68-22.396,2.721C411.725,301.299,408.99,311.909,407.722,320.933"/>
			</g>
			<g>
				<g>
					<path style="fill:#263238;" d="M464.525,306.716c-0.009,0.016-0.237-0.091-0.665-0.31c-0.47-0.246-1.088-0.57-1.859-0.974
						c-1.613-0.848-3.934-2.1-6.867-3.506c-2.935-1.391-6.492-2.962-10.63-4.097c-4.121-1.145-8.875-1.744-13.777-1.116
						c-4.882,0.643-9.378,2.543-12.56,5.394c-3.203,2.841-5.159,6.271-6.54,9.186c-1.378,2.94-2.228,5.441-2.845,7.152
						c-0.29,0.821-0.522,1.478-0.698,1.979c-0.163,0.451-0.257,0.686-0.274,0.68c-0.017-0.005,0.043-0.251,0.174-0.712
						c0.153-0.509,0.355-1.177,0.606-2.01c0.56-1.734,1.357-4.258,2.704-7.243c1.35-2.957,3.296-6.461,6.556-9.391
						c3.242-2.941,7.842-4.897,12.81-5.55c4.986-0.64,9.817-0.012,13.973,1.17c4.175,1.173,7.737,2.789,10.663,4.228
						c2.923,1.454,5.22,2.757,6.804,3.66c0.752,0.439,1.354,0.792,1.813,1.06C464.322,306.563,464.534,306.7,464.525,306.716z"/>
				</g>
			</g>
			<g>
				<g>
					<path style="fill:#263238;" d="M455.104,311.777c-0.08,0.119-5.211-3.199-11.458-7.412c-6.249-4.214-11.248-7.725-11.168-7.844
						c0.08-0.119,5.21,3.199,11.459,7.412C450.185,308.146,455.185,311.658,455.104,311.777z"/>
				</g>
			</g>
			<g>
				<g>
					<path style="fill:#263238;" d="M450.176,296.03c0.027,0.137-1.753,0.599-4.004,0.803c-2.252,0.21-4.086,0.08-4.084-0.059
						c0-0.148,1.813-0.252,4.036-0.46C448.347,296.113,450.149,295.885,450.176,296.03z"/>
				</g>
			</g>
			<g>
				<g>
					<path style="fill:#263238;" d="M427.174,291.909c0.124,0.073-0.63,1.58-1.683,3.365c-1.054,1.786-2.008,3.174-2.132,3.101
						c-0.124-0.073,0.63-1.58,1.683-3.366C426.096,293.224,427.05,291.836,427.174,291.909z"/>
				</g>
			</g>
			<g>
				<g>
					<path style="fill:#263238;" d="M431.771,314.799c-0.036,0.058-0.987-0.439-2.469-1.339c-1.482-0.899-3.485-2.217-5.625-3.771
						c-2.14-1.555-4.027-3.024-5.383-4.099c-1.355-1.077-2.174-1.768-2.13-1.827c0.043-0.057,0.94,0.53,2.352,1.532
						c1.539,1.118,3.404,2.473,5.467,3.972c2.133,1.548,4.092,2.908,5.519,3.883C430.928,314.127,431.81,314.735,431.771,314.799z"
						/>
				</g>
			</g>
		</g>
		<g>
			<g>
				<path style="fill:#E8505B;" d="M413.497,337.599c-3.742-0.988-8.201,2.651-8.973,6.443c-0.771,3.792,0.651,7.671,2.316,11.164
					c3.686,7.733,8.773,14.905,15.472,20.244c6.7,5.339,15.091,8.753,23.657,8.709c-1.582-7.347,0.419-15.022-0.463-22.485
					c-0.77-6.514-3.807-12.738-8.468-17.353c-4.661-4.615-10.915-7.59-17.437-8.295C417.214,335.768,414.45,335.393,413.497,337.599
					"/>
			</g>
			<g>
				<g>
					<path style="fill:#263238;" d="M445.97,384.159c-0.009,0.016-0.191-0.07-0.533-0.248c-0.338-0.184-0.825-0.481-1.399-0.939
						c-1.175-0.891-2.52-2.61-3.694-4.941c-0.597-1.158-1.263-2.416-1.915-3.808c-0.632-1.397-1.305-2.886-2.013-4.45
						c-0.714-1.559-1.499-3.177-2.474-4.756c-0.97-1.581-2.125-3.127-3.404-4.63c-2.562-3.009-5.31-5.612-7.693-8.099
						c-2.395-2.477-4.41-4.863-5.865-7.037c-1.47-2.166-2.36-4.106-2.866-5.474c-0.241-0.69-0.414-1.23-0.5-1.605
						c-0.094-0.372-0.135-0.57-0.118-0.574c0.049-0.014,0.26,0.764,0.807,2.105c0.559,1.334,1.488,3.223,2.981,5.339
						c1.479,2.124,3.502,4.463,5.906,6.911c2.393,2.46,5.157,5.056,7.745,8.096c1.292,1.518,2.461,3.088,3.442,4.7
						c0.986,1.61,1.77,3.253,2.475,4.824c0.692,1.57,1.35,3.064,1.968,4.467c0.628,1.386,1.277,2.657,1.85,3.821
						c1.127,2.337,2.384,4.029,3.497,4.954C445.262,383.759,446.002,384.108,445.97,384.159z"/>
				</g>
			</g>
			<g>
				<g>
					<path style="fill:#263238;" d="M426.623,378.053c-0.068-0.013,0.05-0.978,0.343-2.519c0.293-1.541,0.773-3.656,1.422-5.96
						c0.65-2.305,1.344-4.36,1.898-5.827c0.554-1.468,0.957-2.352,1.022-2.327c0.07,0.026-0.21,0.954-0.673,2.447
						c-0.464,1.493-1.099,3.555-1.746,5.849c-0.645,2.293-1.18,4.384-1.564,5.899C426.941,377.13,426.696,378.068,426.623,378.053z"
						/>
				</g>
			</g>
			<g>
				<g>
					<path style="fill:#263238;" d="M445.261,360.02c-0.023,0.071-1.024-0.184-2.636-0.606c-1.612-0.421-3.838-0.997-6.315-1.556
						c-2.478-0.557-4.736-0.991-6.373-1.302c-1.637-0.31-2.651-0.508-2.641-0.582c0.009-0.068,1.042,0.001,2.699,0.219
						c1.657,0.218,3.938,0.597,6.429,1.157c2.49,0.562,4.713,1.197,6.303,1.71C444.319,359.574,445.282,359.954,445.261,360.02z"/>
				</g>
			</g>
			<g>
				<g>
					<path style="fill:#263238;" d="M412.739,365.259c-0.068-0.013,0.076-1.128,0.405-2.915c0.329-1.786,0.853-4.242,1.552-6.924
						c0.701-2.683,1.444-5.082,2.03-6.801c0.586-1.719,1.005-2.762,1.071-2.74c0.071,0.023-0.225,1.107-0.72,2.85
						c-0.495,1.743-1.18,4.15-1.878,6.823c-0.697,2.673-1.275,5.106-1.696,6.869C413.084,364.184,412.812,365.273,412.739,365.259z"
						/>
				</g>
			</g>
			<g>
				<g>
					<path style="fill:#263238;" d="M436.678,344.304c-0.015,0.143-4.686-0.235-10.431-0.844
						c-5.747-0.609-10.392-1.219-10.377-1.362c0.015-0.143,4.685,0.235,10.432,0.844
						C432.047,343.551,436.693,344.161,436.678,344.304z"/>
				</g>
			</g>
		</g>
		<g>
			<g>
				<path style="fill:#455A64;" d="M433.256,400.947c0,0.144-16.419,0.26-36.668,0.26c-20.256,0-36.671-0.117-36.671-0.26
					s16.415-0.26,36.671-0.26C416.837,400.686,433.256,400.803,433.256,400.947z"/>
			</g>
		</g>
		<g>
			<g>
				<path style="fill:#455A64;" d="M421.833,422.075c0,0.144-11.063,0.26-24.706,0.26c-13.648,0-24.708-0.117-24.708-0.26
					c0-0.144,11.06-0.26,24.708-0.26C410.77,421.815,421.833,421.932,421.833,422.075z"/>
			</g>
		</g>
		<g>
			<g>
				<path style="fill:#455A64;" d="M422.264,425.096c0,0.144-11.063,0.26-24.706,0.26c-13.648,0-24.708-0.117-24.708-0.26
					s11.06-0.26,24.708-0.26C411.202,424.836,422.264,424.953,422.264,425.096z"/>
			</g>
		</g>
		<g>
			<g>
				<path style="fill:#455A64;" d="M422.264,419.585c0,0.144-11.443,0.26-25.555,0.26c-14.117,0-25.557-0.117-25.557-0.26
					s11.44-0.26,25.557-0.26C410.822,419.325,422.264,419.442,422.264,419.585z"/>
			</g>
		</g>
	</g>
</g>
</svg>
