<svg width="1920" height="1139" viewBox="0 0 1920 1139" fill="none" xmlns="http://www.w3.org/2000/svg">
    <path
        d="M213.749 1.59549V228.758H215.246V1.59549H213.749ZM214.497 227.959H1.49605V229.554H214.497V227.959ZM426.751 1.59549V228.758H428.246V1.59549H426.751ZM427.499 227.959H214.497V229.554H427.499V227.959ZM639.752 1.59549V228.758H641.248V1.59549H639.752ZM640.501 227.959H427.499V229.554H640.501V227.959ZM852.754 1.59549V228.758H854.249V1.59549H852.754ZM853.501 227.959H640.501V229.554H853.501V227.959ZM1065.75 1.59549V228.758H1067.25V1.59549H1065.75ZM1066.5 227.959H853.501V229.554H1066.5V227.959ZM1278.76 1.59549V228.758H1280.25V1.59549H1278.76ZM1279.5 227.959H1066.5V229.554H1279.5V227.959ZM1491.76 1.59549V228.758H1493.25V1.59549H1491.76ZM1492.51 227.959H1279.5V229.554H1492.51V227.959ZM1704.75 1.59549V228.758H1706.26V1.59549H1704.75ZM1705.51 227.959H1492.51V229.554H1705.51V227.959ZM1918.51 227.959H1705.51V229.554H1918.51V227.959ZM213.749 228.758V455.92H215.246V228.758H213.749ZM214.497 455.122H1.49605V456.717H214.497V455.122ZM426.751 228.758V455.92H428.246V228.758H426.751ZM427.499 455.122H214.497V456.717H427.499V455.122ZM639.752 228.758V455.92H641.248V228.758H639.752ZM640.501 455.122H427.499V456.717H640.501V455.122ZM852.754 228.758V455.92H854.249V228.758H852.754ZM853.501 455.122H640.501V456.717H853.501V455.122ZM1065.75 228.758V455.92H1067.25V228.758H1065.75ZM1066.5 455.122H853.501V456.717H1066.5V455.122ZM1278.76 228.758V455.92H1280.25V228.758H1278.76ZM1279.5 455.122H1066.5V456.717H1279.5V455.122ZM1491.76 228.758V455.92H1493.25V228.758H1491.76ZM1492.51 455.122H1279.5V456.717H1492.51V455.122ZM1704.75 228.758V455.92H1706.26V228.758H1704.75ZM1705.51 455.122H1492.51V456.717H1705.51V455.122ZM1918.51 455.122H1705.51V456.717H1918.51V455.122ZM213.749 455.92V683.081H215.246V455.92H213.749ZM214.497 682.284H1.49605V683.879H214.497V682.284ZM426.751 455.92V683.081H428.246V455.92H426.751ZM427.499 682.284H214.497V683.879H427.499V682.284ZM639.752 455.92V683.081H641.248V455.92H639.752ZM640.501 682.284H427.499V683.879H640.501V682.284ZM852.754 455.92V683.081H854.249V455.92H852.754ZM853.501 682.284H640.501V683.879H853.501V682.284ZM1065.75 455.92V683.081H1067.25V455.92H1065.75ZM1066.5 682.284H853.501V683.879H1066.5V682.284ZM1278.76 455.92V683.081H1280.25V455.92H1278.76ZM1279.5 682.284H1066.5V683.879H1279.5V682.284ZM1491.76 455.92V683.081H1493.25V455.92H1491.76ZM1492.51 682.284H1279.5V683.879H1492.51V682.284ZM1704.75 455.92V683.081H1706.26V455.92H1704.75ZM1705.51 682.284H1492.51V683.879H1705.51V682.284ZM1918.51 682.284H1705.51V683.879H1918.51V682.284ZM213.749 683.081V910.243H215.246V683.081H213.749ZM214.497 909.445H1.49605V911.041H214.497V909.445ZM426.751 683.081V910.243H428.246V683.081H426.751ZM427.499 909.445H214.497V911.041H427.499V909.445ZM639.752 683.081V910.243H641.248V683.081H639.752ZM640.501 909.445H427.499V911.041H640.501V909.445ZM852.754 683.081V910.243H854.249V683.081H852.754ZM853.501 909.445H640.501V911.041H853.501V909.445ZM1065.75 683.081V910.243H1067.25V683.081H1065.75ZM1066.5 909.445H853.501V911.041H1066.5V909.445ZM1278.76 683.081V910.243H1280.25V683.081H1278.76ZM1279.5 909.445H1066.5V911.041H1279.5V909.445ZM1491.76 683.081V910.243H1493.25V683.081H1491.76ZM1492.51 909.445H1279.5V911.041H1492.51V909.445ZM1704.75 683.081V910.243H1706.26V683.081H1704.75ZM1705.51 909.445H1492.51V911.041H1705.51V909.445ZM1918.51 909.445H1705.51V911.041H1918.51V909.445ZM213.749 910.243V1137.41H215.246V910.243H213.749ZM426.751 910.243V1137.41H428.246V910.243H426.751ZM639.752 910.243V1137.41H641.248V910.243H639.752ZM852.754 910.243V1137.41H854.249V910.243H852.754ZM1065.75 910.243V1137.41H1067.25V910.243H1065.75ZM1278.76 910.243V1137.41H1280.25V910.243H1278.76ZM1491.76 910.243V1137.41H1493.25V910.243H1491.76ZM1704.75 910.243V1137.41H1706.26V910.243H1704.75ZM1.49605 1.59549V0H0V1.59549H1.49605ZM1918.51 1.59549H1920V0H1918.51V1.59549ZM1.49605 1137.41H0V1139H1.49605V1137.41ZM1918.51 1137.41V1139H1920V1137.41H1918.51ZM1.49605 3.19097H214.497V0H1.49605V3.19097ZM2.99209 228.758V1.59549H0V228.758H2.99209ZM214.497 3.19097H427.499V0H214.497V3.19097ZM427.499 3.19097H640.501V0H427.499V3.19097ZM640.501 3.19097H853.501V0H640.501V3.19097ZM853.501 3.19097H1066.5V0H853.501V3.19097ZM1066.5 3.19097H1279.5V0H1066.5V3.19097ZM1279.5 3.19097H1492.51V0H1279.5V3.19097ZM1492.51 3.19097H1705.51V0H1492.51V3.19097ZM1705.51 3.19097H1918.51V0H1705.51V3.19097ZM1917.01 1.59549V228.758H1920V1.59549H1917.01ZM2.99209 455.92V228.758H0V455.92H2.99209ZM1917.01 228.758V455.92H1920V228.758H1917.01ZM2.99209 683.081V455.92H0V683.081H2.99209ZM1917.01 455.92V683.081H1920V455.92H1917.01ZM2.99209 910.243V683.081H0V910.243H2.99209ZM1917.01 683.081V910.243H1920V683.081H1917.01ZM214.497 1135.81H1.49605V1139H214.497V1135.81ZM2.99209 1137.41V910.243H0V1137.41H2.99209ZM427.499 1135.81H214.497V1139H427.499V1135.81ZM640.501 1135.81H427.499V1139H640.501V1135.81ZM853.501 1135.81H640.501V1139H853.501V1135.81ZM1066.5 1135.81H853.501V1139H1066.5V1135.81ZM1279.5 1135.81H1066.5V1139H1279.5V1135.81ZM1492.51 1135.81H1279.5V1139H1492.51V1135.81ZM1705.51 1135.81H1492.51V1139H1705.51V1135.81ZM1917.01 910.243V1137.41H1920V910.243H1917.01ZM1918.51 1135.81H1705.51V1139H1918.51V1135.81Z"
        fill="rgba(50,50,50,0.063)" />
</svg>