<svg width="512" height="512" viewBox="0 0 512 512" style="color:#000000" xmlns="http://www.w3.org/2000/svg" class="h-full w-full"><rect width="512" height="512" x="0" y="0" rx="30" fill="transparent" stroke="transparent" stroke-width="0" stroke-opacity="100%" paint-order="stroke"></rect><svg width="256px" height="256px" viewBox="0 0 256 185" fill="#000000" x="128" y="128" role="img" style="display:inline-block;vertical-align:middle" xmlns="http://www.w3.org/2000/svg"><g fill="black"><path fill="#2396ED" d="M250.716 70.497c-5.765-4-18.976-5.5-29.304-3.5c-1.2-10-6.725-18.749-16.333-26.499l-5.524-4l-3.844 5.75c-4.803 7.5-7.205 18-6.485 28c.24 3.499 1.441 9.749 5.044 15.249c-3.362 2-10.328 4.5-19.455 4.5H1.155l-.48 2c-1.682 9.999-1.682 41.248 18.014 65.247c14.892 18.249 36.99 27.499 66.053 27.499c62.93 0 109.528-30.25 131.386-84.997c8.647.25 27.142 0 36.51-18.75c.24-.5.72-1.5 2.401-5.249l.961-2l-5.284-3.25ZM139.986 0h-26.42v24.999h26.42V0Zm0 29.999h-26.42v24.999h26.42v-25Zm-31.225 0h-26.42v24.999h26.42v-25Zm-31.225 0H51.115v24.999h26.421v-25ZM46.311 59.998H19.89v24.999h26.42v-25Zm31.225 0H51.115v24.999h26.421v-25Zm31.225 0h-26.42v24.999h26.42v-25Zm31.226 0h-26.422v24.999h26.422v-25Zm31.225 0H144.79v24.999h26.422v-25Z"/></g></svg></svg>