<svg width="512" height="512" viewBox="0 0 512 512" style="color:#000000" xmlns="http://www.w3.org/2000/svg" class="h-full w-full"><rect width="512" height="512" x="0" y="0" rx="30" fill="transparent" stroke="transparent" stroke-width="0" stroke-opacity="100%" paint-order="stroke"></rect><svg width="256px" height="256px" viewBox="0 0 256 384" fill="#000000" x="128" y="128" role="img" style="display:inline-block;vertical-align:middle" xmlns="http://www.w3.org/2000/svg"><g fill="black"><path fill="#0ACF83" d="M64 384c35.328 0 64-28.672 64-64v-64H64c-35.328 0-64 28.672-64 64s28.672 64 64 64Z"/><path fill="#A259FF" d="M0 192c0-35.328 28.672-64 64-64h64v128H64c-35.328 0-64-28.672-64-64Z"/><path fill="#F24E1E" d="M0 64C0 28.672 28.672 0 64 0h64v128H64C28.672 128 0 99.328 0 64Z"/><path fill="#FF7262" d="M128 0h64c35.328 0 64 28.672 64 64s-28.672 64-64 64h-64V0Z"/><path fill="#1ABCFE" d="M256 192c0 35.328-28.672 64-64 64s-64-28.672-64-64s28.672-64 64-64s64 28.672 64 64Z"/></g></svg></svg>