<svg width="512" height="512" viewBox="0 0 512 512" style="color:#000000" xmlns="http://www.w3.org/2000/svg" class="h-full w-full"><rect width="512" height="512" x="0" y="0" rx="30" fill="transparent" stroke="transparent" stroke-width="0" stroke-opacity="100%" paint-order="stroke"></rect><svg width="256px" height="256px" viewBox="0 0 256 236" fill="#000000" x="128" y="128" role="img" style="display:inline-block;vertical-align:middle" xmlns="http://www.w3.org/2000/svg"><g fill="black"><path fill="#E24329" d="m128.075 236.075l47.104-144.97H80.97l47.104 144.97Z"/><path fill="#FC6D26" d="M128.075 236.074L80.97 91.104H14.956l113.119 144.97Z"/><path fill="#FCA326" d="M14.956 91.104L.642 135.16a9.752 9.752 0 0 0 3.542 10.903l123.891 90.012l-113.12-144.97Z"/><path fill="#E24329" d="M14.956 91.105H80.97L52.601 3.79c-1.46-4.493-7.816-4.492-9.275 0l-28.37 87.315Z"/><path fill="#FC6D26" d="m128.075 236.074l47.104-144.97h66.015l-113.12 144.97Z"/><path fill="#FCA326" d="m241.194 91.104l14.314 44.056a9.752 9.752 0 0 1-3.543 10.903l-123.89 90.012l113.119-144.97Z"/><path fill="#E24329" d="M241.194 91.105h-66.015l28.37-87.315c1.46-4.493 7.816-4.492 9.275 0l28.37 87.315Z"/></g></svg></svg>